<svg width="90" height="85" viewBox="0 0 90 85" fill="none" xmlns="http://www.w3.org/2000/svg">
<path fill-rule="evenodd" clip-rule="evenodd" d="M32.0516 5.1773L32.8622 5.12071C36.5606 4.86251 39.1225 6.50057 40.7801 8.35883C42.4249 10.2027 43.1987 12.2828 43.3386 12.9985L42.5807 13.1795C42.4684 12.6047 41.7584 10.6509 40.2033 8.9076C38.7821 7.31435 36.6716 5.91356 33.6746 5.89028C34.7514 7.39987 35.3099 9.20112 35.5689 10.8783C35.8659 12.8021 35.7744 14.5975 35.5947 15.6774L35.5534 15.9252L32.3715 16.9659L32.1593 16.2077L34.8704 15.321C35.0108 14.3026 35.0666 12.7192 34.8055 11.0279C34.5221 9.19249 33.8709 7.26483 32.5847 5.789L32.0516 5.1773Z" fill="#FF004D"/>
<path fill-rule="evenodd" clip-rule="evenodd" d="M44.2703 27.5582C42.7731 25.9674 41.1075 24.782 40.04 24.1818L40.3548 23.5795C41.4756 24.2097 43.1955 25.4355 44.7427 27.0795C46.2872 28.7206 47.6874 30.8083 48.1162 33.1642L47.4676 33.2919C47.0728 31.1227 45.77 29.1519 44.2703 27.5582Z" fill="#FDF6F6"/>
<path fill-rule="evenodd" clip-rule="evenodd" d="M31.1363 42.2687C31.362 32.9492 37.365 25.9399 40.3459 23.5889L40.7452 24.1342C37.8585 26.4109 32.015 33.2468 31.7961 42.2859C31.687 46.7909 33.7888 53.3058 36.4998 59.665C39.2033 66.0067 42.4847 72.1313 44.6801 75.8302L44.1181 76.1894C41.9099 72.4689 38.6138 66.3169 35.8962 59.9421C33.186 53.5847 31.0231 46.943 31.1363 42.2687Z" fill="#FDF6F6"/>
<path fill-rule="evenodd" clip-rule="evenodd" d="M53.6681 31.6515C49.436 33.2078 45.8517 35.3262 43.8532 36.7957L43.4716 36.2368C45.5176 34.7324 49.156 32.5842 53.4476 31.0059C57.7368 29.4286 62.7089 28.4094 67.4091 29.1992L67.3036 29.8754C62.7553 29.111 57.9027 30.0943 53.6681 31.6515Z" fill="#FDF6F6"/>
<path fill-rule="evenodd" clip-rule="evenodd" d="M64.7837 34.4168C65.907 32.3579 66.6225 30.3547 66.9355 29.1496L67.5728 29.3279C67.2455 30.5878 66.509 32.6446 65.3581 34.7543C64.2081 36.862 62.6308 39.0476 60.6115 40.5375L60.2291 39.9792C62.1399 38.5694 63.6594 36.4776 64.7837 34.4168Z" fill="#FDF6F6"/>
<path fill-rule="evenodd" clip-rule="evenodd" d="M56.9458 37.6718C54.7583 37.6997 51.788 38.491 49.7084 39.2224L49.4966 38.5736C51.5951 37.8356 54.6446 37.0162 56.9377 36.9869C58.067 36.9725 59.1082 37.1468 59.7321 37.7184C60.0579 38.0169 60.2584 38.4134 60.2994 38.904C60.3396 39.3837 60.2264 39.9344 59.9665 40.5579L59.3607 40.2859C59.5954 39.7231 59.6693 39.2905 59.6419 38.9633C59.6154 38.6473 59.4936 38.4136 59.2953 38.2319C58.8711 37.8433 58.0568 37.6577 56.9458 37.6718Z" fill="#FDF6F6"/>
<path fill-rule="evenodd" clip-rule="evenodd" d="M36.3179 53.4454C36.2121 49.068 37.4265 44.9675 38.5841 42.5191L39.1766 42.8209C38.0575 45.188 36.875 49.1795 36.9777 53.4282C37.0802 57.668 38.4602 62.1435 42.4413 65.5413L42.0221 66.0703C37.8581 62.5165 36.424 57.8318 36.3179 53.4454Z" fill="#FDF6F6"/>
<path fill-rule="evenodd" clip-rule="evenodd" d="M45.9058 69.3951C46.7126 70.741 47.8172 71.3791 48.5572 71.5603L48.4056 72.2269C47.4955 72.0041 46.244 71.2561 45.3453 69.7568C44.4427 68.2511 43.9095 66.0121 44.3955 62.8271L45.0474 62.9342C44.5811 65.9901 45.1028 68.0555 45.9058 69.3951Z" fill="#FDF6F6"/>
<path fill-rule="evenodd" clip-rule="evenodd" d="M46.1205 66.6827C45.2902 65.5448 44.7487 64.1294 44.5009 63.1705L45.1383 62.993C45.3711 63.8935 45.8819 65.2211 46.6467 66.2692C47.4154 67.3226 48.3808 68.0197 49.532 67.8595L49.6197 68.5384C48.1193 68.7471 46.9469 67.8153 46.1205 66.6827Z" fill="#FDF6F6"/>
<path fill-rule="evenodd" clip-rule="evenodd" d="M55.9113 64.5122C54.0471 67.9882 50.8831 68.6705 49.492 68.5651L49.5381 67.882C50.7272 67.9721 53.6188 67.3766 55.3343 64.1778L55.9113 64.5122Z" fill="#FDF6F6"/>
<path fill-rule="evenodd" clip-rule="evenodd" d="M50.7897 72.6518C51.9964 69.4506 53.9836 66.1975 55.4458 64.1776L55.9739 64.5897C54.5342 66.5784 52.5827 69.7769 51.4045 72.9026C50.815 74.4662 50.4269 75.9917 50.3828 77.3276C50.3389 78.6616 50.6379 79.7698 51.3813 80.5573L50.9103 81.0361C49.9971 80.0687 49.6755 78.7489 49.7232 77.3027C49.7708 75.8584 50.1867 74.2516 50.7897 72.6518Z" fill="#FDF6F6"/>
<path fill-rule="evenodd" clip-rule="evenodd" d="M52.3628 45.1587C56.3266 43.4552 58.7647 41.0708 59.4683 40.1274L59.9903 40.5467C59.2111 41.5915 56.6771 44.046 52.6154 45.7915C51.4237 46.3036 50.1973 47.319 49.0254 48.6426C47.8565 49.9627 46.7584 51.5706 45.8193 53.2411C44.8803 54.9113 44.1049 56.6362 43.5784 58.1869C43.0488 59.7466 42.7825 61.0973 42.8328 62.0308L42.1738 62.0689C42.1162 60.9991 42.4171 59.5459 42.9559 57.9591C43.4977 56.3632 44.2917 54.5991 45.2492 52.8958C46.2066 51.1928 47.3318 49.5429 48.5393 48.1791C49.7437 46.8189 51.0465 45.7243 52.3628 45.1587Z" fill="#FDF6F6"/>
<path fill-rule="evenodd" clip-rule="evenodd" d="M43.5341 40.3581C43.3771 40.6513 43.1636 40.9453 42.9588 41.1887L42.4617 40.7381C42.6465 40.5186 42.8294 40.2642 42.9572 40.0254C43.0947 39.7686 43.1312 39.598 43.12 39.5193C43.1172 39.4996 43.1136 39.4969 43.1097 39.4938C43.1093 39.4936 43.109 39.4933 43.1086 39.493C43.0962 39.4831 43.0493 39.4541 42.9283 39.4429C42.6794 39.4198 42.2401 39.4824 41.5252 39.7209L41.3232 39.0688C42.0577 38.8238 42.6013 38.7249 42.987 38.7606C43.1833 38.7788 43.3667 38.8343 43.5123 38.9511C43.6659 39.0744 43.7477 39.2421 43.7729 39.4192C43.8183 39.7379 43.6815 40.0829 43.5341 40.3581Z" fill="#FDF6F6"/>
<path fill-rule="evenodd" clip-rule="evenodd" d="M30.0462 43.6966C33.8513 41.1859 39.2594 39.5236 41.5044 39.0123L41.6459 39.6814C39.4338 40.1852 34.1115 41.8259 30.4003 44.2746L30.0462 43.6966Z" fill="#FDF6F6"/>
<path fill-rule="evenodd" clip-rule="evenodd" d="M50.044 56.9494C50.5673 53.8726 50.9496 49.6556 51.1412 46.7065L51.7997 46.7525C51.6076 49.7103 51.2234 53.9558 50.694 57.0685C50.4315 58.6118 50.1263 59.9227 49.7728 60.651C49.6831 60.836 49.5812 61.003 49.4624 61.1294C49.3441 61.2554 49.1822 61.3689 48.9777 61.3781C48.7685 61.3875 48.5941 61.2845 48.4614 61.1513C48.3309 61.0203 48.2169 60.8383 48.1133 60.6224L48.7041 60.317C48.7915 60.4992 48.8657 60.6043 48.9202 60.6589C48.9335 60.6723 48.9439 60.681 48.9515 60.6866C48.9604 60.68 48.9731 60.6691 48.9897 60.6515C49.0425 60.5952 49.1087 60.4967 49.1833 60.3429C49.4873 59.7165 49.7801 58.5009 50.044 56.9494ZM48.9362 60.6959C48.9362 60.6959 48.9366 60.6958 48.9372 60.6956C48.9366 60.6959 48.9362 60.696 48.9362 60.6959ZM48.9651 60.6951C48.9665 60.6956 48.9673 60.6959 48.9673 60.696C48.9673 60.696 48.9666 60.6958 48.9651 60.6951Z" fill="#FDF6F6"/>
<path fill-rule="evenodd" clip-rule="evenodd" d="M47.7636 39.5771C47.7393 38.9148 47.9958 38.0612 48.2216 37.4955L48.8314 37.7576C48.6139 38.3025 48.4045 39.0425 48.4231 39.5511C48.4327 39.8105 48.4975 39.915 48.5449 39.9511C48.5845 39.9813 48.7173 40.0417 49.0773 39.9105L49.2959 40.5568C48.86 40.7156 48.4569 40.7339 48.1542 40.5031C47.8594 40.2784 47.7755 39.903 47.7636 39.5771Z" fill="#FDF6F6"/>
<path fill-rule="evenodd" clip-rule="evenodd" d="M46.2551 39.9599C46.2308 39.2976 46.4873 38.444 46.713 37.8783L47.3228 38.1404C47.1053 38.6853 46.896 39.4253 46.9146 39.9339C46.9241 40.1933 46.989 40.2978 47.0364 40.3339C47.0759 40.3641 47.2087 40.4245 47.5687 40.2933L47.7874 40.9396C47.3514 41.0984 46.9484 41.1167 46.6456 40.8859C46.3508 40.6612 46.267 40.2859 46.2551 39.9599Z" fill="#FDF6F6"/>
<path fill-rule="evenodd" clip-rule="evenodd" d="M44.9418 40.801C44.9197 40.1835 45.1543 39.3898 45.3599 38.8652L45.9713 39.1232C45.7738 39.6271 45.5846 40.309 45.6013 40.7756C45.6099 41.0152 45.6689 41.1022 45.702 41.128C45.7248 41.1457 45.831 41.2055 46.1541 41.0856L46.3764 41.7305C45.9759 41.8792 45.5949 41.9002 45.3066 41.6764C45.0286 41.4606 44.9526 41.1035 44.9418 40.801Z" fill="#FDF6F6"/>
<path fill-rule="evenodd" clip-rule="evenodd" d="M27.0398 45.7664C27.8172 45.1246 29.1255 44.2637 30.0859 43.6701L30.426 44.2588C29.4684 44.8506 28.1928 45.6918 27.4525 46.303C27.3936 46.3516 27.339 46.398 27.289 46.442C27.3095 46.4369 27.3307 46.4315 27.3526 46.4258L27.5162 47.09C27.2181 47.1676 26.9747 47.2102 26.7941 47.204C26.7075 47.201 26.5909 47.1861 26.4868 47.1195C26.3553 47.0352 26.2806 46.8913 26.2859 46.7321C26.2901 46.6069 26.3428 46.5025 26.3835 46.4356C26.4285 46.3616 26.4869 46.2888 26.5493 46.2199C26.6747 46.0814 26.8452 45.927 27.0398 45.7664ZM26.7875 46.5173C26.7875 46.5173 26.7882 46.5174 26.7894 46.5177C26.7881 46.5175 26.7875 46.5173 26.7875 46.5173ZM26.9359 46.8145C26.9351 46.8165 26.9346 46.8175 26.9345 46.8175C26.9345 46.8175 26.9348 46.8165 26.9359 46.8145Z" fill="#FDF6F6"/>
<path fill-rule="evenodd" clip-rule="evenodd" d="M12.2963 50.1699C12.1956 54.4356 12.9842 58.6825 14.6187 62.6685C16.2532 66.6546 18.702 70.3029 21.8276 73.404C24.9532 76.5052 28.6942 78.9981 32.8378 80.7384C36.9814 82.4788 41.4453 83.432 45.9743 83.5428C50.5032 83.6536 55.007 82.9198 59.228 81.3841C63.449 79.8484 67.3034 77.5414 70.5718 74.5966C73.8403 71.6519 76.4586 68.1275 78.2794 64.226C80.1002 60.3245 81.0885 56.1212 81.1893 51.8555L81.6292 51.8662C81.5269 56.1981 80.5231 60.4655 78.6754 64.4247C76.8276 68.3839 74.172 71.9574 70.8601 74.9413C67.5483 77.9251 63.645 80.2608 59.3733 81.815C55.1015 83.3692 50.5448 84.1114 45.9635 83.9993C41.3821 83.8872 36.8658 82.923 32.6724 81.1617C28.4789 79.4004 24.6905 76.8766 21.5234 73.7342C18.3562 70.5919 15.8724 66.8926 14.2138 62.8476C12.5551 58.8026 11.7541 54.491 11.8564 50.1592L12.2963 50.1699Z" fill="#FDF6F6"/>
<path d="M16.6837 48.7828C16.7612 48.7726 16.8212 48.7867 16.8637 48.8251C16.9084 48.8636 16.9293 48.9162 16.9264 48.9831C16.9239 49.0165 16.9171 49.0432 16.9062 49.0631C16.8952 49.083 16.88 49.0985 16.8605 49.1094C16.8432 49.1181 16.8217 49.1256 16.7958 49.132C16.7721 49.1362 16.7442 49.1403 16.7119 49.1444C16.6796 49.1507 16.6484 49.1492 16.6185 49.1399C16.5885 49.1284 16.5618 49.1125 16.5384 49.0921C16.515 49.0718 16.4959 49.0492 16.4812 49.0245C16.4685 48.9998 16.4624 48.9752 16.4626 48.9507C16.4629 48.924 16.4696 48.9018 16.4827 48.8841C16.498 48.8642 16.5164 48.8477 16.5381 48.8346C16.5619 48.8192 16.5856 48.8084 16.6093 48.802C16.6352 48.7934 16.66 48.787 16.6837 48.7828Z" fill="#FDF6F6"/>
<path d="M13.8941 46.6755C14.0379 46.695 14.1623 46.7099 14.2675 46.7201C14.3727 46.728 14.4596 46.7347 14.5283 46.74C14.6078 46.7454 14.6743 46.7473 14.7281 46.7457C14.784 46.7441 14.8603 46.7395 14.9571 46.7317C15.0388 46.726 15.1463 46.7184 15.2796 46.7089C15.413 46.6971 15.5797 46.6813 15.7797 46.6614C15.7813 46.7127 15.7818 46.7629 15.7812 46.8119C15.7829 46.8587 15.7846 46.9 15.7863 46.9357C15.788 46.9781 15.7886 47.0171 15.7882 47.0528C15.7878 47.0907 15.7851 47.1386 15.7802 47.1965C15.7753 47.2455 15.7671 47.3079 15.7555 47.3835C15.7461 47.457 15.7312 47.5449 15.7107 47.6472C15.6819 47.5265 15.654 47.4291 15.6269 47.3552C15.5998 47.2791 15.5747 47.2186 15.5516 47.1737C15.5264 47.1221 15.501 47.0828 15.4756 47.0557C15.4479 47.0353 15.4147 47.0182 15.3762 47.0044C15.342 46.9928 15.298 46.9834 15.2444 46.976C15.1929 46.9687 15.1317 46.9691 15.0607 46.9772C15.0466 47.2713 15.0365 47.5098 15.0301 47.6925C15.0238 47.8753 15.019 48.018 15.0157 48.1205C15.0121 48.2431 15.0101 48.3311 15.0095 48.3846C15.0108 48.4605 15.0218 48.5353 15.0424 48.6091C15.0589 48.6718 15.0861 48.7368 15.124 48.8041C15.162 48.8715 15.2172 48.9312 15.2896 48.9834L14.8965 48.9786C14.86 48.9782 14.8148 48.9799 14.7611 48.9837C14.7159 48.9876 14.6578 48.9914 14.5869 48.995C14.5181 48.9986 14.4375 49.0054 14.345 49.0155C14.3778 48.9579 14.4042 48.9058 14.424 48.8592C14.4439 48.8126 14.4594 48.7727 14.4705 48.7394C14.4838 48.6994 14.4939 48.6639 14.5007 48.6327C14.5034 48.5882 14.5097 48.4979 14.5199 48.362C14.5226 48.3063 14.5255 48.2372 14.5286 48.1548C14.5338 48.0723 14.5392 47.9743 14.5448 47.8606C14.5525 47.747 14.5593 47.6166 14.5653 47.4695C14.5734 47.3202 14.5817 47.152 14.5903 46.9648C14.5517 46.9532 14.5152 46.9539 14.4807 46.9668C14.4462 46.9776 14.4159 46.9917 14.3899 47.0092C14.3596 47.0311 14.3303 47.0575 14.302 47.0884C14.2737 47.126 14.242 47.1747 14.2069 47.2344C14.1763 47.2854 14.1412 47.3529 14.1015 47.4372C14.0619 47.5192 14.0168 47.6213 13.966 47.7433C13.9567 47.6138 13.9503 47.5078 13.947 47.4253C13.9436 47.3405 13.9411 47.2747 13.9395 47.2279C13.938 47.1721 13.9374 47.1309 13.9377 47.1041C13.9379 47.0796 13.9362 47.0472 13.9323 47.007C13.9284 46.9735 13.9235 46.93 13.9177 46.8764C13.9118 46.8206 13.904 46.7536 13.8941 46.6755Z" fill="#FDF6F6"/>
<path d="M13.3148 46.6615C13.2839 46.7325 13.2564 46.7946 13.2321 46.8478C13.2079 46.901 13.187 46.9465 13.1694 46.9842C13.1496 47.0263 13.133 47.064 13.1198 47.0973C13.1088 47.1217 13.0944 47.155 13.0768 47.1971C13.0592 47.2348 13.0371 47.2847 13.0106 47.3468C12.9863 47.4068 12.9543 47.4844 12.9146 47.5798C12.8961 47.4971 12.8733 47.4244 12.8461 47.3616C12.8189 47.2988 12.7894 47.2438 12.7577 47.1966C12.726 47.1494 12.692 47.1111 12.6558 47.0817C12.6218 47.0501 12.5877 47.024 12.5536 47.0035C12.4746 46.958 12.3911 46.9324 12.303 46.9269C12.187 46.9322 12.0954 46.9512 12.0285 46.9838C11.9637 47.0143 11.916 47.0505 11.8854 47.0925C11.8549 47.1322 11.8383 47.1744 11.8357 47.219C11.8331 47.2613 11.838 47.297 11.8506 47.3262C11.861 47.3531 11.8983 47.3847 11.9623 47.4212C12.0285 47.4577 12.1076 47.4999 12.1994 47.5478C12.2934 47.5935 12.3938 47.646 12.5006 47.7053C12.6074 47.7623 12.7055 47.8259 12.795 47.8961C12.8866 47.9641 12.9631 48.0386 13.0245 48.1196C13.0881 48.1984 13.1226 48.2825 13.1281 48.3717C13.1333 48.4855 13.131 48.5881 13.1214 48.6794C13.1118 48.7707 13.0809 48.8483 13.0286 48.9124C12.9763 48.9764 12.8952 49.0267 12.7852 49.0633C12.6773 49.0999 12.5278 49.1215 12.3364 49.1281C12.1387 49.1347 11.9766 49.1216 11.8502 49.0888C11.7238 49.0561 11.6212 49.0125 11.5423 48.958C11.4655 48.9036 11.4082 48.8438 11.3702 48.7787C11.3344 48.7136 11.3083 48.652 11.2917 48.5938C11.2752 48.5334 11.264 48.482 11.258 48.4395C11.2521 48.3949 11.2416 48.368 11.2267 48.3589C11.2096 48.3475 11.1925 48.3373 11.1755 48.3282C11.1605 48.3191 11.1445 48.3111 11.1274 48.3042C11.1103 48.295 11.0932 48.287 11.0761 48.2801L12.0156 48.1342C11.9614 48.1782 11.919 48.2189 11.8885 48.2565C11.8602 48.294 11.8383 48.3272 11.823 48.356C11.8054 48.3893 11.7932 48.4203 11.7865 48.4492C11.7818 48.4804 11.7911 48.5195 11.8142 48.5666C11.8373 48.6137 11.869 48.6598 11.9093 48.7049C11.9518 48.7478 12.0008 48.784 12.0563 48.8137C12.1119 48.8434 12.1697 48.8563 12.2299 48.8526C12.3052 48.8468 12.3667 48.8286 12.4143 48.7979C12.4619 48.7651 12.4978 48.7243 12.522 48.6755C12.5483 48.6268 12.564 48.5734 12.5689 48.5155C12.5738 48.4576 12.5691 48.4007 12.5547 48.3448C12.5425 48.2866 12.5216 48.2329 12.492 48.1835C12.4625 48.1318 12.4276 48.089 12.3871 48.0551C12.3509 48.0279 12.2943 48.0016 12.2172 47.9761C12.1423 47.9507 12.0577 47.9229 11.9635 47.8928C11.8715 47.8627 11.7762 47.8281 11.6778 47.789C11.5816 47.75 11.494 47.7021 11.4151 47.6454C11.3384 47.5887 11.2769 47.5222 11.2304 47.4458C11.1862 47.3695 11.17 47.2779 11.182 47.171C11.1916 47.0797 11.2203 47.0042 11.2683 46.9446C11.3184 46.8827 11.3802 46.8344 11.4536 46.7996C11.5292 46.7626 11.6122 46.7358 11.7027 46.719C11.7953 46.7023 11.8888 46.6934 11.9834 46.6923C12.0801 46.689 12.1746 46.6913 12.2669 46.6991C12.3614 46.7069 12.4461 46.7157 12.5212 46.7255C12.5963 46.7354 12.6596 46.745 12.7111 46.7546C12.7647 46.7619 12.798 46.7668 12.8108 46.7692C12.8666 46.7743 12.9225 46.7738 12.9784 46.7678C13.0279 46.764 13.0817 46.7546 13.1399 46.7397C13.2002 46.7226 13.2585 46.6965 13.3148 46.6615Z" fill="#FDF6F6"/>
<path d="M8.46045 46.7666C8.61078 46.7729 8.73535 46.7777 8.83415 46.7811C8.93512 46.7823 9.01676 46.7833 9.07906 46.7841L9.24986 46.7861L10.2102 46.7977C10.214 46.8423 10.2167 46.8859 10.2184 46.9282C10.2222 46.9684 10.224 47.0041 10.2236 47.0353C10.2232 47.0732 10.2217 47.1078 10.2192 47.139C10.2167 47.1702 10.2132 47.2036 10.2085 47.2392C10.2038 47.2703 10.1991 47.3037 10.1944 47.3393C10.1898 47.375 10.1818 47.4117 10.1707 47.4494C10.1419 47.3287 10.1021 47.2368 10.0513 47.1737C10.0025 47.1107 9.95257 47.0644 9.90134 47.0348C9.84156 47.0006 9.77838 46.982 9.71181 46.979C9.62367 46.9824 9.55484 46.9894 9.5053 46.9999C9.45577 47.0105 9.41692 47.0256 9.38877 47.0454C9.36062 47.0651 9.33887 47.0882 9.32353 47.1148C9.31037 47.1392 9.29609 47.1669 9.28071 47.1979C9.26752 47.2245 9.25524 47.2656 9.24388 47.3212C9.23261 47.3679 9.22116 47.4313 9.20952 47.5114C9.20003 47.5916 9.1892 47.6952 9.17704 47.8221C9.23524 47.805 9.28162 47.7888 9.31617 47.7736C9.35287 47.7585 9.38202 47.7454 9.40363 47.7345C9.42741 47.7214 9.44473 47.7094 9.4556 47.6984C9.46434 47.6851 9.4775 47.6607 9.49509 47.6253C9.50833 47.5942 9.52599 47.5521 9.54807 47.4988C9.5723 47.4456 9.60105 47.3723 9.63432 47.2791C9.63747 47.3817 9.63866 47.4676 9.63789 47.5367C9.63714 47.6036 9.63761 47.6582 9.63928 47.7006C9.63873 47.7496 9.63937 47.7887 9.6412 47.8177L9.63978 47.9447C9.63925 47.9916 9.63854 48.0551 9.63764 48.1354C9.63892 48.2134 9.64103 48.3127 9.64398 48.4331C9.61913 48.3503 9.59622 48.2854 9.57526 48.2383C9.55647 48.189 9.53969 48.152 9.52493 48.1273C9.50807 48.0981 9.49325 48.0779 9.48049 48.0666C9.4655 48.0619 9.44514 48.0572 9.41941 48.0525C9.3958 48.05 9.36574 48.0485 9.32922 48.048C9.29484 48.0476 9.25074 48.0527 9.19691 48.0632C9.18909 48.1857 9.18691 48.2849 9.19036 48.3608C9.19598 48.4344 9.20394 48.4914 9.21423 48.5316C9.22445 48.5786 9.23696 48.6122 9.25178 48.6324C9.27089 48.6527 9.30937 48.6699 9.36723 48.684C9.42511 48.6958 9.49058 48.7011 9.56365 48.6997C9.6389 48.6962 9.71531 48.6837 9.7929 48.6624C9.87049 48.641 9.93965 48.605 10.0004 48.5545C10.046 48.5127 10.0949 48.4597 10.1472 48.3957C10.1908 48.3405 10.2388 48.2708 10.2913 48.1867C10.346 48.1026 10.3998 48.0007 10.4527 47.881C10.443 47.9812 10.4356 48.0647 10.4305 48.1315C10.4277 48.1962 10.4239 48.2485 10.4191 48.2886C10.4143 48.3354 10.4107 48.371 10.4082 48.3955C10.4079 48.4223 10.4043 48.4601 10.3973 48.5091C10.3925 48.5514 10.3844 48.6093 10.3728 48.6827C10.3634 48.754 10.3506 48.8452 10.3343 48.9565C10.2333 48.9575 10.1377 48.9586 10.0474 48.9598C9.95718 48.9587 9.87768 48.9588 9.80891 48.9602C9.72725 48.9615 9.65203 48.9628 9.58326 48.9642C9.51236 48.9633 9.43391 48.9657 9.3479 48.9714C9.27266 48.975 9.18343 48.9806 9.08021 48.9882C8.97913 48.9959 8.86728 49.0069 8.74465 49.021C8.75709 48.8695 8.7662 48.7269 8.772 48.5932C8.77996 48.4573 8.78559 48.3381 8.78889 48.2355C8.79238 48.1152 8.79363 48.0037 8.79262 47.9011C8.80623 47.6448 8.80425 47.4374 8.78669 47.2789C8.76912 47.1204 8.7477 47.0187 8.72242 46.9738C8.7097 46.958 8.69165 46.9388 8.66827 46.9163C8.64913 46.8982 8.62252 46.8767 8.58842 46.8518C8.55432 46.8268 8.51166 46.7984 8.46045 46.7666Z" fill="#FDF6F6"/>
<path fill-rule="evenodd" clip-rule="evenodd" d="M16.8645 48.8048C16.822 48.7664 16.762 48.7523 16.6845 48.7625C16.6608 48.7667 16.636 48.7731 16.6102 48.7817C16.5864 48.7881 16.5627 48.7989 16.5389 48.8143C16.5173 48.8274 16.4988 48.8439 16.4835 48.8638C16.4705 48.8814 16.4638 48.9037 16.4635 48.9304C16.4632 48.9549 16.4694 48.9795 16.482 49.0042C16.4967 49.0289 16.5158 49.0515 16.5392 49.0718C16.5626 49.0922 16.5893 49.1081 16.6193 49.1196C16.6492 49.1289 16.6804 49.1304 16.7127 49.1241C16.745 49.12 16.7729 49.1159 16.7966 49.1117C16.8225 49.1053 16.844 49.0978 16.8613 49.0891C16.8808 49.0781 16.896 49.0627 16.907 49.0428C16.9179 49.0229 16.9247 48.9962 16.9272 48.9628C16.9301 48.8959 16.9092 48.8432 16.8645 48.8048ZM16.9357 48.7178C16.8616 48.6515 16.7664 48.6366 16.6706 48.6493L16.6683 48.6496L16.6661 48.65C16.6375 48.655 16.6086 48.6624 16.5793 48.6721C16.5451 48.6817 16.5127 48.6969 16.4821 48.7165C16.4496 48.7364 16.4211 48.7619 16.3975 48.7926L16.3969 48.7934L16.3963 48.7942C16.366 48.8352 16.354 48.8827 16.3535 48.9291C16.3529 48.9752 16.3648 49.0185 16.3848 49.0577L16.3865 49.0611L16.3885 49.0644C16.4099 49.1003 16.437 49.1319 16.4686 49.1593C16.5021 49.1884 16.5399 49.2108 16.5811 49.2266L16.5844 49.2279L16.5878 49.229C16.6342 49.2433 16.6818 49.2456 16.7292 49.237C16.7613 49.2329 16.79 49.2287 16.815 49.2242L16.8186 49.2236L16.8221 49.2228C16.853 49.2151 16.8827 49.2052 16.9094 49.1918L16.9115 49.1907L16.9136 49.1895C16.9512 49.1684 16.9814 49.1378 17.0025 49.0994C17.0243 49.0597 17.0336 49.0148 17.0369 48.9717L17.037 48.9698L17.0371 48.9679C17.0413 48.8703 17.0095 48.7818 16.9357 48.7178Z" fill="white"/>
<path fill-rule="evenodd" clip-rule="evenodd" d="M13.7672 46.5226L13.9092 46.5419C14.0515 46.5613 14.1742 46.5759 14.2774 46.5859C14.3819 46.5938 14.4683 46.6004 14.5368 46.6057C14.614 46.611 14.6767 46.6127 14.7257 46.6112L14.7259 46.6112C14.7791 46.6097 14.8533 46.6052 14.9494 46.5975L14.9505 46.5975C15.0319 46.5918 15.1391 46.5842 15.2719 46.5747C15.4046 46.5629 15.5706 46.5472 15.77 46.5274L15.8867 46.5158L15.8904 46.6374C15.892 46.6893 15.8926 46.7402 15.892 46.7901C15.8936 46.8354 15.8953 46.8752 15.8969 46.9095L15.897 46.9107C15.8987 46.9547 15.8994 46.9957 15.899 47.0338C15.8985 47.0757 15.8956 47.1268 15.8905 47.1862L15.8904 47.1878C15.8853 47.2394 15.8768 47.3035 15.8652 47.3796C15.8553 47.4564 15.8398 47.5467 15.8191 47.6501L15.6046 47.6542C15.5765 47.5357 15.5498 47.4433 15.5249 47.3755L15.5245 47.3744C15.4983 47.3006 15.4752 47.2456 15.4554 47.2072L15.4548 47.2061L15.4543 47.205C15.4349 47.1654 15.4179 47.139 15.4042 47.1225C15.3879 47.1118 15.3674 47.1014 15.342 47.0922C15.3165 47.0837 15.2801 47.0756 15.2308 47.0688L15.2303 47.0687C15.2116 47.0661 15.1904 47.0646 15.1665 47.0646C15.1549 47.312 15.1464 47.5158 15.1408 47.6763C15.1345 47.8589 15.1297 48.0013 15.1264 48.1037C15.1229 48.2248 15.1209 48.3113 15.1203 48.3639C15.1215 48.4289 15.131 48.4932 15.1488 48.5569L15.1491 48.5578L15.1493 48.5587C15.1628 48.61 15.1858 48.6657 15.2198 48.7261C15.2483 48.7768 15.2915 48.8249 15.3531 48.8692L15.648 49.0815L14.896 49.0724C14.8636 49.072 14.8218 49.0735 14.7701 49.0772C14.7234 49.0812 14.6643 49.085 14.5931 49.0886C14.5931 49.0886 14.5932 49.0886 14.5931 49.0886L14.5877 48.9746L14.5933 49.0886C14.5932 49.0886 14.5932 49.0886 14.5931 49.0886C14.5269 49.0921 14.4483 49.0988 14.3572 49.1086L14.1396 49.1322L14.2511 48.9369C14.2824 48.8821 14.3066 48.8341 14.3242 48.7927C14.3433 48.7478 14.3575 48.711 14.3673 48.6816C14.3784 48.6484 14.3866 48.6198 14.3923 48.5956C14.3921 48.599 14.3919 48.6023 14.3917 48.6053L14.5015 48.6123L14.3942 48.5871C14.3936 48.5899 14.393 48.5927 14.3923 48.5956C14.3953 48.5476 14.4015 48.4602 14.4108 48.3343C14.4108 48.3348 14.4108 48.3353 14.4108 48.3358L14.5206 48.3416L14.4109 48.3329C14.4109 48.3333 14.4109 48.3338 14.4108 48.3343C14.4136 48.2795 14.4164 48.2114 14.4195 48.13L14.4195 48.1284L14.4196 48.1269C14.4248 48.0452 14.4302 47.9477 14.4357 47.8344L14.4358 47.8333L14.4358 47.8322C14.4435 47.7199 14.4502 47.5907 14.4562 47.4444L14.4562 47.4436L14.4562 47.4427C14.4624 47.3297 14.4686 47.2056 14.475 47.0706C14.4861 47.0652 14.4987 47.0602 14.513 47.0558L14.516 47.0549L14.5189 47.0538C14.5294 47.0498 14.542 47.0485 14.5604 47.054L14.591 46.9444L14.5027 46.9401C14.4955 46.9417 14.4884 46.9438 14.4814 46.9464C14.4812 46.9465 14.481 46.9466 14.4808 46.9466C14.4789 46.9889 14.477 47.0303 14.475 47.0706C14.4665 47.0747 14.4589 47.0791 14.4521 47.0836C14.4526 47.0832 14.4531 47.0829 14.4536 47.0825L14.3907 46.9888L14.4507 47.0845C14.4511 47.0842 14.4516 47.0839 14.4521 47.0836C14.4302 47.0996 14.4082 47.1192 14.3862 47.1428C14.3873 47.1413 14.3883 47.1399 14.3894 47.1384L14.3028 47.068L14.3825 47.1467C14.3838 47.1454 14.385 47.1441 14.3862 47.1428C14.3621 47.1752 14.334 47.2184 14.3017 47.2734L14.301 47.2746C14.2732 47.3208 14.2399 47.3845 14.2012 47.4669L14.2007 47.468C14.1623 47.5474 14.118 47.6473 14.0677 47.7682L13.857 47.7314C13.8477 47.6013 13.8413 47.494 13.8378 47.4098L13.8378 47.4096C13.8345 47.3248 13.832 47.2587 13.8304 47.2116L13.8303 47.2107C13.8288 47.1547 13.8281 47.1116 13.8284 47.0824C13.8287 47.0641 13.8273 47.0368 13.8237 46.9991C13.8238 46.9996 13.8238 47 13.8239 47.0004L13.9331 46.9867L13.8236 46.998C13.8237 46.9984 13.8237 46.9988 13.8237 46.9991C13.8198 46.9654 13.8149 46.9219 13.8091 46.8689L13.8091 46.8683C13.8034 46.8136 13.7956 46.7475 13.7858 46.6699L13.7672 46.5226ZM13.9512 47.4792C13.9246 47.5386 13.8961 47.6048 13.8658 47.6776L13.9667 47.7229L14.0764 47.7144C14.0707 47.6341 14.0661 47.5632 14.0626 47.5016C14.0333 47.5661 14.0013 47.6399 13.9667 47.7229C13.96 47.6295 13.9549 47.5482 13.9512 47.4792ZM14.4091 48.8739C14.385 48.8762 14.3601 48.8788 14.3343 48.8816L14.3457 48.9951L14.4404 49.0533C14.4543 49.0289 14.4673 49.0052 14.4792 48.9821C14.4379 48.9856 14.3934 48.9899 14.3457 48.9951C14.3706 48.9515 14.3917 48.9111 14.4091 48.8739ZM15.1179 48.9609L15.2904 48.963L15.2277 49.0568C15.1871 49.0276 15.1504 48.9957 15.1179 48.9609ZM15.1676 48.8473L15.2917 48.8488L15.2904 48.963C15.2416 48.9279 15.2007 48.8893 15.1676 48.8473ZM15.4763 47.0354C15.4486 47.0149 15.4155 46.9978 15.377 46.984C15.3428 46.9724 15.2988 46.963 15.2452 46.9556C15.1937 46.9483 15.1324 46.9487 15.0615 46.9568M15.0164 48.1001C15.0129 48.2227 15.0109 48.3108 15.0103 48.3643C15.0116 48.4401 15.0225 48.5149 15.0432 48.5888M15.6431 47.379C15.6341 47.4426 15.621 47.5174 15.6037 47.6036L15.7114 47.6268L15.8182 47.5995C15.7973 47.5117 15.7765 47.4344 15.7556 47.3683C15.7462 47.4407 15.7315 47.5269 15.7114 47.6268C15.6881 47.5288 15.6653 47.4462 15.6431 47.379ZM15.782 46.7915C15.7836 46.8384 15.7853 46.8796 15.7871 46.9153C15.7888 46.9577 15.7894 46.9968 15.789 47.0324C15.7886 47.0703 15.7859 47.1182 15.7809 47.1762M15.7822 46.7555C15.7823 46.718 15.7817 46.6798 15.7805 46.641L15.791 46.7546C15.7881 46.7549 15.7851 46.7552 15.7822 46.7555ZM15.6707 46.6518C15.6707 46.6494 15.6706 46.647 15.6705 46.6446L15.7805 46.641C15.7427 46.6448 15.7061 46.6484 15.6707 46.6518ZM14.2683 46.6997C14.3735 46.7077 14.4604 46.7143 14.5291 46.7196C14.6085 46.725 14.6751 46.7269 14.7289 46.7253C14.7847 46.7238 14.8611 46.7191 14.9578 46.7114M14.0077 46.67C13.9715 46.6654 13.9339 46.6604 13.8949 46.6551L14.004 46.6402C14.0052 46.6503 14.0065 46.6602 14.0077 46.67ZM13.9091 46.7721C13.8997 46.7709 13.8902 46.7696 13.8806 46.7683L13.8949 46.6551C13.9002 46.6974 13.905 46.7364 13.9091 46.7721Z" fill="white"/>
<path fill-rule="evenodd" clip-rule="evenodd" d="M13.5607 46.3561L13.4161 46.6885C13.3851 46.7599 13.3572 46.8226 13.3327 46.8766C13.3083 46.93 13.2872 46.9758 13.2694 47.014L13.2693 47.0142C13.2502 47.0549 13.2347 47.0904 13.2225 47.1209L13.2215 47.1234L13.2204 47.1257C13.2101 47.1487 13.1962 47.1809 13.1787 47.2226L13.1778 47.2248L13.1768 47.2269C13.1601 47.2627 13.1387 47.311 13.1127 47.3721C13.0882 47.4323 13.0562 47.51 13.0166 47.6051L12.9221 47.832C12.9943 47.892 13.0574 47.9572 13.111 48.0277C13.1867 48.1219 13.2318 48.228 13.2389 48.3445L13.239 48.3454L13.239 48.3464C13.2444 48.4647 13.2422 48.5734 13.2318 48.6718C13.2201 48.7835 13.1814 48.8831 13.1135 48.9662C13.0435 49.052 12.9416 49.1114 12.8201 49.1519C12.698 49.1933 12.5366 49.2155 12.3412 49.2222L12.341 49.2222C12.1378 49.229 11.9646 49.2158 11.8246 49.1796C11.6903 49.1448 11.5749 49.0969 11.4824 49.0331L11.4812 49.0323C11.3949 48.971 11.3251 48.9001 11.2772 48.8178L11.2764 48.8165L11.2758 48.8153C11.2367 48.7442 11.2067 48.6744 11.1873 48.6061L11.187 48.6049C11.1697 48.5417 11.1571 48.4851 11.1502 48.436L11.1501 48.4351C11.1494 48.4301 11.1487 48.4258 11.148 48.4221C11.1407 48.4177 11.1334 48.4135 11.1262 48.4097L11.1235 48.4082L11.1208 48.4066C11.1113 48.4008 11.1006 48.3954 11.0886 48.3906L11.0832 48.3884L11.0781 48.3857C11.0643 48.3783 11.0507 48.3719 11.0373 48.3665L10.651 48.2109L11.9952 48.0022C11.9747 47.9955 11.9537 47.9888 11.9322 47.9819L11.9315 47.9817C11.8372 47.9508 11.7398 47.9155 11.6395 47.8756L11.6388 47.8753C11.5352 47.8333 11.44 47.7813 11.3536 47.7192L11.3524 47.7184C11.265 47.6538 11.1931 47.5767 11.1385 47.4867L11.1378 47.4857L11.1372 47.4847C11.0781 47.3826 11.0596 47.2647 11.0737 47.1382C11.0737 47.1381 11.0737 47.138 11.0737 47.1378L11.183 47.151L11.0737 47.1386C11.0737 47.1385 11.0737 47.1383 11.0737 47.1382C11.0853 47.0289 11.1207 46.9312 11.1849 46.8514L11.1851 46.8511C11.246 46.776 11.3209 46.7176 11.4083 46.6761C11.4081 46.6762 11.408 46.6763 11.4078 46.6764L11.4547 46.7796L11.409 46.6758C11.4088 46.6759 11.4086 46.676 11.4083 46.6761C11.4934 46.6346 11.5856 46.6049 11.6844 46.5866L11.6849 46.5865C11.7829 46.5688 11.882 46.5594 11.982 46.5582C11.9816 46.5582 11.9812 46.5582 11.9808 46.5582L11.9844 46.6723L11.9832 46.5581C11.9828 46.5581 11.9824 46.5582 11.982 46.5582C12.0823 46.5548 12.1806 46.5571 12.2768 46.5653C12.3725 46.5732 12.459 46.5822 12.536 46.5923C12.6111 46.6021 12.6755 46.6119 12.729 46.6217C12.7281 46.6216 12.7273 46.6215 12.7265 46.6214L12.7121 46.7346L12.7315 46.6222C12.7306 46.622 12.7298 46.6219 12.729 46.6217C12.775 46.628 12.8082 46.6328 12.8258 46.6358C12.8244 46.6357 12.823 46.6356 12.8216 46.6354L12.8119 46.7492L12.8312 46.6368C12.8296 46.6365 12.8278 46.6362 12.8258 46.6358C12.8732 46.6399 12.9206 46.6394 12.9681 46.6343L12.9697 46.6341L12.9712 46.634C13.0131 46.6307 13.0604 46.6227 13.1132 46.6092C13.1128 46.6093 13.1124 46.6094 13.1119 46.6095L13.1409 46.7197L13.1146 46.6088C13.1141 46.609 13.1137 46.6091 13.1132 46.6092C13.163 46.5949 13.2116 46.5732 13.2593 46.5436L13.5607 46.3561ZM12.3335 48.0022L12.2344 48.0826C12.2767 48.099 12.3046 48.1138 12.3214 48.1259C12.3497 48.1502 12.3756 48.1816 12.3985 48.2217L12.399 48.2227L12.3996 48.2236C12.4224 48.2618 12.4386 48.3034 12.4483 48.3491L12.4488 48.3517L12.4495 48.3543C12.4606 48.3972 12.4642 48.4408 12.4604 48.4854C12.4568 48.5279 12.4455 48.5656 12.4271 48.5997L12.4261 48.6014L12.4252 48.6033C12.4106 48.6328 12.3884 48.6591 12.3559 48.6818C12.3278 48.6995 12.2856 48.7138 12.2237 48.7187C12.1842 48.721 12.1461 48.7127 12.1077 48.6922C12.0622 48.6679 12.0229 48.6388 11.989 48.6051C11.9555 48.5673 11.9307 48.5304 11.9132 48.4948C11.9044 48.4768 11.8999 48.4637 11.8978 48.4548C11.8971 48.4518 11.8967 48.4495 11.8965 48.448C11.901 48.4325 11.9085 48.4136 11.9204 48.3911C11.9318 48.3697 11.9495 48.3424 11.9749 48.3085C11.9989 48.2794 12.0346 48.2446 12.0844 48.2042L12.2344 48.0826M11.8787 48.2511C11.8822 48.2463 11.8858 48.2414 11.8896 48.2365C11.9201 48.1989 11.9624 48.1582 12.0166 48.1142L12.0329 48.2271L11.8787 48.2511ZM11.8209 48.1446C11.8556 48.105 11.8989 48.0649 11.9489 48.0243L12.0166 48.1142L11.8209 48.1446ZM11.268 48.2305C11.2553 48.2225 11.2424 48.215 11.2295 48.2081C11.2117 48.1974 11.193 48.1881 11.1737 48.18C11.155 48.1702 11.1361 48.1614 11.117 48.1537L11.0771 48.2601L11.0934 48.373L11.239 48.3504C11.2356 48.3452 11.2318 48.3414 11.2277 48.3389C11.2107 48.3275 11.1936 48.3173 11.1765 48.3081C11.1616 48.2991 11.1455 48.2911 11.1284 48.2842C11.1113 48.275 11.0942 48.267 11.0771 48.2601L11.268 48.2305ZM11.8367 47.199C11.8394 47.1544 11.856 47.1122 11.8865 47.0725C11.917 47.0305 11.9647 46.9943 12.0295 46.9638C12.0965 46.9312 12.188 46.9122 12.3041 46.9069L12.2975 47.0209C12.2993 47.021 12.3012 47.0211 12.303 47.0213C12.305 47.0212 12.3069 47.0211 12.3089 47.021L12.3041 46.9069C12.3921 46.9124 12.4756 46.938 12.5546 46.9835L12.4996 47.0824C12.4999 47.0825 12.5001 47.0827 12.5004 47.0828C12.5007 47.083 12.5009 47.0832 12.5012 47.0833L12.5546 46.9835C12.5888 47.004 12.6229 47.0301 12.6569 47.0617C12.6931 47.0911 12.727 47.1294 12.7587 47.1766C12.7904 47.2238 12.8199 47.2788 12.8471 47.3416C12.8538 47.357 12.8603 47.373 12.8664 47.3897C12.851 47.4271 12.8337 47.4688 12.8146 47.5145L12.9156 47.5598L13.0228 47.5341C13.0117 47.4845 12.999 47.4375 12.9846 47.3932C12.9945 47.3691 13.0035 47.347 13.0117 47.3268C13.0382 47.2647 13.0602 47.2148 13.0778 47.1771C13.0955 47.135 13.1098 47.1017 13.1208 47.0773C13.1341 47.044 13.1506 47.0063 13.1704 46.9642C13.188 46.9265 13.209 46.881 13.2332 46.8278C13.2366 46.8203 13.2401 46.8126 13.2437 46.8047C13.2653 46.7569 13.2893 46.7025 13.3159 46.6415C13.2667 46.6721 13.2159 46.6959 13.1636 46.7128M11.9506 47.2559C11.9494 47.2546 11.9488 47.2539 11.9485 47.2535C11.948 47.2529 11.9497 47.2549 11.952 47.2596C11.9525 47.2607 11.9531 47.262 11.9537 47.2635L11.9529 47.2615L11.952 47.2596C11.9515 47.2585 11.9511 47.2573 11.9506 47.2559ZM12.0156 47.3007C12.0159 47.3008 12.0161 47.301 12.0163 47.3011L11.9634 47.4012L12.015 47.3004C12.0152 47.3005 12.0154 47.3006 12.0156 47.3007ZM12.2005 47.5278C12.1086 47.4799 12.0296 47.4377 11.9634 47.4012C11.8993 47.3647 11.8621 47.3331 11.8516 47.3062C11.8391 47.277 11.8341 47.2413 11.8367 47.199M12.2005 47.5278L12.2471 47.4244C12.2476 47.4246 12.2481 47.4249 12.2485 47.4251C12.249 47.4253 12.2494 47.4256 12.2499 47.4258L12.2005 47.5278ZM12.2005 47.5278C12.2945 47.5735 12.3949 47.626 12.5017 47.6853C12.6085 47.7423 12.7066 47.8059 12.796 47.8761C12.8877 47.9441 12.9642 48.0186 13.0256 48.0996C13.0892 48.1784 13.1237 48.2625 13.1291 48.3517C13.1343 48.4655 13.1321 48.5681 13.1225 48.6594C13.1129 48.7507 13.0819 48.8283 13.0296 48.8924C12.9773 48.9564 12.8962 49.0067 12.7862 49.0433M12.8543 47.7916L12.8508 47.7761C12.8543 47.7788 12.8578 47.7815 12.8612 47.7842C12.8608 47.7839 12.8604 47.7836 12.86 47.7833L12.8543 47.7916ZM12.8543 47.7916L12.8551 47.7951L12.796 47.8761L12.8543 47.7916ZM12.8551 47.7951L12.8624 47.7851C12.862 47.7848 12.8616 47.7845 12.8612 47.7842M12.5528 47.5842C12.553 47.5843 12.5533 47.5845 12.5535 47.5846L12.5017 47.6853L12.552 47.5838C12.5523 47.5839 12.5525 47.584 12.5528 47.5842ZM12.3335 48.0022C12.3077 47.9892 12.2769 47.9765 12.2412 47.9639L12.3335 48.0022Z" fill="white"/>
<path fill-rule="evenodd" clip-rule="evenodd" d="M8.64243 46.754C8.58699 46.7518 8.52672 46.7493 8.46162 46.7466C8.51283 46.7784 8.55548 46.8068 8.58958 46.8318C8.60736 46.8448 8.6231 46.8568 8.63681 46.868C8.6494 46.8782 8.66027 46.8876 8.66943 46.8963C8.69282 46.9189 8.71086 46.938 8.72358 46.9538C8.74886 46.9987 8.77028 47.1004 8.78785 47.2589C8.80541 47.4175 8.80738 47.6249 8.79377 47.8811C8.79477 47.9837 8.79352 48.0952 8.79003 48.2155C8.78673 48.3181 8.7811 48.4373 8.77313 48.5732C8.76884 48.6723 8.76272 48.7763 8.75478 48.8851C8.752 48.9232 8.749 48.9618 8.74578 49.001C8.78396 48.9966 8.82109 48.9925 8.85717 48.9887C8.93701 48.9804 9.01173 48.9736 9.08134 48.9683C9.18456 48.9606 9.27379 48.955 9.34903 48.9514C9.43504 48.9458 9.51349 48.9434 9.58439 48.9442C9.65316 48.9428 9.72838 48.9415 9.81004 48.9403C9.87881 48.9389 9.95831 48.9387 10.0485 48.9398C10.1388 48.9386 10.2344 48.9376 10.3354 48.9366C10.3517 48.8253 10.3645 48.734 10.3739 48.6628C10.3855 48.5893 10.3937 48.5314 10.3984 48.4891C10.4054 48.4402 10.4091 48.4023 10.4094 48.3755C10.4118 48.351 10.4154 48.3154 10.4203 48.2686C10.4239 48.2382 10.4269 48.2006 10.4295 48.156C10.4302 48.1419 10.431 48.1271 10.4317 48.1116C10.4367 48.0447 10.4441 47.9612 10.4538 47.861C10.4136 47.9521 10.3728 48.033 10.3315 48.1034C10.3309 48.1045 10.3302 48.1056 10.3296 48.1067C10.3268 48.1115 10.3239 48.1162 10.3211 48.1209C10.3116 48.1368 10.302 48.152 10.2925 48.1668C10.24 48.2509 10.1919 48.3205 10.1483 48.3757C10.096 48.4398 10.0471 48.4927 10.0015 48.5345C9.94079 48.5851 9.87163 48.621 9.79404 48.6424C9.71645 48.6638 9.64003 48.6762 9.56479 48.6798C9.49172 48.6811 9.42624 48.6759 9.36836 48.664C9.31051 48.6499 9.27202 48.6327 9.25291 48.6124C9.2381 48.5922 9.22558 48.5586 9.21537 48.5117C9.20507 48.4714 9.19712 48.4144 9.1915 48.3408C9.18805 48.2649 9.19023 48.1657 9.19805 48.0432C9.25188 48.0327 9.29599 48.0276 9.33036 48.0281C9.36688 48.0285 9.39695 48.03 9.42056 48.0325C9.44629 48.0373 9.46664 48.042 9.48163 48.0466C9.4944 48.0579 9.50921 48.0782 9.52607 48.1074C9.52698 48.1089 9.52789 48.1104 9.52882 48.112C9.5292 48.1127 9.52959 48.1134 9.52998 48.1141C9.53057 48.1151 9.53116 48.1162 9.53175 48.1173C9.5451 48.1416 9.55998 48.1753 9.5764 48.2183C9.59736 48.2654 9.62027 48.3304 9.64512 48.4132C9.64307 48.3292 9.64142 48.2555 9.64018 48.1922C9.64015 48.1907 9.64012 48.1892 9.64009 48.1878C9.63959 48.1619 9.63915 48.1378 9.63879 48.1154L9.64235 47.7977C9.64052 47.7687 9.63988 47.7297 9.64043 47.6806C9.63906 47.6459 9.6385 47.6029 9.63876 47.5517C9.63881 47.5423 9.63888 47.5327 9.63898 47.5228C9.63899 47.5215 9.63901 47.5202 9.63902 47.5189C9.63903 47.5182 9.63904 47.5174 9.63905 47.5167C9.63982 47.4476 9.63863 47.3617 9.63548 47.2591C9.60221 47.3524 9.57346 47.4256 9.54923 47.4788C9.5439 47.4917 9.53883 47.5039 9.53401 47.5154C9.53228 47.5196 9.53059 47.5237 9.52892 47.5276C9.51603 47.5585 9.50514 47.5844 9.49624 47.6053C9.47866 47.6408 9.46549 47.6651 9.45675 47.6784C9.44588 47.6894 9.42856 47.7015 9.40478 47.7146C9.38317 47.7254 9.35402 47.7385 9.31732 47.7536C9.30961 47.757 9.30132 47.7605 9.29244 47.764C9.2615 47.7761 9.22341 47.7888 9.17819 47.8021C9.18237 47.7585 9.1864 47.7175 9.19027 47.6794C9.19765 47.6067 9.20445 47.544 9.21067 47.4915C9.22231 47.4113 9.23377 47.3479 9.24503 47.3012C9.2564 47.2456 9.26868 47.2045 9.28187 47.1779C9.29725 47.1469 9.31153 47.1192 9.3247 47.0948C9.34003 47.0683 9.36178 47.0451 9.38993 47.0254C9.41809 47.0056 9.45693 46.9905 9.50647 46.98C9.556 46.9694 9.62484 46.9624 9.71297 46.959C9.77954 46.9621 9.84272 46.9807 9.9025 47.0148C9.95374 47.0444 10.0037 47.0908 10.0524 47.1538C10.0687 47.1739 10.0838 47.197 10.0978 47.223C10.1119 47.2494 10.1249 47.2787 10.1368 47.311C10.1499 47.3468 10.1615 47.3863 10.1718 47.4295C10.183 47.3917 10.1909 47.355 10.1956 47.3194C10.2003 47.2838 10.205 47.2504 10.2096 47.2192C10.2103 47.2138 10.211 47.2084 10.2117 47.203C10.2154 47.1734 10.2183 47.1454 10.2204 47.119C10.2229 47.0878 10.2244 47.0533 10.2248 47.0154C10.2251 46.9842 10.2234 46.9485 10.2195 46.9083C10.2179 46.8659 10.2151 46.8224 10.2113 46.7777L8.83532 46.7611C8.78796 46.7595 8.73469 46.7575 8.67549 46.7552C8.66467 46.7548 8.65365 46.7544 8.64243 46.754ZM8.83779 46.647C8.73953 46.6436 8.61563 46.6388 8.46604 46.6325L8.40509 46.8445C8.45487 46.8755 8.49506 46.9023 8.52621 46.9251C8.55822 46.9485 8.58059 46.9668 8.59497 46.9803C8.61116 46.996 8.62321 47.0085 8.63182 47.0183C8.63625 47.0292 8.64328 47.0508 8.65114 47.0881C8.66077 47.1338 8.67001 47.1947 8.67856 47.272C8.69512 47.4214 8.69739 47.6216 8.68394 47.8748L8.68374 47.8785L8.68377 47.8823C8.68476 47.983 8.68354 48.0929 8.68008 48.2119C8.67683 48.3131 8.67125 48.4312 8.66333 48.5663L8.66328 48.5672L8.66324 48.5681C8.65752 48.7001 8.64851 48.8412 8.63618 48.9913L8.6248 49.1298L8.75792 49.1145C8.87945 49.1005 8.98991 49.0897 9.08935 49.0821C9.19188 49.0745 9.28006 49.069 9.35403 49.0655L9.35501 49.0654L9.35598 49.0654C9.43981 49.0598 9.51547 49.0576 9.58311 49.0584L9.58483 49.0584L9.58655 49.0584C9.65511 49.057 9.73014 49.0556 9.81166 49.0544L9.8122 49.0544C9.87954 49.053 9.95785 49.0529 10.0473 49.0539L10.0486 49.054L10.0499 49.0539C10.14 49.0528 10.2356 49.0517 10.3365 49.0507L10.4301 49.0498L10.4442 48.9537C10.4604 48.8429 10.4733 48.7515 10.4827 48.6797C10.4941 48.6072 10.5025 48.5485 10.5075 48.5041C10.5142 48.457 10.5185 48.4157 10.5193 48.3824C10.5217 48.3586 10.5251 48.325 10.5295 48.2817C10.5347 48.2381 10.5386 48.1835 10.5415 48.1187C10.5464 48.0533 10.5537 47.9713 10.5633 47.8724L10.3538 47.8134C10.3027 47.9291 10.2518 48.0253 10.2013 48.1029L10.2007 48.1038L10.2002 48.1047C10.1493 48.1861 10.1039 48.2518 10.0638 48.3027C10.015 48.3624 9.97058 48.4103 9.93068 48.4471C9.88277 48.4865 9.8282 48.5149 9.76583 48.532C9.69586 48.5513 9.62773 48.5624 9.5613 48.5656C9.49579 48.5668 9.43945 48.562 9.39156 48.5524C9.36757 48.5465 9.35072 48.5407 9.33959 48.5357C9.33837 48.5352 9.33727 48.5346 9.33628 48.5342C9.33588 48.5332 9.33546 48.5321 9.33502 48.5309C9.33122 48.5207 9.32696 48.5062 9.32267 48.4865L9.32222 48.4844L9.32169 48.4824C9.31398 48.4522 9.30671 48.4038 9.3013 48.3336C9.29908 48.2831 9.2995 48.2198 9.30281 48.1432C9.31279 48.1424 9.32152 48.1421 9.32908 48.1422C9.3615 48.1426 9.38668 48.1438 9.40538 48.1457C9.41117 48.1468 9.41644 48.1478 9.42123 48.1488C9.42431 48.1536 9.42781 48.1593 9.43173 48.166L9.43215 48.1668L9.43259 48.1675C9.44218 48.1836 9.45611 48.2131 9.47411 48.2603L9.47524 48.2633L9.47654 48.2662C9.4946 48.3068 9.51586 48.3664 9.5401 48.4471L9.75509 48.4103C9.75217 48.2908 9.75007 48.1925 9.7488 48.1151L9.75239 47.7946L9.75211 47.7903C9.75056 47.7655 9.74989 47.7298 9.75043 47.6819L9.75046 47.6789L9.75034 47.6759C9.74878 47.6363 9.7483 47.5839 9.74904 47.518C9.74984 47.4467 9.74861 47.359 9.74543 47.2555L9.53233 47.2195C9.49952 47.3114 9.47203 47.3812 9.44977 47.4301L9.44894 47.4319L9.44818 47.4337C9.4269 47.485 9.40984 47.5258 9.39696 47.556C9.38647 47.5771 9.37865 47.5919 9.37321 47.6017C9.36881 47.6047 9.36282 47.6084 9.35494 47.6128C9.3423 47.6191 9.3259 47.6266 9.30544 47.6354C9.31049 47.5873 9.31524 47.5445 9.31967 47.5069C9.33101 47.4291 9.34177 47.3703 9.35174 47.329L9.35223 47.327L9.35264 47.3249C9.36345 47.272 9.37334 47.2429 9.37968 47.2302C9.39423 47.2008 9.40757 47.1749 9.41972 47.1524C9.42576 47.1423 9.43542 47.1312 9.45149 47.12C9.46336 47.1117 9.4869 47.1007 9.52858 47.0918C9.56863 47.0833 9.62895 47.0767 9.71232 47.0733C9.75996 47.0761 9.80524 47.0896 9.84921 47.1147C9.88462 47.1352 9.92414 47.1702 9.96662 47.2252L9.96734 47.2261L9.96808 47.2271C10.0041 47.2717 10.0384 47.3451 10.065 47.4568L10.1603 47.8575L10.277 47.463C10.2897 47.4199 10.299 47.3771 10.3046 47.3349C10.3092 47.2998 10.3138 47.2671 10.3183 47.2367L10.3185 47.2357L10.3186 47.2347C10.3235 47.1974 10.3274 47.1619 10.33 47.1285C10.3328 47.0941 10.3343 47.0568 10.3348 47.0167C10.3352 46.9812 10.3333 46.9423 10.3293 46.9003C10.3276 46.8571 10.3248 46.8129 10.3209 46.7677L10.3122 46.6648L8.83779 46.647Z" fill="white"/>
<path d="M85.9863 49.6127C85.9914 49.7497 85.9659 49.8647 85.9099 49.9577L85.5535 49.9499L85.5095 50.6413L85.3176 50.6869C85.1994 50.6261 85.1038 50.5222 85.0306 50.3752L85.1345 49.9415L84.5702 49.9313C84.5409 49.9948 84.5073 50.0549 84.4692 50.1116C84.4312 50.1659 84.3934 50.2054 84.3557 50.2301C84.3097 50.2135 84.2639 50.1764 84.2183 50.1188C84.1728 50.0589 84.1328 49.9922 84.0984 49.9187C84.0663 49.843 84.0451 49.7742 84.0347 49.7125C84.0598 49.6374 84.1012 49.5717 84.1591 49.5153L84.3272 49.5276L84.8176 48.1738L84.9366 48.1581C84.9846 48.1975 85.0269 48.2505 85.0635 48.3172C85.1024 48.3816 85.126 48.4424 85.1341 48.4996L84.6695 49.6105L85.2009 49.6101L85.2522 48.8606L85.3585 48.7934C85.3959 48.8007 85.4407 48.8252 85.493 48.8669C85.5454 48.9064 85.5857 48.9423 85.6139 48.9746L85.5738 49.6111L85.9863 49.6127Z" fill="#FDF6F6"/>
<path d="M82.309 50.1286L83.2981 50.2125C83.2975 50.2695 83.2847 50.3288 83.2598 50.3901C83.2371 50.4515 83.2079 50.5071 83.1721 50.5569C83.1386 50.6044 83.1052 50.6383 83.072 50.6584L82.2557 50.4602C82.2091 50.4962 82.1538 50.5298 82.0896 50.561C82.0254 50.5922 81.9514 50.6198 81.8676 50.6439C81.8131 50.5976 81.7719 50.5423 81.744 50.478C81.7161 50.4115 81.6928 50.3336 81.674 50.2443C81.8361 50.1092 81.9928 49.9696 82.144 49.8252C82.2953 49.6787 82.4322 49.5376 82.5547 49.4021C82.6772 49.2666 82.7754 49.1467 82.8491 49.0426C82.8675 48.9766 82.8793 48.9025 82.8846 48.8204C82.8922 48.7383 82.8908 48.6618 82.8806 48.5909C82.7909 48.5487 82.6888 48.5258 82.5744 48.5221C82.4623 48.5162 82.3576 48.532 82.2604 48.5697L82.2186 49.059C82.17 49.0744 82.1171 49.084 82.0599 49.0879C82.0026 49.0895 81.9532 49.082 81.9116 49.0655L81.852 48.4894C81.8857 48.435 81.9247 48.383 81.9693 48.3333C82.0139 48.2813 82.0551 48.2384 82.0928 48.2046C82.2562 48.1586 82.3973 48.1341 82.5161 48.131C82.6372 48.1278 82.7624 48.1408 82.8919 48.1697C82.988 48.2371 83.0653 48.3054 83.1239 48.3746C83.1826 48.4438 83.2345 48.5186 83.2798 48.5991L83.2404 49.1774C83.1799 49.2772 83.0995 49.3824 82.9992 49.4931C82.9012 49.6038 82.7921 49.7143 82.6721 49.8248C82.5521 49.9329 82.431 50.0342 82.309 50.1286Z" fill="#FDF6F6"/>
<path d="M80.4598 48.1542C80.5013 48.1867 80.5448 48.2272 80.5905 48.2757C80.6383 48.3242 80.6829 48.3738 80.7241 48.4246C80.7654 48.4753 80.7967 48.5236 80.8182 48.5695L80.7445 50.1441C80.7132 50.1894 80.673 50.2392 80.624 50.2934C80.575 50.3476 80.5227 50.3995 80.4672 50.449C80.4116 50.4963 80.3584 50.5368 80.3074 50.5704L79.6936 50.563C79.6585 50.558 79.6125 50.5392 79.5556 50.5066C79.4988 50.4739 79.4398 50.4344 79.3787 50.388C79.3177 50.3393 79.2643 50.2896 79.2187 50.2388C79.1731 50.1857 79.1439 50.1386 79.1312 50.0973L79.2374 48.5676C79.2598 48.5291 79.2911 48.4838 79.3313 48.4318C79.3737 48.3775 79.4194 48.3255 79.4684 48.2759C79.5173 48.2239 79.5618 48.1811 79.6018 48.1473C79.7628 48.1173 79.9136 48.1031 80.0544 48.1048C80.1974 48.1043 80.3326 48.1207 80.4598 48.1542ZM80.3762 48.5505C80.2687 48.5241 80.1511 48.5113 80.0235 48.512C79.898 48.5128 79.7812 48.5297 79.6731 48.5626C79.6365 48.6855 79.6063 48.8312 79.5824 48.9999C79.5607 49.1663 79.5467 49.334 79.5404 49.5029L80.4067 48.7701C80.4028 48.7312 80.3977 48.6935 80.3915 48.6569C80.3875 48.618 80.3824 48.5826 80.3762 48.5505ZM79.5821 50.2089L80.3292 50.0912C80.3593 49.9637 80.3818 49.8155 80.3969 49.6468C80.4142 49.4757 80.4227 49.3057 80.4224 49.1367L79.5428 49.8831C79.5465 49.947 79.5513 50.0065 79.5573 50.0613C79.5655 50.114 79.5738 50.1631 79.5821 50.2089Z" fill="#FDF6F6"/>
<path d="M77.212 50.0681L78.2012 50.1519C78.2005 50.209 78.1878 50.2682 78.1629 50.3296C78.1402 50.3909 78.111 50.4465 78.0752 50.4963C78.0417 50.5439 78.0083 50.5777 77.9751 50.5979L77.1588 50.3997C77.1122 50.4356 77.0568 50.4692 76.9927 50.5004C76.9285 50.5316 76.8545 50.5593 76.7706 50.5834C76.7161 50.537 76.675 50.4817 76.6471 50.4175C76.6192 50.3509 76.5959 50.273 76.5771 50.1837C76.7392 50.0487 76.8959 49.909 77.0471 49.7647C77.1984 49.6181 77.3353 49.4771 77.4578 49.3415C77.5803 49.206 77.6785 49.0862 77.7522 48.982C77.7706 48.916 77.7824 48.842 77.7877 48.7598C77.7952 48.6777 77.7939 48.6012 77.7837 48.5303C77.6939 48.4881 77.5919 48.4652 77.4775 48.4616C77.3654 48.4556 77.2607 48.4715 77.1635 48.5091L77.1217 48.9984C77.0731 49.0138 77.0202 49.0234 76.9629 49.0273C76.9057 49.0289 76.8563 49.0215 76.8147 49.005L76.7551 48.4289C76.7887 48.3745 76.8278 48.3224 76.8724 48.2727C76.917 48.2208 76.9581 48.1779 76.9959 48.1441C77.1593 48.0981 77.3003 48.0735 77.4192 48.0704C77.5402 48.0673 77.6655 48.0802 77.795 48.1092C77.891 48.1766 77.9684 48.2448 78.027 48.314C78.0857 48.3833 78.1376 48.4581 78.1829 48.5385L78.1435 49.1169C78.0829 49.2166 78.0025 49.3218 77.9023 49.4325C77.8043 49.5432 77.6952 49.6538 77.5752 49.7642C77.4551 49.8724 77.3341 49.9737 77.212 50.0681Z" fill="#FDF6F6"/>
<path fill-rule="evenodd" clip-rule="evenodd" d="M86.0946 49.49L86.0986 49.5994C86.1043 49.7536 86.0759 49.8926 86.0055 50.0094L85.9724 50.0643L85.6587 50.0575L85.6162 50.7247L85.3062 50.7984L85.2711 50.7803C85.1279 50.7066 85.0169 50.5827 84.9353 50.4187L84.9162 50.3805L84.9968 50.0443L84.6393 50.0378C84.6157 50.0828 84.5899 50.1262 84.5618 50.168L84.5612 50.1689L84.5606 50.1698C84.5178 50.231 84.4703 50.2827 84.4167 50.3178L84.372 50.347L84.3221 50.3291C84.2498 50.3031 84.1883 50.249 84.1356 50.1824L84.135 50.1815L84.1343 50.1807C84.0835 50.1139 84.0395 50.0401 84.0019 49.9597L84.001 49.9578L84.0001 49.9559C83.9655 49.8742 83.941 49.7964 83.9287 49.7231L83.9239 49.6941L83.9332 49.6662C83.9643 49.5731 84.0158 49.4918 84.0861 49.4233L84.1212 49.3891L84.2555 49.3989L84.7404 48.0604L84.971 48.03L85.0072 48.0597C85.0678 48.1094 85.1183 48.1738 85.1603 48.2497C85.2042 48.3228 85.2344 48.3978 85.2453 48.474L85.2499 48.5062L84.8396 49.4874L85.1008 49.4871L85.1488 48.7849L85.3398 48.6642L85.3813 48.6724C85.4434 48.6845 85.5043 48.7213 85.5612 48.7666C85.6163 48.8082 85.6628 48.8489 85.6978 48.889L85.7291 48.9249L85.6936 49.4885L86.0946 49.49ZM85.5762 49.6023L85.9887 49.6038C85.9896 49.6286 85.9895 49.6527 85.9885 49.6761C85.9878 49.6903 85.9868 49.7043 85.9854 49.718C85.9763 49.806 85.952 49.8829 85.9122 49.9488L85.5559 49.9411L85.5119 50.6324L85.3199 50.678C85.2018 50.6173 85.1062 50.5134 85.033 50.3663L85.1369 49.9326L84.5726 49.9224C84.5433 49.986 84.5096 50.0461 84.4716 50.1027C84.4336 50.157 84.3957 50.1966 84.3581 50.2212C84.312 50.2047 84.2662 50.1676 84.2207 50.11C84.1752 50.05 84.1352 49.9833 84.1008 49.9099C84.0687 49.8341 84.0474 49.7654 84.0371 49.7036C84.0622 49.6286 84.1036 49.5628 84.1614 49.5065L84.3296 49.5188L84.82 48.165L84.939 48.1493C84.9869 48.1887 85.0293 48.2417 85.0659 48.3083C85.1048 48.3727 85.1283 48.4335 85.1365 48.4907L84.6719 49.6017L85.2033 49.6012L85.2546 48.8518L85.3609 48.7845C85.3982 48.7918 85.4431 48.8163 85.4954 48.8581C85.5478 48.8975 85.5881 48.9334 85.6163 48.9657L85.5762 49.6023Z" fill="white"/>
<path fill-rule="evenodd" clip-rule="evenodd" d="M82.5182 48.1226C82.6392 48.1194 82.7645 48.1324 82.894 48.1613C82.9901 48.2287 83.0674 48.297 83.126 48.3662C83.1847 48.4354 83.2366 48.5102 83.2819 48.5907L83.2425 49.169C83.1819 49.2688 83.1016 49.374 83.0013 49.4847C82.9033 49.5954 82.7942 49.7059 82.6742 49.8164C82.5969 49.886 82.5192 49.9528 82.4411 50.0167C82.3979 50.0521 82.3545 50.0866 82.311 50.1202L83.3002 50.2041C83.3 50.2225 83.2985 50.2411 83.2958 50.2599C83.2931 50.2788 83.2891 50.2979 83.2838 50.3172C83.278 50.3384 83.2707 50.3599 83.2619 50.3817C83.2392 50.4431 83.21 50.4987 83.1742 50.5485C83.1407 50.596 83.1073 50.6299 83.0741 50.65L82.2578 50.4518C82.2112 50.4878 82.1558 50.5214 82.0917 50.5526C82.0275 50.5838 81.9535 50.6114 81.8696 50.6355C81.8152 50.5892 81.774 50.5339 81.7461 50.4696C81.7182 50.4031 81.6949 50.3252 81.6761 50.2359C81.8382 50.1008 81.9949 49.9612 82.1461 49.8169C82.2974 49.6703 82.4343 49.5292 82.5568 49.3937C82.6793 49.2582 82.7775 49.1383 82.8512 49.0342C82.8696 48.9682 82.8814 48.8941 82.8867 48.812C82.8942 48.7299 82.8929 48.6534 82.8827 48.5825C82.793 48.5403 82.6909 48.5174 82.5765 48.5137C82.4644 48.5078 82.3597 48.5236 82.2625 48.5613L82.2207 49.0506C82.1721 49.066 82.1192 49.0756 82.062 49.0795C82.0047 49.0811 81.9553 49.0736 81.9137 49.0571L81.8541 48.481C81.8877 48.4266 81.9268 48.3746 81.9714 48.3249C82.016 48.2729 82.0572 48.23 82.0949 48.1962C82.2583 48.1502 82.3994 48.1257 82.5182 48.1226ZM81.89 48.2481C81.8415 48.3022 81.7987 48.3593 81.7615 48.4194L81.7406 48.4532L81.8115 49.1389L81.8745 49.1638C81.9328 49.1869 81.9972 49.1955 82.0649 49.1936L82.067 49.1935L82.0691 49.1934C82.1338 49.189 82.1952 49.178 82.2528 49.1597L82.3237 49.1373L82.3656 48.6473C82.4295 48.6306 82.4978 48.6239 82.5709 48.6277L82.572 48.6278L82.5731 48.6278C82.6503 48.6303 82.7191 48.6425 82.7802 48.6634C82.7826 48.7063 82.7817 48.7522 82.7772 48.8012L82.7771 48.8028L82.777 48.8043C82.7726 48.8715 82.7636 48.931 82.7506 48.9833C82.6816 49.0789 82.5905 49.1895 82.4766 49.3156C82.356 49.4489 82.221 49.5881 82.0714 49.7331C81.9221 49.8756 81.7674 50.0135 81.6072 50.1469L81.5541 50.1911L81.5686 50.2603C81.5886 50.355 81.6139 50.4403 81.6452 50.5151L81.6458 50.5165C81.6809 50.5974 81.7328 50.6667 81.7999 50.7238L81.844 50.7613L81.899 50.7455C81.9875 50.7201 82.0675 50.6904 82.1384 50.6559C82.19 50.6308 82.2374 50.6038 82.2805 50.5746L83.0917 50.7715L83.1296 50.7486C83.1804 50.7178 83.2242 50.6708 83.2627 50.6163C83.3044 50.5582 83.338 50.4941 83.3639 50.4244C83.393 50.3522 83.4094 50.2789 83.4102 50.2054L83.4114 50.099L82.6005 50.0302C82.6493 49.9888 82.6979 49.9462 82.7463 49.9026L82.7471 49.9018C82.8695 49.7892 82.9812 49.6761 83.0819 49.5624C83.1855 49.448 83.2705 49.3371 83.3356 49.2299L83.3502 49.2057L83.3941 48.5636L83.3769 48.5331C83.3281 48.4464 83.272 48.3656 83.2086 48.2908C83.1423 48.2125 83.0572 48.138 82.9556 48.0667L82.938 48.0544L82.9172 48.0497C82.78 48.019 82.646 48.0051 82.5155 48.0084C82.385 48.0119 82.2347 48.0386 82.0661 48.0861L82.042 48.0928L82.0231 48.1098C81.9809 48.1475 81.9365 48.1939 81.89 48.2481Z" fill="white"/>
<path fill-rule="evenodd" clip-rule="evenodd" d="M80.5108 48.0407L80.5285 48.0546C80.575 48.091 80.6224 48.1352 80.6706 48.1864C80.7206 48.2371 80.7672 48.2891 80.8106 48.3424C80.856 48.3984 80.8931 48.4546 80.9195 48.5111L80.9318 48.5374L80.8552 50.1748L80.8362 50.2021C80.8014 50.2526 80.7579 50.3062 80.7066 50.363C80.6548 50.4202 80.5997 50.4749 80.5412 50.5271L80.5403 50.5279L80.5393 50.5288C80.481 50.5784 80.4241 50.6217 80.3688 50.6582L80.3412 50.6764L79.6879 50.6686L79.6811 50.6676C79.6255 50.6597 79.5653 50.6327 79.5047 50.5979C79.4432 50.5626 79.3804 50.5204 79.3161 50.4716L79.3151 50.4708L79.3141 50.47C79.2489 50.418 79.1909 50.3641 79.1406 50.3081L79.1398 50.3072L79.139 50.3062C79.0889 50.248 79.0483 50.1868 79.0288 50.1236L79.0223 50.1026L79.1319 48.5235L79.1456 48.5001C79.1714 48.4557 79.2059 48.4061 79.2478 48.3518L79.2482 48.3513C79.2931 48.2939 79.3414 48.239 79.393 48.1866C79.4436 48.133 79.4909 48.0873 79.5348 48.0502L79.5568 48.0316L79.5847 48.0264C79.7511 47.9954 79.9087 47.9804 80.0572 47.9821C80.2084 47.9816 80.3525 47.9991 80.4892 48.035L80.5108 48.0407ZM80.4622 48.1457C80.5036 48.1782 80.5472 48.2186 80.5928 48.2671C80.6407 48.3157 80.6853 48.3653 80.7265 48.416C80.7677 48.4668 80.7991 48.5151 80.8206 48.561L80.7469 50.1356C80.7156 50.1809 80.6754 50.2306 80.6264 50.2848C80.5774 50.3391 80.5251 50.3909 80.4695 50.4405C80.414 50.4878 80.3607 50.5282 80.3098 50.5619L79.696 50.5545C79.6608 50.5495 79.6148 50.5307 79.558 50.498C79.5012 50.4654 79.4422 50.4259 79.3811 50.3795C79.3201 50.3308 79.2667 50.281 79.2211 50.2303C79.1755 50.1772 79.1463 50.13 79.1335 50.0888L79.2398 48.5591C79.2622 48.5205 79.2935 48.4753 79.3337 48.4232C79.3761 48.3689 79.4218 48.317 79.4707 48.2673C79.5197 48.2154 79.5642 48.1726 79.6042 48.1388C79.7651 48.1088 79.916 48.0946 80.0568 48.0963C80.1998 48.0957 80.335 48.1122 80.4622 48.1457ZM80.2849 48.6642L80.2845 48.6604C80.2837 48.6527 80.2829 48.6453 80.282 48.638C80.2034 48.624 80.1183 48.6171 80.0265 48.6176C79.9326 48.6182 79.8451 48.6285 79.7637 48.6481C79.7365 48.751 79.7131 48.8706 79.6937 49.0073C79.6836 49.0848 79.6752 49.1626 79.6686 49.2407L80.2924 48.713C80.2903 48.6978 80.288 48.6828 80.2855 48.6681L80.2849 48.6642ZM80.4091 48.7616L79.5428 49.4943C79.5447 49.4429 79.5474 49.3916 79.5507 49.3404C79.5583 49.2235 79.5697 49.1071 79.5848 48.9914C79.6086 48.8227 79.6389 48.6769 79.6755 48.5541C79.7836 48.5211 79.9004 48.5043 80.0258 48.5035C80.1535 48.5027 80.271 48.5156 80.3786 48.542C80.3848 48.574 80.3899 48.6095 80.3939 48.6483C80.4001 48.685 80.4051 48.7227 80.4091 48.7616ZM80.2899 49.6263C80.2984 49.5419 80.3048 49.4578 80.3089 49.374L79.6587 49.9256C79.6616 49.965 79.6649 50.0022 79.6687 50.0373C79.6705 50.0486 79.6722 50.0598 79.674 50.0708L80.2408 49.9815C80.2615 49.8777 80.2779 49.7599 80.2898 49.6277L80.2899 49.6263ZM80.3316 50.0827L79.5844 50.2004C79.5761 50.1546 79.5679 50.1054 79.5597 50.0528C79.5537 49.9979 79.5489 49.9385 79.5452 49.8745L80.4248 49.1282C80.4249 49.1778 80.4242 49.2276 80.4228 49.2774C80.4194 49.3971 80.4115 49.5174 80.3993 49.6382C80.3842 49.807 80.3617 49.9551 80.3316 50.0827Z" fill="white"/>
<path fill-rule="evenodd" clip-rule="evenodd" d="M77.4215 48.0621C77.5426 48.059 77.6678 48.0719 77.7973 48.1009C77.8934 48.1682 77.9707 48.2365 78.0293 48.3057C78.088 48.3749 78.1399 48.4498 78.1852 48.5302L78.1457 49.1086C78.0852 49.2083 78.0048 49.3135 77.9046 49.4242C77.8065 49.5349 77.6975 49.6454 77.5774 49.7559C77.5001 49.8255 77.4224 49.8923 77.3443 49.9562C77.3011 49.9916 77.2577 50.0261 77.2143 50.0597L78.2034 50.1436C78.2032 50.162 78.2017 50.1806 78.199 50.1995C78.1963 50.2183 78.1923 50.2374 78.187 50.2568C78.1813 50.278 78.1739 50.2995 78.1651 50.3212C78.1424 50.3826 78.1132 50.4382 78.0774 50.488C78.0439 50.5356 78.0105 50.5694 77.9773 50.5895L77.161 50.3913C77.1144 50.4273 77.059 50.4609 76.9949 50.492C76.9307 50.5232 76.8567 50.5509 76.7728 50.575C76.7183 50.5287 76.6772 50.4734 76.6493 50.4091C76.6214 50.3425 76.5981 50.2646 76.5793 50.1753C76.7414 50.0403 76.8981 49.9006 77.0494 49.7563C77.2006 49.6097 77.3375 49.4687 77.46 49.3332C77.5826 49.1977 77.6807 49.0778 77.7545 48.9737C77.7729 48.9077 77.7847 48.8336 77.79 48.7515C77.7975 48.6694 77.7962 48.5929 77.786 48.522C77.6963 48.4798 77.5942 48.4569 77.4798 48.4532C77.3677 48.4473 77.263 48.4631 77.1658 48.5008L77.124 48.99C77.0754 49.0054 77.0225 49.0151 76.9652 49.019C76.908 49.0205 76.8586 49.0131 76.817 48.9966L76.7574 48.4205C76.791 48.3661 76.8301 48.3141 76.8747 48.2644C76.9193 48.2124 76.9605 48.1695 76.9982 48.1357C77.1616 48.0897 77.3027 48.0652 77.4215 48.0621ZM76.7933 48.1875C76.7449 48.2417 76.702 48.2988 76.6648 48.3589L76.6439 48.3927L76.7148 49.0783L76.7777 49.1033C76.836 49.1264 76.9005 49.1349 76.9682 49.1331L76.9703 49.133L76.9724 49.1329C77.037 49.1285 77.0984 49.1175 77.1561 49.0992L77.227 49.0768L77.2688 48.5868C77.3328 48.5701 77.4011 48.5634 77.4742 48.5672L77.4753 48.5673L77.4764 48.5673C77.5536 48.5698 77.6224 48.582 77.6835 48.6029C77.6859 48.6458 77.685 48.6917 77.6805 48.7407L77.6804 48.7423L77.6803 48.7438C77.6759 48.811 77.6669 48.8706 77.6539 48.9229C77.5849 49.0184 77.4938 49.129 77.3798 49.2551C77.2593 49.3884 77.1242 49.5276 76.9746 49.6726C76.8253 49.815 76.6706 49.953 76.5105 50.0863L76.4573 50.1306L76.4718 50.1997C76.4918 50.2945 76.5171 50.3797 76.5484 50.4546L76.549 50.456C76.5841 50.5369 76.636 50.6062 76.7031 50.6633L76.7472 50.7008L76.8022 50.685C76.8907 50.6596 76.9707 50.6299 77.0416 50.5954C77.0931 50.5703 77.1406 50.5433 77.1837 50.514L77.9949 50.7111L78.0328 50.6881C78.0836 50.6573 78.1274 50.6104 78.1659 50.5558C78.2076 50.4978 78.2412 50.4336 78.2672 50.3638C78.2963 50.2917 78.3126 50.2184 78.3134 50.1449L78.3146 50.0385L77.5037 49.9697C77.5525 49.9283 77.6011 49.8857 77.6495 49.8421L77.6504 49.8413C77.7728 49.7287 77.8844 49.6156 77.9851 49.5019C78.0887 49.3875 78.1737 49.2767 78.2388 49.1694L78.2535 49.1452L78.2974 48.5031L78.2802 48.4727C78.2314 48.3859 78.1753 48.3051 78.112 48.2304C78.0456 48.152 77.9605 48.0775 77.8589 48.0063L77.8413 47.9939L77.8205 47.9893C77.6833 47.9586 77.5493 47.9446 77.4188 47.9479C77.2883 47.9514 77.138 47.9781 76.9695 48.0255L76.9453 48.0323L76.9264 48.0492C76.8842 48.087 76.8398 48.1334 76.7933 48.1875Z" fill="white"/>
<path fill-rule="evenodd" clip-rule="evenodd" d="M81.8448 34.0147C80.1442 34.1377 78.4125 34.4609 77.3414 34.7207L77.1473 33.9521C78.2503 33.6845 80.0244 33.3532 81.7753 33.2266C82.6508 33.1633 83.5297 33.1505 84.3207 33.2252C85.1049 33.2993 85.8367 33.4624 86.3957 33.7743L86.0302 34.465C85.6106 34.2308 85.0038 34.082 84.2626 34.0119C83.5283 33.9425 82.695 33.9532 81.8448 34.0147Z" fill="#FF004D"/>
<path fill-rule="evenodd" clip-rule="evenodd" d="M81.9745 35.9752L86.1621 34.0074L86.5017 34.7246L82.3141 36.6924L81.9745 35.9752Z" fill="#FF004D"/>
<path fill-rule="evenodd" clip-rule="evenodd" d="M83.6442 38.161C82.588 39.5388 81.3505 40.7652 80.5369 41.4698L81.006 42.1591C81.8476 41.4303 83.119 40.1704 84.2095 38.7479C84.755 38.0364 85.2608 37.277 85.6451 36.5167C86.0272 35.7607 86.3024 34.9783 86.3605 34.2237L85.6316 34.0815C85.5862 34.6715 85.3635 35.34 85.0052 36.0488C84.6492 36.7532 84.1722 37.4724 83.6442 38.161Z" fill="#FF004D"/>
<path fill-rule="evenodd" clip-rule="evenodd" d="M78.7799 37.6656L80.682 36.7104L80.991 37.4297L79.0889 38.3848L78.7799 37.6656Z" fill="#FF004D"/>
<path fill-rule="evenodd" clip-rule="evenodd" d="M81.6911 49.0821C80.8019 67.5044 65.3965 82.0537 46.6955 81.8285C27.9943 81.6033 12.9183 66.6865 12.4416 48.2474C12.4209 48.6758 12.4081 49.1063 12.4033 49.5388C12.1905 68.5679 27.5307 84.1808 46.6666 84.4113C65.8025 84.6417 81.4877 69.4024 81.7005 50.3734C81.7053 49.9411 81.7021 49.5107 81.6911 49.0821Z" fill="#FDF6F6"/>
<path fill-rule="evenodd" clip-rule="evenodd" d="M81.5319 52.0383C79.2345 69.1038 64.4405 82.1564 46.6942 81.9427C28.9477 81.7289 14.4494 68.3232 12.5346 51.2066C13.2051 69.4053 28.1503 84.0741 46.6679 84.2971C65.1852 84.5201 80.4542 70.2156 81.5319 52.0383ZM81.5879 50.5617C79.9698 68.2773 64.8929 82.0477 46.6955 81.8285C28.4979 81.6093 13.7328 67.4792 12.5117 49.7291C12.5073 49.6661 12.5032 49.6031 12.4992 49.54C12.472 49.1111 12.4528 48.6802 12.4416 48.2474C12.4209 48.6758 12.4081 49.1063 12.4033 49.5388C12.4026 49.6036 12.402 49.6682 12.4016 49.7329C12.2949 68.6739 27.5958 84.1816 46.6666 84.4113C65.7372 84.6409 81.3806 69.5063 81.6978 50.5682C81.6989 50.5033 81.6998 50.4384 81.7005 50.3734C81.7053 49.9411 81.7021 49.5107 81.6911 49.0821C81.6702 49.5143 81.6414 49.9444 81.6047 50.3722C81.5992 50.4354 81.5936 50.4986 81.5879 50.5617Z" fill="white"/>
<path d="M18.7219 8.91812C16.9599 8.52238 16.1033 9.37298 15.8952 9.84774C16.2486 10.0726 16.516 10.7557 16.7523 11.3933C16.9886 12.031 20.0232 21.1445 20.3715 22.2383C20.6502 23.1133 21.1003 23.6938 21.2906 23.8747C22.4298 24.7619 23.9041 24.2888 24.3559 23.7809C24.8076 23.273 24.3301 22.8665 23.8714 22.78C23.5045 22.7108 23.3667 22.2366 23.3438 22.0082C23.0774 19.2165 22.5914 13.974 22.7781 15.3378C23.0115 17.0425 24.6445 19.7231 25.0623 20.2369C25.4802 20.7507 27.3769 21.1876 28.0655 20.0523C28.7541 18.9169 28.6288 16.0068 28.5121 15.1544C28.4187 14.4725 27.5371 13.9556 27.1079 13.7823C27.4328 15.4912 27.9055 18.8833 27.1964 18.7811C26.4874 18.679 25.1908 14.2246 24.6312 12.0102C23.7584 10.422 22.2689 10.8922 21.6332 11.3258C21.2773 12.2077 21.3814 15.0479 21.478 16.3578C21.0025 14.8182 20.0228 11.6388 19.9083 11.2376C19.7938 10.8364 19.0697 9.52412 18.7219 8.91812Z" fill="#FDF6F6"/>
<path fill-rule="evenodd" clip-rule="evenodd" d="M15.9663 9.82954C16.139 9.95763 16.2868 10.1822 16.4176 10.4415C16.5598 10.7233 16.6867 11.0563 16.8048 11.3749C17.0416 12.014 20.0766 21.1286 20.4249 22.2224C20.6998 23.0856 21.1427 23.6567 21.3269 23.8328C21.8818 24.2639 22.5185 24.3651 23.0736 24.2958C23.6318 24.2261 24.0995 23.9851 24.3141 23.7438C24.4216 23.623 24.4697 23.5128 24.4798 23.4164C24.4898 23.3207 24.4628 23.2328 24.4092 23.1544C24.3002 22.9948 24.0819 22.8772 23.8619 22.8357C23.6547 22.7966 23.5168 22.6438 23.4296 22.4804C23.3422 22.3167 23.3004 22.1336 23.2883 22.0137L23.2883 22.0134C23.1551 20.6175 22.967 18.6088 22.8355 17.1195C22.7698 16.375 22.7182 15.7598 22.6947 15.4158C22.6888 15.3298 22.6847 15.2604 22.6825 15.21C22.6814 15.1848 22.6808 15.1639 22.6808 15.1479C22.6807 15.1344 22.6809 15.1178 22.6835 15.106C22.684 15.1037 22.6861 15.094 22.6928 15.0843C22.6963 15.0791 22.7046 15.0688 22.7197 15.0633C22.7372 15.0569 22.754 15.0603 22.7659 15.0667C22.776 15.0721 22.782 15.0793 22.7847 15.0827C22.7877 15.0866 22.7897 15.0902 22.7909 15.0925C22.7933 15.0971 22.7948 15.1015 22.7958 15.1043C22.7993 15.115 22.8027 15.1307 22.8059 15.1483C22.8128 15.1855 22.822 15.2461 22.8337 15.3314C22.949 16.1735 23.4115 17.2625 23.9008 18.2092C24.3897 19.1553 24.9003 19.9499 25.1056 20.2023C25.201 20.3195 25.3872 20.4387 25.6307 20.5327C25.8725 20.626 26.1644 20.6921 26.4647 20.7075C27.0672 20.7386 27.6885 20.5662 28.0178 20.0232C28.1849 19.7477 28.3046 19.3606 28.3874 18.9174C28.47 18.4751 28.5151 17.9811 28.5351 17.4948C28.5751 16.5217 28.5147 15.5844 28.4569 15.1619C28.4131 14.8422 28.1827 14.5542 27.9009 14.3213C27.6597 14.122 27.3874 13.9685 27.1822 13.8755C27.3411 14.7284 27.5282 15.9476 27.5959 16.9584C27.631 17.4837 27.6341 17.9566 27.5829 18.2932C27.5573 18.4608 27.5175 18.6007 27.4571 18.6968C27.4265 18.7453 27.3892 18.785 27.3436 18.8104C27.2971 18.8362 27.2451 18.8453 27.1894 18.8373C27.1316 18.829 27.0758 18.7993 27.0227 18.7569C26.9693 18.7143 26.9155 18.6563 26.8617 18.5862C26.7539 18.446 26.641 18.2511 26.5253 18.0164C26.2937 17.5466 26.0468 16.9084 25.8051 16.206C25.3228 14.8039 24.8592 13.1391 24.579 12.031C24.1523 11.2588 23.581 10.9922 23.0415 10.9665C22.5039 10.9408 21.9915 11.1544 21.6791 11.3636C21.5966 11.5767 21.5388 11.9063 21.501 12.3065C21.4625 12.715 21.4452 13.1918 21.442 13.6829C21.4356 14.6651 21.4857 15.7011 21.5339 16.3549L21.4248 16.3743C20.9494 14.8353 19.9694 11.655 19.8547 11.253C19.8275 11.1577 19.7627 11.0043 19.6732 10.8153C19.5843 10.6274 19.4726 10.4076 19.3534 10.181C19.1206 9.73849 18.86 9.27151 18.6863 8.96806C17.0177 8.60253 16.1935 9.37474 15.9663 9.82954ZM15.8442 9.82516C16.0635 9.32475 16.9472 8.46271 18.7336 8.86393L18.758 8.86939L18.7705 8.89115C18.9446 9.19459 19.2129 9.6748 19.4521 10.1295C19.5717 10.3569 19.6842 10.5783 19.7741 10.7682C19.8635 10.957 19.9321 11.1181 19.9622 11.2234C20.0661 11.5877 20.8861 14.2512 21.3915 15.8886C21.355 15.2603 21.3252 14.4542 21.3302 13.6808C21.3334 13.1879 21.3507 12.7074 21.3897 12.2945C21.4286 11.883 21.4893 11.5332 21.5815 11.3048L21.5877 11.2893L21.6015 11.2799C21.9262 11.0584 22.4692 10.8269 23.0454 10.8544C23.6263 10.8821 24.2345 11.1731 24.6802 11.9841L24.6837 11.9905L24.6855 11.9976C24.9651 13.1039 25.4287 14.7695 25.9108 16.1706C26.1519 16.8715 26.397 17.5044 26.6254 17.9677C26.7397 18.1996 26.8488 18.3868 26.9499 18.5184C27.0004 18.5841 27.0478 18.6345 27.0915 18.6694C27.1356 18.7046 27.1729 18.7217 27.2038 18.7262C27.2367 18.7309 27.2642 18.7255 27.2885 18.712C27.3136 18.698 27.3386 18.6737 27.3623 18.6359C27.4105 18.5594 27.4475 18.4376 27.4723 18.2749C27.5217 17.9508 27.5193 17.488 27.4843 16.9645C27.4144 15.9188 27.2154 14.646 27.0531 13.7927L27.0342 13.6929L27.1283 13.7309C27.3473 13.8193 27.6803 13.9946 27.9713 14.2351C28.2609 14.4744 28.518 14.7859 28.5676 15.1481C28.6265 15.5779 28.6871 16.5219 28.6468 17.5008C28.6266 17.9905 28.5812 18.4902 28.4973 18.9395C28.4136 19.3879 28.2907 19.7903 28.1135 20.0825C27.7543 20.6748 27.0829 20.8517 26.4604 20.8196C26.1482 20.8035 25.8446 20.735 25.5917 20.6374C25.3405 20.5404 25.1329 20.4122 25.0194 20.2726C24.8068 20.0112 24.292 19.2086 23.8017 18.2598C23.4182 17.5179 23.0468 16.6809 22.8467 15.9386C22.8729 16.2616 22.9073 16.6627 22.9469 17.111C23.0783 18.5999 23.2664 20.6082 23.3995 22.004C23.4105 22.1125 23.449 22.2806 23.528 22.4284C23.607 22.5764 23.7215 22.6953 23.8812 22.7254C24.1199 22.7704 24.3697 22.8994 24.5012 23.0917C24.5678 23.1892 24.6042 23.3036 24.591 23.4296C24.5779 23.555 24.5164 23.686 24.3979 23.8192C24.1608 24.0857 23.6654 24.3352 23.0888 24.4072C22.5098 24.4795 21.8406 24.3741 21.2569 23.9195L21.2546 23.9177L21.2526 23.9158C21.055 23.728 20.5999 23.139 20.3185 22.2553C19.9701 21.1615 16.9358 12.0491 16.7001 11.4129C16.5818 11.0938 16.4569 10.7665 16.318 10.4912C16.1781 10.2138 16.0286 9.99918 15.8659 9.89561L15.8248 9.86944L15.8442 9.82516Z" fill="white"/>
<path d="M12.7811 28.2055C12.1371 28.6656 11.1955 28.2569 10.8052 27.9951C10.7986 27.797 10.6771 27.8162 11.0282 27.3626C11.3794 26.909 11.4972 23.5805 11.1313 22.2198C10.7672 20.8658 10.3663 20.6758 9.85816 20.4349L9.8506 20.4313C9.44119 20.2371 9.01529 20.555 8.85351 20.7381C6.6632 23.2493 6.75471 25.0764 6.64193 27.1847C6.52915 29.2929 7.36265 31.4009 8.07922 31.8352C8.7958 32.2695 11.9771 29.7262 12.4624 29.1766C12.8507 28.737 13.8849 28.0477 14.3534 27.758C15.1372 27.3106 16.6916 27.1148 16.6384 29.9104C16.5719 33.405 14.8476 35.2453 14.3302 35.7501C13.8129 36.2549 11.837 36.0445 11.625 35.1821C11.4555 34.4921 11.9077 34.5069 12.1551 34.6006C12.8462 35.1882 13.3382 34.8367 13.4977 34.5875C14.7738 32.1213 15.1793 28.7225 14.8022 28.8567C14.4251 28.991 14.6167 28.7865 12.8985 30.352C11.1803 31.9176 9.56371 32.8698 8.87357 33.2277C8.18344 33.5857 6.91755 33.6114 6.35445 33.2027C5.79135 32.794 4.58232 32.2384 4.92934 28.0027C5.27636 23.767 7.50479 21.0259 7.83054 20.7255C8.1563 20.4252 9.36935 18.815 11.4738 19.677C13.5783 20.539 13.5861 27.6303 12.7811 28.2055Z" fill="#FDF6F6"/>
<path fill-rule="evenodd" clip-rule="evenodd" d="M7.91552 20.5583C8.36672 20.0869 9.56579 18.8341 11.4945 19.6241C12.0445 19.8494 12.4467 20.4752 12.7318 21.273C13.0181 22.0743 13.1919 23.0648 13.2743 24.0437C13.3568 25.023 13.3481 25.9939 13.2681 26.757C13.2281 27.1384 13.1701 27.4695 13.0961 27.7245C13.0591 27.8519 13.0178 27.9618 12.9719 28.0498C12.9264 28.1371 12.8743 28.2071 12.814 28.2503C12.4744 28.4929 12.0598 28.5039 11.6871 28.4249C11.3141 28.3457 10.9745 28.1748 10.7745 28.0406L10.7503 28.0243L10.7493 27.9953C10.7481 27.957 10.7421 27.9287 10.7359 27.899C10.735 27.8948 10.7341 27.8905 10.7332 27.8862C10.726 27.8512 10.7194 27.8126 10.7275 27.7638C10.7428 27.6714 10.8094 27.5523 10.984 27.3269C11.0205 27.2796 11.0586 27.1875 11.0944 27.0512C11.1298 26.9171 11.1614 26.747 11.1886 26.5497C11.2429 26.1552 11.279 25.6563 11.2928 25.1282C11.3204 24.0702 11.2581 22.9048 11.0774 22.2328C10.8962 21.5592 10.7077 21.1825 10.5064 20.9449C10.3059 20.7084 10.0892 20.6051 9.83479 20.4845L9.82723 20.4809C9.64201 20.3931 9.4509 20.4195 9.28217 20.4936C9.11297 20.5679 8.97235 20.6877 8.89572 20.7745C7.80571 22.0242 7.2855 23.1011 7.02287 24.126C6.80093 24.9922 6.76239 25.822 6.72186 26.6949C6.71432 26.8574 6.7067 27.0213 6.69783 27.1873C6.64186 28.2336 6.82077 29.2805 7.10259 30.1193C7.24349 30.5386 7.40969 30.9047 7.5842 31.192C7.75947 31.4806 7.94012 31.6847 8.10778 31.7863C8.17951 31.8297 8.29065 31.8402 8.44263 31.812C8.59285 31.7841 8.77316 31.7203 8.9745 31.6282C9.37685 31.4442 9.85383 31.1519 10.3256 30.8274C11.2702 30.1778 12.1823 29.4077 12.4204 29.1381C12.6191 28.9132 12.9793 28.6279 13.3449 28.3644C13.7117 28.1 14.0885 27.8545 14.3237 27.7091L14.3245 27.7086L14.3254 27.7081C14.7234 27.481 15.3296 27.3097 15.8347 27.5671C16.3446 27.827 16.7211 28.5069 16.6943 29.9111C16.6274 33.4259 14.8925 35.2791 14.3695 35.7895C14.2278 35.9277 13.9934 36.0116 13.7277 36.05C13.4601 36.0887 13.1522 36.0826 12.8546 36.0331C12.5573 35.9836 12.2671 35.8904 12.0362 35.7527C11.8058 35.6153 11.6287 35.4297 11.5708 35.1939C11.5272 35.0166 11.5219 34.8784 11.5472 34.7723C11.5729 34.6644 11.63 34.5913 11.7055 34.5478C11.7791 34.5053 11.8652 34.4938 11.9463 34.4979C12.0277 34.502 12.1081 34.522 12.1743 34.5471L12.1835 34.5506L12.191 34.5569C12.5266 34.8423 12.8055 34.8933 13.0143 34.8518C13.2247 34.81 13.3753 34.6722 13.4493 34.5579C14.0834 33.3314 14.502 31.8718 14.715 30.7349C14.8215 30.166 14.8762 29.6801 14.881 29.3462C14.8835 29.1783 14.8732 29.0532 14.8527 28.9761C14.8423 28.9366 14.831 28.9171 14.8237 28.9095C14.8232 28.909 14.8228 28.9086 14.8224 28.9083C14.8221 28.9084 14.8218 28.9085 14.8215 28.9086C14.7739 28.9255 14.735 28.9372 14.7013 28.9474L14.6993 28.948C14.6649 28.9584 14.6367 28.9669 14.6081 28.9781C14.5525 28.9998 14.4918 29.0327 14.3873 29.1116C14.1758 29.271 13.7966 29.609 12.9364 30.3927C11.214 31.9621 9.59329 32.9169 8.89976 33.2766C8.54464 33.4608 8.04622 33.5577 7.56708 33.5578C7.08937 33.5579 6.61785 33.4617 6.32204 33.247C6.28904 33.223 6.25356 33.1984 6.21609 33.1724C5.93664 32.9786 5.54662 32.7081 5.24985 32.0597C4.91476 31.3275 4.69978 30.1185 4.87364 27.9965C5.04787 25.8699 5.69436 24.1186 6.33814 22.8613C6.98118 21.6054 7.62328 20.839 7.79247 20.683C7.82417 20.6538 7.86519 20.6109 7.91552 20.5583ZM7.99953 20.6341C7.94689 20.6888 7.90329 20.7341 7.8687 20.766C7.71214 20.9104 7.07716 21.6647 6.43778 22.9134C5.79916 24.1607 5.15793 25.8978 4.98513 28.0069C4.81196 30.1206 5.028 31.3072 5.35143 32.0139C5.63476 32.633 6.00139 32.8876 6.27882 33.0802C6.31666 33.1065 6.35285 33.1316 6.38694 33.1564C6.65423 33.3504 7.09721 33.4457 7.56575 33.4456C8.03286 33.4455 8.51245 33.3506 8.84747 33.1768C9.53421 32.8207 11.1466 31.871 12.8607 30.3093C13.7187 29.5275 14.1028 29.1849 14.3194 29.0216C14.4288 28.9391 14.4984 28.9001 14.5665 28.8735C14.5998 28.8605 14.632 28.8508 14.666 28.8405L14.6675 28.8401C14.7013 28.8299 14.738 28.8188 14.783 28.8028C14.8033 28.7956 14.8256 28.7932 14.8483 28.7989C14.8708 28.8045 14.8892 28.817 14.9038 28.8321C14.9314 28.8608 14.9488 28.903 14.9608 28.9484C14.9854 29.0411 14.9954 29.1788 14.9929 29.3491C14.9879 29.6918 14.9321 30.1846 14.8249 30.7569C14.6105 31.9017 14.1887 33.3735 13.5475 34.6128L13.5463 34.6151L13.545 34.6172C13.4589 34.7517 13.2843 34.9128 13.0373 34.9619C12.7893 35.0111 12.4793 34.9454 12.1269 34.6487C12.0714 34.6286 12.0061 34.6132 11.9419 34.6099C11.8739 34.6065 11.8112 34.6168 11.7621 34.6452C11.7147 34.6725 11.6751 34.7192 11.656 34.7996C11.6364 34.8819 11.6382 35.0005 11.6794 35.1682C11.7274 35.3636 11.8768 35.5277 12.0926 35.6565C12.308 35.785 12.5839 35.8745 12.8717 35.9224C13.1592 35.9702 13.4555 35.9759 13.7105 35.939C13.9674 35.9018 14.174 35.8228 14.291 35.7086C14.8027 35.2093 16.5164 33.382 16.5825 29.9077C16.609 28.5163 16.2348 27.8963 15.7849 27.667C15.3305 27.4354 14.7682 27.5854 14.3824 27.8053C14.149 27.9497 13.7749 28.1934 13.4109 28.4558C13.0452 28.7193 12.6942 28.9984 12.5045 29.2131C12.2573 29.493 11.3361 30.2693 10.3896 30.9202C9.91578 31.246 9.43274 31.5425 9.0219 31.7304C8.81663 31.8242 8.62705 31.8921 8.46424 31.9223C8.30319 31.9522 8.15817 31.9472 8.05075 31.8821C7.86012 31.7666 7.66787 31.5443 7.48885 31.2496C7.30906 30.9536 7.13958 30.5795 6.99663 30.154C6.71075 29.3031 6.52931 28.2419 6.58612 27.18C6.59491 27.0156 6.60246 26.8527 6.60996 26.6908C6.65042 25.8179 6.68947 24.9751 6.91451 24.0969C7.18188 23.0535 7.71104 21.9613 8.81127 20.6999L8.81149 20.6996C8.89665 20.6032 9.04983 20.4726 9.23631 20.3908C9.42332 20.3087 9.64988 20.2733 9.87407 20.3796L9.88459 20.3846C10.1373 20.5044 10.374 20.6166 10.5912 20.8729C10.8083 21.129 11.0024 21.5243 11.1853 22.2047C11.3706 22.8934 11.4323 24.0726 11.4046 25.1324C11.3908 25.6633 11.3545 26.1666 11.2994 26.5663C11.2719 26.7661 11.2395 26.941 11.2026 27.0811C11.1663 27.219 11.1238 27.3301 11.0726 27.3963C10.896 27.6244 10.8479 27.7226 10.8378 27.7835C10.8332 27.8114 10.8363 27.8335 10.8427 27.8647C10.8435 27.8685 10.8443 27.8725 10.8452 27.8766C10.8502 27.9 10.8562 27.9283 10.8593 27.9629C11.0523 28.0881 11.3668 28.2425 11.709 28.3151C12.0657 28.3908 12.4439 28.3761 12.7483 28.1586C12.7886 28.1299 12.8308 28.0771 12.8726 27.9969C12.914 27.9175 12.953 27.8151 12.9887 27.692C13.0601 27.4457 13.1172 27.1217 13.1568 26.744C13.236 25.9888 13.2448 25.0251 13.1628 24.0519C13.0809 23.0784 12.9084 22.0985 12.6265 21.3097C12.3434 20.5175 11.9555 19.9336 11.4533 19.7279C9.60095 18.9692 8.45772 20.1577 7.99953 20.6341Z" fill="white"/>
<path d="M55.7924 3.58287C56.1023 2.72286 54.5661 2.14503 53.8533 1.9296C52.6973 1.9011 51.8321 3.61858 51.4613 4.35464C51.0905 5.0907 51.1847 6.7377 51.6025 6.88658C51.9367 7.00569 52.2159 7.5031 52.117 7.69938C51.846 7.8705 51.0475 8.45274 50.0206 9.90423C48.9937 11.3557 49.4401 12.5238 49.7916 12.9265C51.3867 14.4065 52.2492 13.795 54.0968 12.6953C55.5748 11.8155 55.7995 10.4973 55.7271 9.94818C54.5767 10.9683 52.1579 12.9247 51.6865 12.5888C51.0972 12.169 54.6468 9.15803 54.6237 8.59268C54.6051 8.14039 54.0278 7.53383 53.7414 7.28708C53.2273 6.3514 54.0171 5.27268 54.5835 5.00425C55.0366 4.78951 55.6401 4.00548 55.7924 3.58287Z" fill="#FDF6F6"/>
<path fill-rule="evenodd" clip-rule="evenodd" d="M53.8438 1.98515C53.297 1.97532 52.8096 2.37645 52.4062 2.88939C52.0031 3.40201 51.6965 4.01037 51.5108 4.37889C51.332 4.73379 51.2626 5.31777 51.2918 5.83592C51.3063 6.09401 51.3452 6.33157 51.4049 6.51222C51.4348 6.60259 51.4693 6.67674 51.5072 6.73173C51.5452 6.78703 51.5842 6.81926 51.6218 6.83268C51.8049 6.8979 51.9668 7.06321 52.0698 7.23325C52.1217 7.31896 52.1605 7.40877 52.1796 7.49194C52.1983 7.57341 52.2001 7.65705 52.1665 7.72363L52.1593 7.73792L52.1459 7.74641C51.8817 7.91325 51.0886 8.49008 50.0658 9.93585C49.0564 11.3625 49.497 12.5001 49.8318 12.8859C50.6217 13.6181 51.2194 13.8234 51.8417 13.7219C52.1563 13.6706 52.4811 13.5404 52.8445 13.3527C53.1526 13.1935 53.4857 12.9946 53.8619 12.7699C53.9296 12.7294 53.9987 12.6882 54.0693 12.6461C55.4361 11.8326 55.7104 10.6424 55.6814 10.062C55.1047 10.5692 54.2559 11.2727 53.4837 11.8223C53.0792 12.1102 52.6937 12.3572 52.3785 12.5114C52.2211 12.5883 52.0786 12.6435 51.9585 12.6682C51.8405 12.6925 51.7318 12.6899 51.654 12.6344C51.6041 12.5989 51.576 12.5486 51.5676 12.4892C51.5595 12.432 51.57 12.3684 51.5918 12.3021C51.6352 12.1699 51.7297 12.0098 51.8552 11.8337C52.1072 11.4801 52.4974 11.0441 52.9026 10.6065C53.0192 10.4805 53.137 10.3545 53.2533 10.23C53.5425 9.92053 53.8223 9.62108 54.0502 9.35902C54.21 9.17534 54.3427 9.01173 54.4344 8.8773C54.4803 8.81005 54.515 8.75145 54.5378 8.70228C54.561 8.65187 54.569 8.61703 54.5681 8.59534C54.5596 8.38799 54.4206 8.13526 54.2388 7.89711C54.0591 7.66163 53.8459 7.45101 53.705 7.32963L53.6975 7.32319L53.6928 7.3145C53.4243 6.82603 53.498 6.30206 53.7075 5.87061C53.9161 5.44088 54.2637 5.09333 54.5607 4.95257C54.7756 4.85074 55.0332 4.60917 55.2583 4.33522C55.483 4.06186 55.6673 3.7661 55.7402 3.56369C55.8107 3.36793 55.7774 3.18863 55.6733 3.02212C55.5678 2.85347 55.3902 2.69911 55.176 2.56163C54.751 2.28874 54.1992 2.09294 53.8438 1.98515ZM55.7676 2.96058C55.8867 3.15102 55.9291 3.36646 55.8447 3.60069C55.7653 3.8209 55.5718 4.12847 55.3433 4.40646C55.1154 4.68385 54.8447 4.94167 54.6064 5.05458C54.337 5.18225 54.0065 5.50827 53.8072 5.91893C53.6099 6.32526 53.5453 6.80493 53.7856 7.24973C53.931 7.37599 54.1454 7.58876 54.3273 7.82714C54.5104 8.06703 54.6693 8.34372 54.6793 8.58866C54.6814 8.63764 54.6643 8.69257 54.6384 8.74859C54.612 8.80583 54.5734 8.87031 54.5256 8.94032C54.43 9.08041 54.2938 9.24806 54.1332 9.43272C53.9039 9.69644 53.6217 9.99832 53.3319 10.3085C53.2159 10.4326 53.0987 10.558 52.9831 10.6828C52.5775 11.121 52.1922 11.5519 51.9451 11.8986C51.8211 12.0726 51.7351 12.221 51.6973 12.336C51.6785 12.3934 51.6731 12.4381 51.6778 12.4713C51.6822 12.5025 51.6954 12.5249 51.7191 12.5418C51.7592 12.5703 51.8292 12.5801 51.9382 12.5577C52.0451 12.5357 52.1779 12.4851 52.3315 12.41C52.6384 12.2599 53.0179 12.0171 53.4208 11.7304C54.226 11.1573 55.1166 10.4146 55.691 9.90536L55.7688 9.83632L55.7824 9.93906C55.8575 10.5087 55.624 11.8505 54.1244 12.7431C54.0542 12.7849 53.9854 12.826 53.9178 12.8664C53.5418 13.091 53.2052 13.292 52.8936 13.453C52.5258 13.6429 52.1889 13.7792 51.8575 13.8333C51.1884 13.9424 50.5579 13.7138 49.7537 12.9677L49.7516 12.9657L49.7497 12.9636C49.3817 12.542 48.9331 11.3449 49.9757 9.87124C50.9885 8.43966 51.7821 7.84734 52.0731 7.66064C52.0841 7.62855 52.0853 7.58101 52.0712 7.51936C52.0553 7.45034 52.0219 7.37154 51.9746 7.29348C51.8792 7.13597 51.7344 6.99302 51.5833 6.93914C51.5165 6.91533 51.4611 6.86353 51.4155 6.79738C51.3697 6.73094 51.3312 6.64624 51.2993 6.54976C51.2354 6.35672 51.1955 6.10861 51.1807 5.84434C51.151 5.31775 51.2198 4.7102 51.4119 4.32904L51.4125 4.32771C51.5978 3.96 51.9089 3.34245 52.3196 2.82008C52.7288 2.29967 53.2495 1.85761 53.8558 1.87256L53.8631 1.87274L53.8702 1.87487C54.2278 1.98296 54.7959 2.183 55.2368 2.46606C55.4571 2.60747 55.6499 2.77228 55.7676 2.96058Z" fill="white"/>
<path fill-rule="evenodd" clip-rule="evenodd" d="M64.5506 11.6837C65.9342 12.7899 67.5318 12.1055 68.1577 11.625C67.2455 11.4741 67.5035 10.9278 67.7465 10.6735C68.234 10.0107 69.7052 11.1649 70.3799 11.8249C69.1226 12.531 68.7656 12.9747 68.7442 13.1083C67.7848 12.8735 67.7848 12.8735 67.0645 12.7696L67.0645 12.7696C66.5241 12.6917 66.3571 13.3463 66.3353 13.7458C66.3302 13.7666 66.3292 13.7917 66.3328 13.8216C66.333 13.7977 66.3338 13.7723 66.3353 13.7458C66.3931 13.5078 66.981 13.8415 67.2922 14.0564C66.9268 14.5343 65.8723 15.3999 64.5775 15.0396C63.2827 14.6792 64.2534 13.361 64.9006 12.7469C62.5121 11.1485 59.4999 11.8235 58.9958 14.1623C58.4917 16.5011 60.5798 18.0803 63.2218 18.3648C65.3354 18.5924 67.7297 16.3782 68.6627 15.2426C68.6987 15.6498 69.0594 16.4477 70.2142 16.3827C71.3689 16.3177 71.4727 14.7475 71.3802 13.9705C70.7097 14.9108 69.6919 14.4988 69.756 14.0981C69.8201 13.6974 70.9746 12.441 71.0913 12.7955C71.208 13.1499 73.2349 14.8408 74.4947 15.0948C75.5025 15.298 76.1455 14.6009 76.2262 14.1286C76.3034 13.6762 76.178 12.6463 74.8879 11.8236C73.5977 11.001 71.9883 11.2528 71.3448 11.4816L69.1488 8.68121C66.9225 6.55697 65.6227 7.52907 64.8291 8.12253C64.8077 8.13858 64.7866 8.15436 64.7658 8.16979C64.1176 8.88016 63.1671 10.5775 64.5506 11.6837ZM73.3471 13.6026C74.2056 14.1228 74.8481 14.2241 75.1231 14.0529C75.5081 13.6533 75.3584 13.1585 74.4383 12.4543C73.6397 11.8431 72.3654 11.8203 72.0841 11.9718C71.5986 12.0549 72.5216 13.0676 73.3471 13.6026Z" fill="#FDF6F6"/>
<path fill-rule="evenodd" clip-rule="evenodd" d="M66.455 7.43965C65.7702 7.49002 65.2588 7.87126 64.8611 8.16865C64.8412 8.18357 64.8215 8.1983 64.8021 8.21274C64.4829 8.5637 64.0923 9.15472 63.95 9.79063C63.8788 10.109 63.8702 10.4367 63.9622 10.7509C64.0539 11.0645 64.2469 11.3685 64.5846 11.6385C65.2628 12.1808 65.9926 12.2842 66.6314 12.193C67.2036 12.1113 67.7016 11.8734 68.0197 11.6558C67.8536 11.6169 67.7299 11.5619 67.6415 11.4945C67.5299 11.4095 67.4754 11.3054 67.4641 11.1947C67.453 11.0864 67.4839 10.9781 67.5309 10.8829C67.5775 10.7885 67.6419 10.703 67.705 10.6364C67.8427 10.4516 68.0478 10.3979 68.2755 10.4244C68.5029 10.451 68.7608 10.5577 69.0197 10.7031C69.5385 10.9945 70.0788 11.4516 70.418 11.7834L70.473 11.8372L70.4058 11.8749C69.7793 12.2268 69.3791 12.5122 69.1337 12.7249C69.011 12.8312 68.9279 12.9187 68.8746 12.9864C68.8197 13.0563 68.8014 13.0992 68.7986 13.117L68.7888 13.178L68.731 13.1638C68.1791 13.0287 67.9456 12.9716 67.7097 12.9276C67.536 12.8953 67.3609 12.87 67.0563 12.8261C66.9329 12.8083 66.8339 12.8325 66.7535 12.882C66.6721 12.9322 66.606 13.0105 66.5533 13.1065C66.4704 13.2573 66.424 13.4451 66.4026 13.6131C66.4235 13.6082 66.4453 13.6065 66.467 13.6069C66.5455 13.6082 66.6418 13.6376 66.7398 13.6785C66.9379 13.7611 67.1661 13.9006 67.3231 14.009L67.3724 14.043L67.3353 14.0915C66.9633 14.5779 65.8881 15.4635 64.5626 15.0947C64.2297 15.002 64.0306 14.8443 63.9405 14.6398C63.8511 14.4368 63.8758 14.2019 63.9591 13.9692C64.1167 13.5295 64.4948 13.0662 64.8111 12.7558C63.6429 11.9958 62.3338 11.7805 61.2532 12.0338C60.1551 12.2912 59.296 13.0308 59.0496 14.1742C58.8024 15.3208 59.1893 16.2802 59.9658 16.9912C60.7443 17.704 61.915 18.1668 63.2281 18.3082C64.2658 18.4199 65.3793 17.9321 66.355 17.2675C67.3293 16.6039 68.1572 15.7704 68.6208 15.2061L68.7057 15.1029L68.7175 15.2369C68.7345 15.4288 68.829 15.7171 69.0577 15.9489C69.2848 16.1791 69.6482 16.3576 70.2118 16.3259C70.4873 16.3104 70.6977 16.2057 70.8587 16.0468C71.0207 15.8868 71.135 15.6695 71.2126 15.4264C71.3504 14.9942 71.3685 14.4908 71.3389 14.1149C71.0071 14.512 70.6082 14.6286 70.2863 14.5939C70.1124 14.5752 69.9599 14.5122 69.8537 14.4241C69.7484 14.3369 69.6811 14.2176 69.7016 14.0895C69.7111 14.0299 69.7397 13.9597 69.7786 13.8858C69.8181 13.8109 69.8704 13.7281 69.9309 13.6425C70.0519 13.4712 70.2078 13.2854 70.3653 13.1235C70.5221 12.9624 70.6835 12.8218 70.8155 12.7438C70.8804 12.7055 70.9452 12.678 71.0022 12.6764C71.0318 12.6756 71.0621 12.6817 71.0885 12.6998C71.1153 12.718 71.1331 12.7451 71.1435 12.7767C71.1542 12.8091 71.1916 12.8669 71.2608 12.9477C71.3282 13.0263 71.4203 13.1209 71.5325 13.2263C71.7568 13.4369 72.0587 13.6881 72.3966 13.9364C73.0746 14.4346 73.8882 14.9145 74.5058 15.039C75.4841 15.2362 76.0968 14.5592 76.1719 14.1194C76.2451 13.6905 76.1302 12.6832 74.8586 11.8723C74.2241 11.4678 73.5096 11.3265 72.8723 11.3154C72.2346 11.3042 71.6778 11.4233 71.3622 11.5355L71.3259 11.5485L69.1083 8.72062C68.0033 7.66715 67.1367 7.38949 66.455 7.43965ZM66.2805 13.7383C66.2746 13.7662 66.2742 13.7968 66.2781 13.8293L66.3879 13.8217C66.3881 13.8005 66.3888 13.7781 66.39 13.7547C66.3938 13.7422 66.3999 13.7358 66.4073 13.7314C66.4176 13.7253 66.4354 13.7203 66.4639 13.7208C66.5216 13.7218 66.6026 13.7446 66.6976 13.7842C66.8662 13.8545 67.0612 13.97 67.2108 14.0698C66.8208 14.5461 65.8142 15.3246 64.5924 14.9846C64.2779 14.8971 64.1128 14.7549 64.0409 14.5917C63.9684 14.4271 63.9841 14.2264 64.0624 14.0077C64.2195 13.5693 64.6161 13.0938 64.9376 12.7888L64.9902 12.7388L64.9309 12.6991C63.7254 11.8924 62.3602 11.6577 61.2299 11.9227C60.0987 12.1879 59.1997 12.9552 58.942 14.1506C58.6851 15.3428 59.0902 16.3424 59.8922 17.0768C60.6923 17.8094 61.8867 18.2785 63.2155 18.4215C64.2914 18.5374 65.4319 18.032 66.4149 17.3624C67.3471 16.7276 68.1458 15.9396 68.6265 15.3727C68.6687 15.5743 68.7754 15.8233 68.9801 16.0307C69.2311 16.2851 69.6254 16.473 70.2166 16.4397C70.5184 16.4227 70.754 16.3068 70.9344 16.1287C71.1137 15.9517 71.236 15.7157 71.3172 15.461C71.4793 14.9525 71.4817 14.3566 71.4349 13.9631L71.4181 13.822L71.336 13.9372C71.0123 14.3911 70.6094 14.514 70.2989 14.4806C70.1425 14.4638 70.0107 14.4074 69.9232 14.3349C69.8347 14.2616 69.7988 14.1791 69.8104 14.1068C69.8168 14.0663 69.8384 14.0095 69.8753 13.9394C69.9117 13.8703 69.9611 13.7919 70.0196 13.709C70.1368 13.5431 70.2888 13.3619 70.4426 13.2039C70.597 13.0452 70.7501 12.913 70.8694 12.8426C70.9301 12.8067 70.9752 12.7911 71.004 12.7903C71.0172 12.7899 71.0237 12.7928 71.0271 12.795C71.0301 12.7971 71.0349 12.8017 71.0391 12.8145C71.0576 12.8706 71.1091 12.9433 71.178 13.0237C71.2488 13.1064 71.344 13.204 71.4579 13.311C71.6858 13.5251 71.9912 13.779 72.3321 14.0295C73.0117 14.5288 73.8414 15.0214 74.4836 15.1508C75.521 15.36 76.1943 14.6429 76.2804 14.138C76.3616 13.6621 76.2259 12.6096 74.9172 11.7752C74.2614 11.357 73.5261 11.2129 72.8753 11.2015C72.2484 11.1905 71.6966 11.3027 71.364 11.4152L69.1893 8.64199L69.1865 8.63924C68.0666 7.57072 67.171 7.27284 66.4484 7.326C65.7302 7.37884 65.1959 7.77843 64.8003 8.07427L64.7967 8.07696C64.7754 8.0929 64.7545 8.10851 64.734 8.12378L64.7296 8.12701L64.7259 8.13104C64.3975 8.49095 63.9913 9.10167 63.8426 9.76613C63.7681 10.0991 63.7579 10.4476 63.8566 10.785C63.9555 11.1229 64.1626 11.4459 64.5166 11.729C65.222 12.293 65.9828 12.4004 66.6452 12.3059C67.3062 12.2115 67.8707 11.916 68.1903 11.6707L68.2953 11.5901L68.167 11.5688C67.9436 11.5319 67.7981 11.4716 67.7075 11.4025C67.6184 11.3347 67.5816 11.2581 67.5737 11.1815C67.5656 11.1026 67.5878 11.0172 67.629 10.9338C67.67 10.8507 67.728 10.7736 67.7855 10.7134L67.7881 10.7107L67.7903 10.7077C67.8963 10.5636 68.0569 10.5137 68.262 10.5377C68.4687 10.5618 68.7121 10.6606 68.9663 10.8034C69.4467 11.0732 69.9496 11.4909 70.2865 11.8131C69.6941 12.15 69.3072 12.4267 69.0635 12.6379C68.9371 12.7474 68.8484 12.8401 68.7894 12.9152C68.7529 12.9615 68.7257 13.0038 68.7088 13.041C67.7975 12.818 67.7828 12.8157 67.0747 12.7136L67.0727 12.7133C66.926 12.6921 66.8014 12.7206 66.6978 12.7843C66.5952 12.8475 66.5169 12.9432 66.4576 13.051C66.3406 13.2639 66.2922 13.5346 66.2805 13.7383ZM72.4607 11.9543C72.2903 11.9638 72.1682 11.9905 72.1091 12.0223L72.1013 12.0266L72.0925 12.0281C72.0416 12.0368 72.0217 12.0552 72.0133 12.071C72.0038 12.0887 71.9998 12.1196 72.0136 12.1706C72.0414 12.273 72.1302 12.4162 72.266 12.5805C72.5352 12.9061 72.9677 13.2891 73.3761 13.5539C73.8016 13.8116 74.1712 13.9642 74.4663 14.0315C74.7596 14.0983 74.9693 14.079 75.0892 14.0078C75.1773 13.915 75.2319 13.82 75.2542 13.7212C75.2769 13.6211 75.2677 13.5119 75.2191 13.3901C75.1207 13.1433 74.8637 12.8512 74.4052 12.5003C74.0159 12.2023 73.5075 12.046 73.0592 11.9836C72.8355 11.9524 72.6284 11.9449 72.4607 11.9543ZM73.0751 11.8706C73.534 11.9345 74.0622 12.0952 74.4715 12.4085C74.9331 12.7618 75.2109 13.0691 75.3211 13.3457C75.3769 13.4856 75.3903 13.6191 75.3615 13.7461C75.3329 13.8726 75.2635 13.9875 75.1619 14.0929L75.157 14.098L75.1511 14.1017C74.995 14.1989 74.7481 14.2127 74.4415 14.1427C74.1321 14.0722 73.7515 13.9141 73.3189 13.6519L73.3182 13.6515L73.3175 13.651C72.9005 13.3808 72.4591 12.9903 72.1819 12.6551C72.0446 12.489 71.942 12.33 71.9075 12.2024C71.8901 12.1384 71.8872 12.0724 71.917 12.0167C71.9465 11.9615 72.0005 11.9304 72.067 11.9173C72.1498 11.8757 72.2888 11.8499 72.4559 11.8405C72.6312 11.8307 72.8453 11.8386 73.0751 11.8706Z" fill="white"/>
<path d="M78.6085 19.8403C79.1244 18.9933 80.1589 19.5902 80.6903 19.9885C81.724 21.2642 79.7387 21.7991 79.3163 21.6317C78.8938 21.4643 77.9635 20.8992 78.6085 19.8403Z" fill="#FDF6F6"/>
<path d="M76.529 20.8189C77.5043 20.6346 78.1745 21.186 78.342 21.4276C79.2241 22.3435 76.9925 23.2557 75.4626 23.7011C74.2388 24.0575 75.0169 24.8264 75.559 25.1663C74.2867 25.4046 72.6864 25.156 72.7839 23.771C72.8851 22.3322 75.6539 20.9844 76.529 20.8189Z" fill="#FDF6F6"/>
<path fill-rule="evenodd" clip-rule="evenodd" d="M79.5404 21.7174C79.4448 21.7185 79.3591 21.7086 79.2963 21.6837C79.0807 21.5982 78.7304 21.4098 78.5164 21.1019C78.4086 20.9468 78.335 20.7608 78.3317 20.5434C78.3284 20.3262 78.3952 20.0821 78.5607 19.8105C78.6959 19.5885 78.8675 19.4578 79.0591 19.3965C79.2495 19.3355 79.4547 19.3446 79.6559 19.3927C80.057 19.4886 80.456 19.7431 80.7235 19.9435L80.7291 19.9478L80.7336 19.9533C80.9987 20.2805 81.0779 20.5701 81.0259 20.819C80.9743 21.0661 80.7966 21.258 80.5801 21.3984C80.3632 21.539 80.1009 21.6322 79.8663 21.6798C79.7489 21.7036 79.6372 21.7163 79.5404 21.7174ZM80.6516 20.0289C80.8996 20.3371 80.959 20.591 80.9164 20.7947C80.8733 21.0015 80.7221 21.1719 80.5186 21.3039C80.3157 21.4354 80.0671 21.5243 79.8428 21.5698C79.7309 21.5925 79.6263 21.6041 79.5377 21.6052C79.4478 21.6063 79.3791 21.5963 79.3363 21.5794C79.1294 21.4974 78.8033 21.3196 78.6078 21.0384C78.5109 20.899 78.4464 20.7346 78.4435 20.5431C78.4406 20.3513 78.4993 20.1277 78.6563 19.8699C78.7791 19.6684 78.9302 19.556 79.0943 19.5035C79.2596 19.4506 79.443 19.4568 79.6313 19.5018C80.0066 19.5916 80.3878 19.8318 80.6516 20.0289ZM77.8368 22.7884C77.1913 23.1908 76.245 23.5318 75.4789 23.7549C75.1776 23.8426 75.0109 23.9528 74.9308 24.0654C74.8535 24.1742 74.8512 24.2935 74.9006 24.4198C74.951 24.5485 75.0543 24.6809 75.1817 24.8037C75.3084 24.9259 75.4554 25.0354 75.5882 25.1187L75.7101 25.1951L75.57 25.2213C74.9282 25.3415 74.1988 25.3402 73.6388 25.1298C73.3581 25.0243 73.117 24.8652 72.9525 24.6395C72.7874 24.4129 72.7029 24.124 72.7281 23.7662C72.7546 23.3895 72.955 23.0245 73.2464 22.6887C73.5382 22.3524 73.9255 22.0407 74.3351 21.7703C75.153 21.2305 76.0708 20.8482 76.518 20.7637C77.514 20.5754 78.2032 21.1337 78.3851 21.392C78.4993 21.5115 78.5667 21.6346 78.5893 21.7606C78.6123 21.888 78.5884 22.0126 78.5296 22.1319C78.4134 22.3675 78.1583 22.5881 77.8368 22.7884ZM78.4793 21.7792C78.4613 21.6793 78.4065 21.5747 78.3021 21.4662L78.2989 21.4629L78.2963 21.4591C78.1392 21.2325 77.4898 20.6944 76.54 20.874C76.1121 20.9549 75.208 21.3292 74.3974 21.8643C73.9928 22.1314 73.6142 22.4368 73.3311 22.763C73.0475 23.0898 72.8638 23.4328 72.8397 23.7755C72.8161 24.1102 72.8951 24.3718 73.0424 24.574C73.1904 24.7769 73.4106 24.9247 73.6768 25.0248C74.1722 25.2109 74.8167 25.2276 75.4108 25.1346C75.3072 25.0619 75.2007 24.9768 75.1047 24.8842C74.972 24.7561 74.8556 24.6103 74.7966 24.4597C74.7367 24.3067 74.7355 24.1457 74.8395 23.9995C74.9408 23.8571 75.1358 23.7375 75.4465 23.6471C76.2101 23.4247 77.1446 23.087 77.7769 22.6929C78.0943 22.4951 78.3272 22.288 78.4292 22.0811C78.4795 21.9791 78.4972 21.8787 78.4793 21.7792Z" fill="white"/>
</svg>
