<svg width="197" height="168" viewBox="0 0 197 168" fill="none" xmlns="http://www.w3.org/2000/svg">
<path fill-rule="evenodd" clip-rule="evenodd" d="M71.3451 9.53155L73.1325 9.45831C81.288 9.12413 87.0248 12.4673 90.7751 16.2012C94.4963 19.9063 96.3056 24.0351 96.6489 25.4497L94.9837 25.7703C94.708 24.6341 93.0459 20.7567 89.5277 17.2538C86.3123 14.0524 81.5838 11.1972 74.9639 11.0106C77.4145 14.0312 78.7347 17.6013 79.3873 20.9133C80.1359 24.7121 80.0204 28.2401 79.6753 30.3564L79.5961 30.8418L72.619 32.7398L72.1138 31.2383L78.0585 29.6211C78.3196 27.6241 78.3667 24.5115 77.7085 21.1716C76.9943 17.5473 75.4634 13.7241 72.5519 10.7601L71.3451 9.53155Z" fill="#FF004D"/>
<path fill-rule="evenodd" clip-rule="evenodd" d="M97.502 51.6357C94.216 48.4833 90.5611 46.1335 88.2188 44.9433L88.9084 43.7512C91.3675 45.0008 95.1415 47.4307 98.5373 50.6885C101.927 53.9407 105.002 58.0768 105.946 62.7423L104.523 62.9941C103.654 58.6983 100.794 54.7938 97.502 51.6357Z" fill="#1D2B53"/>
<path fill-rule="evenodd" clip-rule="evenodd" d="M68.7186 80.7404C69.1992 62.2871 82.3542 48.4176 88.8884 43.7672L89.7651 44.8476C83.4373 49.3512 70.6319 62.8775 70.1658 80.7755C69.9335 89.6957 74.5533 102.599 80.5088 115.195C86.448 127.757 93.6544 139.89 98.4751 147.218L97.2431 147.928C92.3943 140.557 85.1556 128.37 79.1854 115.743C73.2315 103.151 68.4776 89.9959 68.7186 80.7404Z" fill="#1D2B53"/>
<path fill-rule="evenodd" clip-rule="evenodd" d="M114.12 59.7523C104.841 62.8272 96.9826 67.016 92.6018 69.9225L91.764 68.8153C96.249 65.8396 104.225 61.5918 113.636 58.4736C123.04 55.3573 133.944 53.347 144.253 54.9186L144.023 56.2572C134.046 54.7365 123.405 56.6756 114.12 59.7523Z" fill="#1D2B53"/>
<path fill-rule="evenodd" clip-rule="evenodd" d="M138.503 65.248C140.964 61.1729 142.53 57.2075 143.215 54.8219L144.613 55.176C143.897 57.6702 142.285 61.7416 139.764 65.9171C137.245 70.0889 133.789 74.414 129.362 77.3609L128.523 76.2549C132.711 73.4663 136.041 69.3269 138.503 65.248Z" fill="#1D2B53"/>
<path fill-rule="evenodd" clip-rule="evenodd" d="M121.319 71.6809C116.521 71.7326 110.008 73.2948 105.448 74.7395L104.982 73.4547C109.584 71.9967 116.27 70.3789 121.3 70.3248C123.777 70.2981 126.06 70.6448 127.43 71.7777C128.145 72.3691 128.585 73.1546 128.676 74.1262C128.765 75.076 128.517 76.1663 127.948 77.4006L126.619 76.861C127.133 75.7469 127.294 74.8904 127.234 74.2426C127.175 73.6167 126.908 73.1538 126.473 72.7937C125.542 72.0236 123.755 71.6547 121.319 71.6809Z" fill="#1D2B53"/>
<path fill-rule="evenodd" clip-rule="evenodd" d="M80.1012 102.882C79.8624 94.2138 82.5196 86.0963 85.0546 81.2502L86.3546 81.8486C83.9037 86.5339 81.3165 94.4358 81.5483 102.849C81.7797 111.244 84.8131 120.108 93.55 126.843L92.6314 127.889C83.4932 120.846 80.3406 111.567 80.1012 102.882Z" fill="#1D2B53"/>
<path fill-rule="evenodd" clip-rule="evenodd" d="M97.1537 134.478C98.9254 137.144 101.349 138.409 102.972 138.769L102.641 140.089C100.644 139.646 97.8985 138.163 95.9251 135.193C93.9433 132.21 92.7703 127.776 93.8312 121.47L95.2611 121.683C94.2432 127.733 95.3906 131.824 97.1537 134.478Z" fill="#1D2B53"/>
<path fill-rule="evenodd" clip-rule="evenodd" d="M97.6206 129.108C95.7979 126.853 94.608 124.05 94.0629 122.151L95.4608 121.8C95.9726 123.584 97.095 126.213 98.774 128.29C100.461 130.377 102.58 131.759 105.104 131.444L105.298 132.788C102.008 133.199 99.4349 131.352 97.6206 129.108Z" fill="#1D2B53"/>
<path fill-rule="evenodd" clip-rule="evenodd" d="M119.091 124.824C115.008 131.704 108.069 133.05 105.018 132.839L105.118 131.487C107.726 131.667 114.067 130.493 117.825 124.161L119.091 124.824Z" fill="#1D2B53"/>
<path fill-rule="evenodd" clip-rule="evenodd" d="M107.871 140.935C110.512 134.598 114.866 128.16 118.07 124.163L119.228 124.98C116.074 128.915 111.799 135.245 109.219 141.433C107.929 144.528 107.08 147.548 106.986 150.193C106.891 152.834 107.549 155.029 109.181 156.59L108.148 157.537C106.144 155.62 105.436 153.006 105.539 150.143C105.641 147.283 106.551 144.102 107.871 140.935Z" fill="#1D2B53"/>
<path fill-rule="evenodd" clip-rule="evenodd" d="M113.278 86.4977C121.969 83.1311 127.313 78.4137 128.855 76.5467L130 77.3777C128.293 79.4454 122.739 84.3015 113.834 87.7512C111.221 88.7634 108.532 90.7719 105.964 93.391C103.403 96.003 100.997 99.1851 98.9396 102.491C96.8828 105.797 95.1847 109.211 94.0324 112.281C92.8733 115.368 92.2914 118.043 92.4032 119.891L90.9579 119.965C90.8298 117.847 91.4876 114.97 92.6667 111.829C93.8527 108.67 95.5913 105.178 97.6887 101.807C99.7858 98.4361 102.251 95.1709 104.897 92.4724C107.537 89.781 110.392 87.6157 113.278 86.4977Z" fill="#1D2B53"/>
<path fill-rule="evenodd" clip-rule="evenodd" d="M93.9079 76.9774C93.5641 77.5578 93.0962 78.1396 92.6474 78.6212L91.5564 77.7282C91.9613 77.2938 92.362 76.7904 92.6421 76.3178C92.9433 75.8094 93.023 75.4717 92.9984 75.316C92.9922 75.2769 92.9843 75.2715 92.9757 75.2655C92.9749 75.2649 92.9741 75.2644 92.9734 75.2638C92.9462 75.2441 92.8432 75.1867 92.5778 75.1643C92.0318 75.1182 91.0684 75.2414 89.5008 75.7125L89.0568 74.421C90.6674 73.937 91.8594 73.7421 92.7054 73.8135C93.1361 73.8498 93.5383 73.9599 93.8578 74.1914C94.195 74.4358 94.3746 74.768 94.4302 75.1188C94.5302 75.7499 94.2307 76.4328 93.9079 76.9774Z" fill="#1D2B53"/>
<path fill-rule="evenodd" clip-rule="evenodd" d="M66.3304 83.5657C74.6719 78.6004 86.5305 75.3177 91.4536 74.3088L91.765 75.6338C86.9142 76.6278 75.2437 79.868 67.1079 84.7108L66.3304 83.5657Z" fill="#1D2B53"/>
<path fill-rule="evenodd" clip-rule="evenodd" d="M106.211 109.842C107.354 103.75 108.186 95.4008 108.601 89.5614L110.046 89.6536C109.629 95.5101 108.793 103.916 107.637 110.079C107.063 113.134 106.396 115.729 105.622 117.171C105.425 117.537 105.202 117.867 104.942 118.118C104.683 118.367 104.328 118.591 103.879 118.609C103.42 118.628 103.038 118.423 102.746 118.159C102.46 117.9 102.21 117.539 101.982 117.112L103.277 116.508C103.47 116.869 103.632 117.077 103.752 117.185C103.781 117.212 103.804 117.229 103.821 117.24C103.84 117.227 103.868 117.205 103.904 117.17C104.02 117.059 104.165 116.864 104.329 116.56C104.994 115.32 105.635 112.913 106.211 109.842ZM103.787 117.258C103.787 117.258 103.788 117.258 103.789 117.258C103.788 117.258 103.787 117.259 103.787 117.258ZM103.85 117.257C103.854 117.258 103.855 117.258 103.855 117.259C103.855 117.259 103.854 117.258 103.85 117.257Z" fill="#1D2B53"/>
<path fill-rule="evenodd" clip-rule="evenodd" d="M101.182 75.4388C101.128 74.1274 101.689 72.4376 102.183 71.3178L103.521 71.8377C103.045 72.9164 102.587 74.3812 102.628 75.3883C102.65 75.9021 102.792 76.109 102.896 76.1807C102.983 76.2404 103.274 76.3602 104.064 76.1011L104.544 77.3811C103.588 77.6949 102.704 77.7305 102.04 77.2731C101.393 76.8276 101.209 76.0842 101.182 75.4388Z" fill="#1D2B53"/>
<path fill-rule="evenodd" clip-rule="evenodd" d="M97.8744 76.1927C97.8201 74.8813 98.3813 73.1915 98.8755 72.0717L100.213 72.5916C99.7373 73.6703 99.2792 75.1351 99.3208 76.1422C99.3421 76.656 99.4845 76.8629 99.5886 76.9346C99.6754 76.9944 99.9667 77.1141 100.756 76.855L101.237 78.135C100.281 78.4488 99.3967 78.4844 98.7324 78.027C98.0854 77.5815 97.9011 76.8381 97.8744 76.1927Z" fill="#1D2B53"/>
<path fill-rule="evenodd" clip-rule="evenodd" d="M94.9954 77.8573C94.946 76.6345 95.4593 75.0634 95.9095 74.0248L97.2508 74.5368C96.8185 75.5341 96.4046 76.8841 96.4419 77.808C96.4611 78.2824 96.5906 78.455 96.6632 78.5059C96.7133 78.541 96.9462 78.6598 97.6547 78.4227L98.1433 79.7001C97.2652 79.9939 96.4296 80.0349 95.797 79.5913C95.187 79.1635 95.0196 78.4563 94.9954 77.8573Z" fill="#1D2B53"/>
<path fill-rule="evenodd" clip-rule="evenodd" d="M59.7403 87.6598C61.4444 86.3902 64.3124 84.6878 66.418 83.5138L67.1646 84.6801C65.0654 85.8505 62.2691 87.514 60.6463 88.723C60.5172 88.8191 60.3976 88.911 60.2879 88.998C60.3329 88.988 60.3794 88.9773 60.4275 88.9661L60.7873 90.2816C60.1335 90.4347 59.5998 90.5187 59.2036 90.506C59.0139 90.5 58.7579 90.4703 58.5297 90.3382C58.2411 90.1712 58.077 89.8861 58.0884 89.5709C58.0974 89.3229 58.2128 89.1164 58.302 88.9839C58.4006 88.8374 58.5284 88.6935 58.6653 88.557C58.94 88.283 59.3137 87.9776 59.7403 87.6598ZM59.1882 89.1463C59.1883 89.1463 59.1897 89.1465 59.1923 89.1471C59.1895 89.1467 59.1882 89.1464 59.1882 89.1463ZM59.514 89.735C59.5123 89.7389 59.5112 89.7409 59.5111 89.741C59.511 89.741 59.5118 89.739 59.514 89.735Z" fill="#1D2B53"/>
<path fill-rule="evenodd" clip-rule="evenodd" d="M27.4111 96.356C27.1966 104.802 28.933 113.213 32.5239 121.108C36.1149 129.004 41.4914 136.232 48.3513 142.377C55.2113 148.523 63.4199 153.465 72.5105 156.918C81.6011 160.371 91.3929 162.265 101.326 162.492C111.259 162.718 121.136 161.273 130.391 158.239C139.647 155.205 148.096 150.643 155.26 144.817C162.424 138.991 168.161 132.017 172.149 124.294C176.136 116.572 178.297 108.25 178.512 99.8041L179.476 99.8261C179.259 108.404 177.064 116.852 173.018 124.688C168.971 132.525 163.152 139.597 155.893 145.5C148.634 151.403 140.077 156.021 130.71 159.092C121.344 162.163 111.351 163.625 101.303 163.396C91.2551 163.166 81.3482 161.25 72.1483 157.756C62.9484 154.261 54.6356 149.258 47.6845 143.031C40.7334 136.803 35.2801 129.474 31.6361 121.462C27.992 113.45 26.2285 104.911 26.4463 96.334L27.4111 96.356Z" fill="#1D2B53"/>
<path d="M36.9317 90.8197C37.1016 90.7996 37.2332 90.8277 37.3266 90.9038C37.4246 90.98 37.4706 91.0843 37.4643 91.2167C37.4588 91.2828 37.4441 91.3356 37.4201 91.3751C37.396 91.4146 37.3627 91.4451 37.32 91.4667C37.2821 91.4839 37.2348 91.4988 37.1781 91.5114C37.1262 91.5196 37.0649 91.5277 36.9941 91.5357C36.9232 91.5481 36.8549 91.5451 36.7892 91.5267C36.7235 91.5039 36.6649 91.4723 36.6136 91.432C36.5622 91.3916 36.5203 91.347 36.4879 91.2981C36.4602 91.2492 36.4466 91.2004 36.4472 91.1519C36.4478 91.0989 36.4624 91.0549 36.4911 91.0199C36.5246 90.9806 36.565 90.9479 36.6124 90.922C36.6646 90.8917 36.7167 90.8702 36.7687 90.8576C36.8254 90.8406 36.8798 90.828 36.9317 90.8197Z" fill="#1D2B53"/>
<path d="M30.8107 86.6422C31.126 86.6812 31.3989 86.7108 31.6296 86.7312C31.8603 86.7471 32.0511 86.7603 32.2017 86.7709C32.376 86.7818 32.522 86.7857 32.6399 86.7826C32.7624 86.7796 32.9298 86.7705 33.1421 86.7553C33.3213 86.7442 33.5571 86.7292 33.8494 86.7106C34.1419 86.6875 34.5075 86.6564 34.9462 86.6173C34.9497 86.7189 34.9509 86.8183 34.9498 86.9154C34.9534 87.0081 34.9572 87.0899 34.9611 87.1606C34.9648 87.2445 34.9663 87.3218 34.9655 87.3924C34.9646 87.4675 34.9588 87.5623 34.948 87.677C34.9375 87.774 34.9195 87.8974 34.8942 88.0472C34.8737 88.1927 34.8411 88.3667 34.7963 88.5693C34.7331 88.3301 34.6717 88.1374 34.6122 87.991C34.5526 87.8402 34.4975 87.7203 34.4467 87.6314C34.3913 87.5292 34.3357 87.4513 34.2797 87.3977C34.2189 87.3573 34.1463 87.3233 34.0618 87.2958C33.9867 87.2729 33.8903 87.2541 33.7726 87.2395C33.6597 87.2249 33.5254 87.2256 33.3697 87.2414C33.3394 87.8239 33.3174 88.2961 33.3038 88.6579C33.2901 89.0198 33.2798 89.3023 33.2727 89.5053C33.2652 89.748 33.2608 89.9224 33.2596 90.0283C33.2626 90.1785 33.2868 90.3267 33.3322 90.4729C33.3684 90.597 33.4282 90.7257 33.5115 90.8591C33.5948 90.9925 33.7159 91.1109 33.8749 91.2143L33.0127 91.2043C32.9326 91.2034 32.8336 91.2067 32.7157 91.2141C32.6166 91.2218 32.4893 91.2292 32.3337 91.2362C32.1828 91.2433 32.0059 91.2567 31.8031 91.2764C31.8751 91.1624 31.9328 91.0593 31.9763 90.9671C32.0198 90.8749 32.0537 90.7958 32.078 90.7299C32.1072 90.6508 32.1292 90.5804 32.1441 90.5187C32.1498 90.4305 32.1637 90.2518 32.1857 89.9828C32.1917 89.8725 32.198 89.7357 32.2046 89.5724C32.2159 89.4091 32.2276 89.215 32.2396 88.99C32.2563 88.765 32.2711 88.5069 32.2839 88.2156C32.3015 87.92 32.3195 87.5869 32.3379 87.2162C32.2534 87.1932 32.1733 87.1944 32.0976 87.22C32.0219 87.2412 31.9556 87.2692 31.8987 87.3038C31.8322 87.3472 31.768 87.3995 31.706 87.4605C31.6439 87.5349 31.5744 87.6312 31.4976 87.7495C31.4305 87.8503 31.3535 87.9841 31.2668 88.1508C31.1801 88.3132 31.0811 88.5151 30.9699 88.7567C30.9493 88.5004 30.9353 88.2905 30.9278 88.127C30.9203 87.9592 30.9147 87.8289 30.9111 87.7361C30.9077 87.6257 30.9062 87.544 30.9069 87.491C30.9074 87.4424 30.9035 87.3784 30.895 87.2988C30.8863 87.2325 30.8755 87.1463 30.8626 87.0401C30.8498 86.9296 30.8324 86.797 30.8107 86.6422Z" fill="#1D2B53"/>
<path d="M29.5401 86.6132C29.4725 86.7537 29.4122 86.8766 29.3591 86.9819C29.3061 87.0873 29.2603 87.1773 29.2217 87.2519C29.1783 87.3353 29.1421 87.4099 29.1131 87.4758C29.0889 87.5241 29.0575 87.5899 29.0189 87.6734C28.9803 87.748 28.932 87.8468 28.8741 87.9697C28.8208 88.0883 28.7507 88.242 28.6637 88.4309C28.6232 88.267 28.573 88.123 28.5132 87.9986C28.4534 87.8743 28.3887 87.7654 28.3191 87.6719C28.2495 87.5783 28.175 87.5024 28.0955 87.4441C28.0209 87.3814 27.9461 87.3298 27.8711 87.2892C27.6978 87.1989 27.5146 87.1482 27.3215 87.1371C27.0669 87.1474 26.8662 87.1848 26.7194 87.2493C26.5773 87.3095 26.4728 87.3811 26.4059 87.4642C26.339 87.5429 26.3027 87.6264 26.2969 87.7146C26.2912 87.7985 26.3022 87.8692 26.3298 87.9269C26.3527 87.9802 26.4345 88.043 26.575 88.1152C26.7203 88.1876 26.8937 88.2712 27.0952 88.3663C27.3015 88.457 27.5218 88.5611 27.756 88.6786C27.9903 88.7917 28.2057 88.9178 28.402 89.057C28.603 89.1918 28.771 89.3394 28.9058 89.4999C29.0453 89.6561 29.1212 89.8225 29.1333 89.9993C29.1448 90.2246 29.1401 90.4276 29.1191 90.6084C29.0982 90.7892 29.0304 90.9429 28.9158 91.0697C28.8013 91.1964 28.6234 91.2958 28.3822 91.3681C28.1458 91.4404 27.8177 91.483 27.3982 91.4958C26.9645 91.5084 26.609 91.4822 26.3317 91.4172C26.0544 91.3521 25.8292 91.2656 25.6561 91.1577C25.4877 91.0497 25.3619 90.9313 25.2785 90.8023C25.1999 90.6733 25.1424 90.5512 25.1061 90.436C25.0698 90.3164 25.045 90.2145 25.0319 90.1305C25.0187 90.0421 24.9958 89.9888 24.963 89.9708C24.9256 89.9483 24.8881 89.9279 24.8506 89.9099C24.8178 89.8918 24.7827 89.876 24.7451 89.8623C24.7077 89.8442 24.6701 89.8283 24.6326 89.8146L26.6929 89.5272C26.5741 89.6142 26.4813 89.6948 26.4145 89.7691C26.3523 89.8434 26.3044 89.9091 26.2708 89.9661C26.2323 90.0319 26.2057 90.0934 26.1909 90.1506C26.1808 90.2123 26.2011 90.2898 26.2518 90.3831C26.3026 90.4764 26.3722 90.5677 26.4607 90.657C26.554 90.742 26.6615 90.8139 26.7834 90.8727C26.9052 90.9315 27.0321 90.9573 27.1642 90.95C27.3292 90.9387 27.464 90.9027 27.5683 90.8421C27.6728 90.7771 27.7515 90.6963 27.8044 90.5998C27.8621 90.5033 27.8963 90.3978 27.9071 90.2831C27.9178 90.1684 27.9073 90.0557 27.8756 89.945C27.8487 89.8298 27.8028 89.7234 27.738 89.6255C27.6732 89.5232 27.5964 89.4384 27.5077 89.3711C27.4282 89.3172 27.3039 89.265 27.1348 89.2145C26.9705 89.164 26.785 89.1089 26.5783 89.0491C26.3764 88.9893 26.1675 88.9207 25.9516 88.8431C25.7404 88.7656 25.5483 88.6707 25.3753 88.5583C25.2069 88.4459 25.0718 88.3141 24.9699 88.1628C24.8727 88.0116 24.8371 87.8301 24.8631 87.6185C24.884 87.4377 24.947 87.2884 25.0521 87.1704C25.1619 87.048 25.2973 86.9525 25.4583 86.8837C25.6241 86.8105 25.8061 86.7575 26.0045 86.7244C26.2075 86.6915 26.4127 86.674 26.62 86.672C26.8322 86.6656 27.0395 86.6702 27.2419 86.6858C27.4491 86.7015 27.635 86.7191 27.7998 86.7387C27.9645 86.7582 28.1033 86.7775 28.2161 86.7965C28.3338 86.8111 28.4067 86.8208 28.4349 86.8255C28.5573 86.8358 28.6799 86.835 28.8025 86.8231C28.911 86.8156 29.029 86.7971 29.1566 86.7676C29.289 86.7339 29.4168 86.6824 29.5401 86.6132Z" fill="#1D2B53"/>
<path d="M18.8936 86.8154C19.2233 86.8281 19.4965 86.8379 19.7132 86.8448C19.9346 86.8474 20.1137 86.8495 20.2503 86.851L20.6249 86.8554L22.7311 86.8798C22.7395 86.9682 22.7456 87.0544 22.7493 87.1383C22.7578 87.2179 22.7617 87.2886 22.761 87.3504C22.7602 87.4254 22.757 87.4938 22.7516 87.5556C22.7461 87.6173 22.7383 87.6835 22.7281 87.754C22.7179 87.8157 22.7077 87.8818 22.6975 87.9523C22.6872 88.0229 22.6699 88.0955 22.6455 88.1703C22.5823 87.9311 22.4949 87.7491 22.3832 87.6242C22.2763 87.4993 22.1666 87.4075 22.0542 87.3488C21.923 87.2811 21.7844 87.2441 21.6384 87.238C21.4451 87.2446 21.2941 87.2583 21.1855 87.2791C21.0769 87.2999 20.9917 87.3299 20.93 87.3689C20.8683 87.4079 20.8206 87.4537 20.787 87.5063C20.7582 87.5545 20.7269 87.6094 20.6932 87.6708C20.6643 87.7234 20.6375 87.8048 20.6126 87.9149C20.588 88.0073 20.563 88.1329 20.5376 88.2915C20.5169 88.4502 20.4933 88.6553 20.4668 88.9066C20.5945 88.8728 20.6961 88.8408 20.7719 88.8108C20.8524 88.7808 20.9163 88.7551 20.9636 88.7336C21.0158 88.7077 21.0538 88.6838 21.0776 88.662C21.0967 88.6358 21.1256 88.5875 21.1641 88.5173C21.1931 88.4559 21.2317 88.3724 21.2801 88.267C21.3331 88.1617 21.3961 88.0167 21.4689 87.8321C21.476 88.0353 21.4787 88.2053 21.4771 88.3422C21.4756 88.4746 21.4767 88.5828 21.4804 88.6667C21.4793 88.7638 21.4808 88.8411 21.4848 88.8986L21.4819 89.1502C21.4808 89.2429 21.4794 89.3687 21.4775 89.5276C21.4804 89.6822 21.4852 89.8787 21.4919 90.1172C21.4372 89.9532 21.3869 89.8246 21.3408 89.7314C21.2996 89.6337 21.2627 89.5605 21.2303 89.5115C21.1933 89.4537 21.1607 89.4136 21.1327 89.3912C21.0999 89.382 21.0552 89.3726 20.9988 89.3631C20.947 89.3581 20.881 89.3551 20.8009 89.3542C20.7255 89.3533 20.6288 89.3633 20.5108 89.384C20.4938 89.6266 20.4892 89.823 20.4969 89.9732C20.5093 90.1191 20.5268 90.2319 20.5495 90.3116C20.572 90.4046 20.5995 90.4711 20.632 90.5112C20.6739 90.5515 20.7584 90.5856 20.8853 90.6135C21.0122 90.6371 21.1559 90.6476 21.3161 90.645C21.4811 90.6381 21.6487 90.6135 21.8188 90.5714C21.989 90.5292 22.1406 90.4581 22.2737 90.3581C22.3736 90.2754 22.4809 90.1707 22.5955 90.0439C22.691 89.9347 22.7963 89.7968 22.9113 89.6304C23.031 89.464 23.1488 89.2623 23.2647 89.0252C23.2435 89.2236 23.2275 89.389 23.2165 89.5213C23.2103 89.6493 23.202 89.753 23.1917 89.8323C23.1812 89.9249 23.1733 89.9955 23.168 90.044C23.1674 90.0969 23.1595 90.1719 23.1442 90.2689C23.1338 90.3526 23.116 90.4672 23.0907 90.6126C23.0703 90.7537 23.0422 90.9344 23.0067 91.1547C22.7852 91.1566 22.5755 91.1585 22.3775 91.1607C22.1796 91.1584 22.0052 91.1585 21.8544 91.1612C21.6753 91.1635 21.5103 91.166 21.3595 91.1687C21.204 91.1669 21.032 91.1715 20.8433 91.1826C20.6783 91.1895 20.4826 91.2005 20.2562 91.2155C20.0346 91.2306 19.7893 91.252 19.5203 91.2798C19.5474 90.9799 19.5672 90.6976 19.5797 90.4328C19.5969 90.1637 19.6091 89.9276 19.6162 89.7246C19.6236 89.4863 19.6262 89.2655 19.6238 89.0624C19.6533 88.555 19.6486 88.1443 19.6099 87.8304C19.5711 87.5165 19.5239 87.315 19.4684 87.2261C19.4405 87.1949 19.4009 87.1569 19.3496 87.1121C19.3076 87.0763 19.2492 87.0337 19.1743 86.9843C19.0995 86.9348 19.0059 86.8785 18.8936 86.8154Z" fill="#1D2B53"/>
<path fill-rule="evenodd" clip-rule="evenodd" d="M37.3269 90.9031C37.2335 90.8269 37.1019 90.7989 36.932 90.819C36.8801 90.8272 36.8258 90.8398 36.769 90.8568C36.717 90.8695 36.6649 90.891 36.6128 90.9213C36.5653 90.9472 36.5249 90.9798 36.4915 91.0192C36.4628 91.0542 36.4481 91.0982 36.4475 91.1511C36.4469 91.1997 36.4605 91.2484 36.4882 91.2973C36.5206 91.3463 36.5625 91.3909 36.6139 91.4312C36.6653 91.4716 36.7238 91.5031 36.7895 91.526C36.8553 91.5444 36.9236 91.5474 36.9944 91.535C37.0652 91.527 37.1266 91.5189 37.1785 91.5106C37.2352 91.498 37.2825 91.4831 37.3204 91.4659C37.363 91.4443 37.3964 91.4138 37.4204 91.3744C37.4444 91.3349 37.4592 91.2821 37.4647 91.2159C37.4709 91.0835 37.425 90.9792 37.3269 90.9031ZM37.483 90.7309C37.3204 90.5995 37.1114 90.5699 36.9014 90.5947L36.8964 90.5953L36.8915 90.5961C36.8289 90.606 36.7654 90.6208 36.7012 90.6398C36.6262 90.6587 36.5551 90.6889 36.4881 90.7275C36.4167 90.767 36.3544 90.8173 36.3026 90.8782L36.3013 90.8798L36.3 90.8813C36.2336 90.9624 36.2073 91.0565 36.2063 91.1483C36.2052 91.2397 36.2312 91.3255 36.2752 91.4031L36.279 91.4098L36.2833 91.4163C36.3304 91.4874 36.3898 91.55 36.4591 91.6044C36.5326 91.6621 36.6155 91.7065 36.7059 91.7379L36.7132 91.7404L36.7207 91.7425C36.8225 91.771 36.9269 91.7756 37.0308 91.7586C37.1012 91.7505 37.1642 91.7422 37.2191 91.7335L37.2268 91.7323L37.2345 91.7306C37.3023 91.7155 37.3675 91.6959 37.4259 91.6693L37.4306 91.6672L37.4352 91.6649C37.5175 91.6232 37.5837 91.5627 37.63 91.4866C37.6778 91.408 37.6981 91.3191 37.7052 91.2338L37.7055 91.23L37.7057 91.2263C37.7148 91.033 37.6448 90.8577 37.483 90.7309Z" fill="white"/>
<path d="M187.446 92.4024C187.457 92.6738 187.402 92.9015 187.279 93.0854L186.497 93.0696L186.402 94.4384L185.981 94.5284C185.722 94.4079 185.512 94.202 185.351 93.9108L185.578 93.0521L184.341 93.031C184.277 93.1568 184.203 93.2758 184.119 93.3878C184.036 93.4954 183.953 93.5735 183.871 93.6223C183.77 93.5895 183.669 93.516 183.569 93.4018C183.469 93.2831 183.381 93.151 183.306 93.0054C183.235 92.8554 183.189 92.7192 183.166 92.5969C183.221 92.4483 183.312 92.3183 183.438 92.2067L183.807 92.2313L184.881 89.5514L185.142 89.5206C185.247 89.5986 185.34 89.7037 185.42 89.8357C185.506 89.9633 185.557 90.0837 185.575 90.197L184.558 92.396L185.723 92.396L185.835 90.9121L186.068 90.7791C186.15 90.7937 186.248 90.8423 186.363 90.925C186.478 91.0032 186.566 91.0743 186.628 91.1383L186.541 92.3987L187.446 92.4024Z" fill="#1D2B53"/>
<path d="M179.381 93.4224L181.551 93.59C181.549 93.703 181.521 93.8202 181.467 93.9417C181.417 94.0632 181.353 94.1732 181.275 94.2717C181.201 94.3658 181.128 94.4328 181.055 94.4726L179.265 94.0789C179.163 94.15 179.041 94.2164 178.901 94.2781C178.76 94.3398 178.598 94.3944 178.414 94.442C178.294 94.3502 178.204 94.2406 178.142 94.1133C178.081 93.9815 178.03 93.8272 177.989 93.6504C178.344 93.3832 178.687 93.1069 179.019 92.8214C179.35 92.5314 179.65 92.2523 179.919 91.9841C180.187 91.716 180.402 91.4788 180.564 91.2727C180.604 91.1421 180.63 90.9955 180.642 90.8328C180.658 90.6703 180.655 90.5188 180.632 90.3784C180.435 90.2947 180.212 90.2491 179.961 90.2417C179.715 90.2298 179.485 90.2611 179.272 90.3354L179.181 91.3042C179.075 91.3346 178.959 91.3536 178.833 91.3612C178.708 91.3642 178.599 91.3494 178.508 91.3167L178.376 90.1759C178.45 90.0682 178.536 89.9652 178.633 89.8669C178.731 89.764 178.821 89.6792 178.904 89.6123C179.262 89.5215 179.572 89.4731 179.832 89.4671C180.098 89.4611 180.372 89.4869 180.656 89.5445C180.867 89.678 181.037 89.8134 181.166 89.9505C181.294 90.0876 181.409 90.2359 181.508 90.3953L181.422 91.5404C181.29 91.7378 181.114 91.946 180.894 92.165C180.679 92.384 180.44 92.6028 180.177 92.8213C179.914 93.0352 179.649 93.2356 179.381 93.4224Z" fill="#1D2B53"/>
<path d="M175.323 89.5086C175.414 89.5729 175.509 89.6532 175.609 89.7493C175.715 89.8454 175.812 89.9438 175.903 90.0443C175.993 90.1448 176.062 90.2405 176.109 90.3315L175.95 93.4493C175.882 93.5389 175.794 93.6373 175.686 93.7446C175.579 93.8518 175.464 93.9545 175.342 94.0526C175.221 94.1461 175.104 94.2261 174.992 94.2926L173.646 94.277C173.569 94.2671 173.468 94.2297 173.343 94.165C173.219 94.1002 173.089 94.0219 172.955 93.9299C172.821 93.8334 172.704 93.7348 172.604 93.6342C172.504 93.5291 172.44 93.4356 172.412 93.3539L172.642 90.3252C172.691 90.2489 172.76 90.1593 172.848 90.0563C172.941 89.9489 173.041 89.8461 173.148 89.7478C173.256 89.6451 173.353 89.5603 173.441 89.4935C173.794 89.4343 174.125 89.4065 174.434 89.4101C174.747 89.4092 175.044 89.442 175.323 89.5086ZM175.14 90.2931C174.904 90.2407 174.646 90.2151 174.366 90.2163C174.091 90.2177 173.835 90.2509 173.598 90.3159C173.518 90.5591 173.452 90.8477 173.4 91.1817C173.352 91.5112 173.322 91.8431 173.308 92.1775L175.207 90.7279C175.199 90.651 175.187 90.5763 175.174 90.5038C175.165 90.4268 175.154 90.3566 175.14 90.2931ZM173.401 93.5757L175.039 93.3437C175.105 93.0913 175.154 92.798 175.187 92.4638C175.225 92.1252 175.243 91.7886 175.242 91.454L173.314 92.9304C173.322 93.0571 173.333 93.1747 173.346 93.2834C173.364 93.3876 173.383 93.485 173.401 93.5757Z" fill="#1D2B53"/>
<path d="M168.202 93.2915L170.372 93.4591C170.371 93.5721 170.343 93.6894 170.288 93.8108C170.239 93.9323 170.175 94.0423 170.096 94.1409C170.023 94.235 169.95 94.3019 169.877 94.3418L168.086 93.948C167.984 94.0192 167.863 94.0856 167.722 94.1472C167.581 94.2089 167.419 94.2635 167.235 94.3111C167.116 94.2193 167.025 94.1098 166.964 93.9825C166.903 93.8506 166.851 93.6963 166.81 93.5195C167.165 93.2524 167.509 92.976 167.84 92.6905C168.172 92.4005 168.472 92.1214 168.74 91.8533C169.009 91.5851 169.224 91.348 169.386 91.1419C169.426 91.0112 169.452 90.8646 169.463 90.702C169.479 90.5394 169.476 90.3879 169.454 90.2475C169.257 90.1638 169.033 90.1183 168.782 90.1109C168.536 90.099 168.307 90.1302 168.094 90.2046L168.003 91.1733C167.896 91.2037 167.78 91.2227 167.655 91.2303C167.529 91.2334 167.421 91.2186 167.329 91.1858L167.198 90.045C167.271 89.9373 167.357 89.8343 167.455 89.736C167.552 89.6332 167.643 89.5483 167.726 89.4815C168.084 89.3907 168.393 89.3423 168.654 89.3362C168.919 89.3303 169.194 89.3561 169.478 89.4136C169.689 89.5472 169.859 89.6825 169.987 89.8197C170.116 89.9568 170.23 90.105 170.33 90.2644L170.244 91.4096C170.111 91.6069 169.935 91.8151 169.715 92.0341C169.501 92.2532 169.262 92.4719 168.998 92.6904C168.735 92.9044 168.47 93.1047 168.202 93.2915Z" fill="#1D2B53"/>
<path fill-rule="evenodd" clip-rule="evenodd" d="M187.678 92.1779L187.687 92.3945C187.7 92.6998 187.638 92.975 187.483 93.2061L187.411 93.3148L186.723 93.3008L186.631 94.6219L185.951 94.7673L185.874 94.7314C185.56 94.5853 185.316 94.3398 185.137 94.0149L185.095 93.9392L185.271 93.2735L184.487 93.2601C184.435 93.3493 184.379 93.4352 184.317 93.5178L184.316 93.5196L184.315 93.5213C184.221 93.6425 184.117 93.7448 183.999 93.8142L183.901 93.8721L183.792 93.8364C183.633 93.7849 183.498 93.6777 183.383 93.5456L183.381 93.5439L183.38 93.5422C183.268 93.4099 183.172 93.2637 183.089 93.1046L183.087 93.1008L183.085 93.097C183.009 92.9351 182.955 92.781 182.928 92.6359L182.918 92.5784L182.938 92.5233C183.006 92.3389 183.119 92.178 183.273 92.0424L183.35 91.9748L183.644 91.9944L184.706 89.3448L185.211 89.285L185.291 89.344C185.424 89.4425 185.535 89.5701 185.627 89.7204C185.723 89.8653 185.79 90.0138 185.814 90.1646L185.824 90.2285L184.926 92.1705L185.498 92.1705L185.603 90.7801L186.021 90.5415L186.112 90.5576C186.249 90.5818 186.382 90.6548 186.507 90.7445C186.628 90.8269 186.73 90.9078 186.807 90.9871L186.876 91.0582L186.799 92.1743L187.678 92.1779ZM186.541 92.3993L187.446 92.403C187.448 92.4521 187.448 92.4998 187.446 92.5461C187.444 92.5742 187.442 92.6019 187.439 92.629C187.419 92.8033 187.366 92.9556 187.279 93.086L186.497 93.0701L186.402 94.4389L185.981 94.529C185.722 94.4084 185.512 94.2026 185.351 93.9113L185.578 93.0527L184.341 93.0315C184.277 93.1574 184.203 93.2763 184.119 93.3884C184.036 93.496 183.953 93.5741 183.871 93.6229C183.77 93.5901 183.669 93.5166 183.569 93.4024C183.469 93.2837 183.381 93.1515 183.306 93.006C183.235 92.856 183.189 92.7198 183.166 92.5974C183.221 92.4489 183.311 92.3188 183.438 92.2073L183.807 92.2319L184.881 89.552L185.141 89.5211C185.247 89.5992 185.34 89.7043 185.42 89.8363C185.506 89.9639 185.557 90.0843 185.575 90.1976L184.558 92.3966L185.723 92.3965L185.835 90.9126L186.068 90.7797C186.15 90.7942 186.248 90.8428 186.363 90.9256C186.478 91.0038 186.566 91.0749 186.628 91.1389L186.541 92.3993Z" fill="white"/>
<path fill-rule="evenodd" clip-rule="evenodd" d="M179.832 89.4658C180.098 89.4598 180.373 89.4856 180.657 89.5432C180.867 89.6767 181.037 89.8121 181.166 89.9492C181.295 90.0863 181.409 90.2346 181.508 90.394L181.423 91.5391C181.29 91.7365 181.114 91.9447 180.894 92.1637C180.679 92.3827 180.44 92.6015 180.177 92.8199C180.008 92.9577 179.837 93.0898 179.666 93.2163C179.571 93.2863 179.476 93.3545 179.381 93.4211L181.551 93.5887C181.55 93.6251 181.547 93.6619 181.541 93.6992C181.535 93.7366 181.526 93.7744 181.515 93.8127C181.502 93.8547 181.486 93.8973 181.467 93.9403C181.417 94.0618 181.353 94.1719 181.275 94.2704C181.202 94.3645 181.128 94.4315 181.056 94.4713L179.265 94.0775C179.163 94.1487 179.041 94.2151 178.901 94.2768C178.76 94.3384 178.598 94.3931 178.414 94.4407C178.294 94.3488 178.204 94.2393 178.143 94.112C178.081 93.9802 178.03 93.8259 177.989 93.649C178.344 93.3819 178.688 93.1056 179.019 92.8201C179.35 92.53 179.65 92.251 179.919 91.9828C180.188 91.7146 180.403 91.4775 180.564 91.2714C180.604 91.1408 180.63 90.9941 180.642 90.8315C180.658 90.6689 180.655 90.5174 180.633 90.377C180.436 90.2934 180.212 90.2478 179.961 90.2404C179.715 90.2285 179.485 90.2597 179.272 90.3341L179.181 91.3028C179.075 91.3333 178.959 91.3523 178.833 91.3598C178.708 91.3629 178.599 91.3481 178.508 91.3154L178.377 90.1745C178.45 90.0669 178.536 89.9639 178.633 89.8655C178.731 89.7627 178.821 89.6778 178.904 89.611C179.262 89.5202 179.572 89.4718 179.832 89.4658ZM178.455 89.7133C178.349 89.8205 178.255 89.9335 178.173 90.0524L178.128 90.1193L178.284 91.477L178.422 91.5265C178.55 91.5723 178.691 91.5894 178.84 91.5858L178.845 91.5857L178.849 91.5854C178.991 91.5769 179.126 91.5552 179.252 91.5191L179.407 91.4747L179.498 90.5047C179.639 90.4716 179.788 90.4584 179.949 90.4661L179.951 90.4662L179.954 90.4663C180.123 90.4713 180.274 90.4956 180.408 90.5371C180.413 90.6221 180.411 90.713 180.402 90.81L180.401 90.8131L180.401 90.8162C180.392 90.9492 180.372 91.0671 180.343 91.1706C180.192 91.3596 179.993 91.5786 179.743 91.828C179.479 92.0918 179.183 92.3672 178.855 92.6541C178.528 92.936 178.189 93.2088 177.838 93.4727L177.721 93.5603L177.753 93.6971C177.797 93.8848 177.853 94.0537 177.921 94.2019L177.923 94.2046C178 94.365 178.114 94.5023 178.261 94.6154L178.358 94.6897L178.478 94.6586C178.673 94.6083 178.848 94.5496 179.003 94.4815C179.116 94.4319 179.22 94.3784 179.315 94.3206L181.094 94.712L181.177 94.6666C181.289 94.6057 181.385 94.5128 181.469 94.4048C181.56 94.29 181.634 94.163 181.691 94.025C181.755 93.8821 181.79 93.7371 181.792 93.5915L181.794 93.3807L180.016 93.2433C180.123 93.1613 180.229 93.0771 180.335 92.9907L180.337 92.9892C180.606 92.7665 180.85 92.5426 181.071 92.3177C181.298 92.0913 181.484 91.872 181.627 91.6597L181.659 91.6118L181.754 90.3404L181.716 90.2801C181.609 90.1083 181.486 89.9482 181.347 89.8001C181.201 89.6448 181.015 89.4972 180.792 89.356L180.753 89.3315L180.707 89.3222C180.406 89.2612 180.113 89.2334 179.826 89.2398C179.54 89.2464 179.21 89.2991 178.841 89.3928L178.788 89.4062L178.747 89.4397C178.654 89.5143 178.557 89.6061 178.455 89.7133Z" fill="white"/>
<path fill-rule="evenodd" clip-rule="evenodd" d="M175.429 89.3021L175.468 89.3296C175.57 89.4018 175.674 89.4894 175.78 89.5909C175.89 89.6913 175.992 89.7943 176.087 89.9C176.187 90.0108 176.268 90.1222 176.326 90.2343L176.353 90.2863L176.188 93.5283L176.146 93.5825C176.07 93.6823 175.975 93.7884 175.862 93.9007C175.749 94.014 175.628 94.1222 175.5 94.2254L175.498 94.2271L175.496 94.2287C175.368 94.327 175.243 94.4126 175.122 94.4848L175.061 94.5208L173.628 94.5042L173.614 94.5023C173.492 94.4866 173.359 94.4329 173.227 94.364C173.092 94.2939 172.954 94.2102 172.813 94.1135L172.811 94.112L172.808 94.1104C172.665 94.0074 172.538 93.9006 172.428 93.7896L172.426 93.7877L172.424 93.7859C172.314 93.6704 172.225 93.5492 172.182 93.4241L172.168 93.3824L172.406 90.2559L172.436 90.2095C172.492 90.1217 172.568 90.0235 172.66 89.9161L172.661 89.9151C172.759 89.8015 172.865 89.6928 172.978 89.5891C173.089 89.4831 173.192 89.3927 173.289 89.3194L173.337 89.2826L173.398 89.2723C173.763 89.2111 174.109 89.1817 174.434 89.1854C174.766 89.1846 175.082 89.2193 175.382 89.2908L175.429 89.3021ZM175.323 89.5099C175.414 89.5742 175.509 89.6545 175.61 89.7506C175.715 89.8467 175.812 89.9451 175.903 90.0456C175.993 90.1461 176.062 90.2419 176.109 90.3328L175.95 93.4506C175.882 93.5402 175.794 93.6386 175.686 93.7459C175.579 93.8532 175.464 93.9558 175.342 94.0539C175.221 94.1474 175.104 94.2274 174.992 94.2939L173.646 94.2783C173.569 94.2684 173.468 94.2311 173.343 94.1663C173.219 94.1016 173.089 94.0232 172.955 93.9312C172.821 93.8347 172.704 93.7362 172.604 93.6355C172.504 93.5304 172.44 93.437 172.412 93.3553L172.642 90.3265C172.691 90.2502 172.76 90.1606 172.848 90.0576C172.941 89.9502 173.041 89.8474 173.148 89.7491C173.256 89.6464 173.353 89.5616 173.441 89.4948C173.794 89.4356 174.125 89.4078 174.434 89.4114C174.747 89.4105 175.044 89.4434 175.323 89.5099ZM174.935 90.5364L174.934 90.5287C174.932 90.5136 174.93 90.4989 174.928 90.4845C174.756 90.4566 174.569 90.4428 174.368 90.4437C174.162 90.4447 173.97 90.4649 173.792 90.5035C173.732 90.7073 173.681 90.944 173.639 91.2147C173.617 91.3682 173.598 91.5223 173.584 91.6769L174.951 90.6329C174.947 90.6028 174.942 90.5732 174.936 90.544L174.935 90.5364ZM175.207 90.7293L173.308 92.1789C173.313 92.077 173.318 91.9754 173.326 91.874C173.342 91.6425 173.367 91.4122 173.4 91.183C173.452 90.849 173.518 90.5605 173.598 90.3172C173.835 90.2522 174.091 90.219 174.366 90.2177C174.646 90.2164 174.904 90.242 175.14 90.2945C175.154 90.3579 175.165 90.4281 175.174 90.5051C175.187 90.5776 175.199 90.6523 175.207 90.7293ZM174.947 92.4414C174.966 92.2743 174.98 92.1077 174.989 91.9418L173.563 93.0331C173.57 93.111 173.577 93.1847 173.585 93.2541C173.589 93.2766 173.593 93.2987 173.597 93.3205L174.84 93.1446C174.885 92.9391 174.921 92.7058 174.947 92.4441L174.947 92.4414ZM175.039 93.3451L173.401 93.577C173.383 93.4863 173.364 93.3889 173.346 93.2847C173.333 93.1761 173.322 93.0584 173.314 92.9317L175.242 91.4553C175.243 91.5536 175.241 91.652 175.238 91.7507C175.231 91.9878 175.214 92.226 175.187 92.4651C175.154 92.7993 175.105 93.0926 175.039 93.3451Z" fill="white"/>
<path fill-rule="evenodd" clip-rule="evenodd" d="M168.654 89.3359C168.919 89.3299 169.194 89.3557 169.478 89.4133C169.689 89.5468 169.858 89.6822 169.987 89.8193C170.116 89.9564 170.23 90.1047 170.329 90.2641L170.244 91.4092C170.111 91.6066 169.935 91.8148 169.715 92.0338C169.501 92.2528 169.262 92.4716 168.998 92.6901C168.829 92.8278 168.659 92.9599 168.488 93.0864C168.393 93.1564 168.298 93.2247 168.202 93.2912L170.372 93.4588C170.372 93.4952 170.368 93.5321 170.362 93.5694C170.357 93.6067 170.348 93.6445 170.336 93.6828C170.324 93.7248 170.308 93.7674 170.288 93.8105C170.239 93.9319 170.175 94.042 170.096 94.1405C170.023 94.2346 169.95 94.3016 169.877 94.3414L168.086 93.9477C167.984 94.0188 167.863 94.0852 167.722 94.1469C167.581 94.2085 167.419 94.2632 167.235 94.3108C167.116 94.219 167.025 94.1094 166.964 93.9821C166.903 93.8503 166.851 93.696 166.81 93.5192C167.165 93.252 167.509 92.9757 167.84 92.6902C168.172 92.4002 168.472 92.1211 168.74 91.8529C169.009 91.5848 169.224 91.3476 169.386 91.1415C169.426 91.0109 169.451 90.8643 169.463 90.7016C169.479 90.5391 169.476 90.3876 169.454 90.2471C169.257 90.1635 169.033 90.1179 168.782 90.1105C168.536 90.0986 168.307 90.1299 168.094 90.2042L168.003 91.173C167.896 91.2034 167.78 91.2224 167.655 91.23C167.529 91.233 167.421 91.2182 167.329 91.1855L167.198 90.0446C167.271 89.937 167.357 89.834 167.455 89.7357C167.552 89.6328 167.643 89.548 167.725 89.4811C168.084 89.3903 168.393 89.3419 168.654 89.3359ZM167.276 89.5834C167.17 89.6906 167.076 89.8036 166.995 89.9225L166.949 89.9894L167.105 91.3471L167.243 91.3966C167.371 91.4424 167.513 91.4596 167.661 91.4559L167.666 91.4558L167.67 91.4555C167.812 91.447 167.947 91.4253 168.073 91.3892L168.229 91.3448L168.32 90.3748C168.46 90.3417 168.61 90.3285 168.77 90.3362L168.773 90.3364L168.775 90.3364C168.944 90.3414 169.095 90.3657 169.229 90.4072C169.235 90.4922 169.233 90.5831 169.223 90.6801L169.223 90.6832L169.222 90.6863C169.213 90.8193 169.193 90.9372 169.165 91.0407C169.014 91.2298 168.814 91.4487 168.564 91.6981C168.3 91.962 168.004 92.2373 167.676 92.5243C167.349 92.8061 167.01 93.0789 166.659 93.3428L166.542 93.4304L166.574 93.5673C166.618 93.7549 166.674 93.9238 166.743 94.072L166.744 94.0747C166.821 94.2351 166.935 94.3724 167.082 94.4855L167.179 94.5599L167.3 94.5287C167.494 94.4784 167.669 94.4197 167.825 94.3516C167.938 94.3021 168.042 94.2486 168.136 94.1907L169.916 94.5821L169.999 94.5367C170.11 94.4758 170.206 94.3829 170.29 94.2749C170.382 94.16 170.455 94.033 170.512 93.8949C170.576 93.7521 170.612 93.6071 170.613 93.4616L170.616 93.2508L168.837 93.1134C168.944 93.0314 169.051 92.9472 169.157 92.8609L169.159 92.8593C169.427 92.6366 169.671 92.4128 169.892 92.1878C170.119 91.9614 170.305 91.7421 170.448 91.5298L170.48 91.4819L170.575 90.2106L170.538 90.1502C170.43 89.9784 170.307 89.8183 170.168 89.6702C170.023 89.515 169.836 89.3674 169.613 89.2261L169.574 89.2016L169.529 89.1923C169.228 89.1314 168.934 89.1035 168.648 89.1099C168.361 89.1165 168.032 89.1692 167.662 89.2629L167.609 89.2763L167.568 89.3098C167.475 89.3845 167.378 89.4763 167.276 89.5834Z" fill="white"/>
<path fill-rule="evenodd" clip-rule="evenodd" d="M178.356 63.6337C174.626 63.8745 170.829 64.5117 168.48 65.0245L168.053 63.5022C170.472 62.9741 174.362 62.321 178.202 62.073C180.122 61.9491 182.05 61.9251 183.785 62.0744C185.505 62.2224 187.11 62.5464 188.336 63.165L187.536 64.532C186.615 64.0676 185.284 63.7719 183.659 63.632C182.048 63.4934 180.22 63.5133 178.356 63.6337Z" fill="#FF004D"/>
<path fill-rule="evenodd" clip-rule="evenodd" d="M178.644 67.516L187.825 63.6262L188.571 65.0469L179.39 68.9366L178.644 67.516Z" fill="#FF004D"/>
<path fill-rule="evenodd" clip-rule="evenodd" d="M182.062 71.2153C179.501 73.838 176.526 76.1908 174.576 77.5489L175.63 78.7996C177.647 77.3949 180.704 74.9778 183.349 72.27C184.671 70.9157 185.904 69.4748 186.852 68.0397C187.795 66.6128 188.489 65.1435 188.673 63.739L186.976 63.52C186.832 64.618 186.268 65.8727 185.384 67.2105C184.505 68.54 183.342 69.9045 182.062 71.2153Z" fill="#FF004D"/>
<path fill-rule="evenodd" clip-rule="evenodd" d="M171.729 69.8774L175.899 68.1339L176.634 69.5586L172.464 71.3021L171.729 69.8774Z" fill="#FF004D"/>
<path fill-rule="evenodd" clip-rule="evenodd" d="M179.223 96.9883C177.301 133.465 143.536 162.249 102.52 161.773C61.5036 161.297 28.4154 131.736 27.3415 95.2242C27.2968 96.0726 27.2693 96.9251 27.2594 97.7814C26.8221 135.461 60.4909 166.4 102.461 166.888C144.43 167.375 178.808 137.224 179.245 99.5452C179.255 98.6893 179.248 97.8369 179.223 96.9883Z" fill="#1D2B53"/>
<path fill-rule="evenodd" clip-rule="evenodd" d="M178.878 102.842C173.866 136.629 141.439 162.451 102.517 161.999C63.5948 161.548 31.7761 134.98 27.5499 101.084C29.0487 137.12 61.8495 166.19 102.463 166.661C143.076 167.133 176.543 138.833 178.878 102.842ZM178.999 99.9179C175.477 134.994 142.431 162.237 102.52 161.773C62.6081 161.31 30.2031 133.307 27.4974 98.1583C27.4878 98.0336 27.4786 97.9088 27.4697 97.7839C27.4095 96.9347 27.3667 96.0814 27.3415 95.2242C27.2968 96.0726 27.2693 96.9251 27.2594 97.7814C27.2579 97.9096 27.2568 98.0377 27.2561 98.1657C27.0513 135.671 60.6336 166.402 102.461 166.888C144.287 167.373 178.573 137.43 179.24 99.9309C179.242 99.8024 179.244 99.6739 179.245 99.5452C179.255 98.6893 179.248 97.8369 179.223 96.9883C179.178 97.8441 179.115 98.6957 179.035 99.5428C179.023 99.6679 179.011 99.7929 178.999 99.9179Z" fill="white"/>
<path d="M41.0553 17.3599C37.1902 16.5735 35.3127 18.2564 34.8571 19.1961C35.6326 19.642 36.22 20.995 36.7392 22.258C37.2584 23.5209 43.9282 41.5716 44.6939 43.7379C45.3064 45.471 46.2946 46.6212 46.7121 46.9797C49.212 48.7381 52.4447 47.8038 53.4348 46.7989C54.4248 45.794 53.3768 44.9883 52.3707 44.8162C51.5658 44.6785 51.2631 43.7395 51.2123 43.2872C50.6238 37.7588 49.5499 27.3773 49.9614 30.0781C50.4759 33.454 54.0615 38.7644 54.9787 39.7824C55.896 40.8004 60.0567 41.6688 61.5651 39.4217C63.0736 37.1747 62.7942 31.4121 62.537 29.7242C62.3312 28.3738 60.3967 27.3488 59.4552 27.005C60.1705 30.3892 61.2123 37.1068 59.6571 36.9034C58.1019 36.6999 55.2513 27.8777 54.0205 23.492C52.1039 20.3459 48.8376 21.2746 47.4441 22.1322C46.6649 23.8777 46.8977 29.5018 47.1115 32.0956C46.0662 29.0464 43.9126 22.7493 43.6608 21.9547C43.4091 21.1601 41.8189 18.5604 41.0553 17.3599Z" fill="#1D2B53"/>
<path fill-rule="evenodd" clip-rule="evenodd" d="M35.0123 19.161C35.3914 19.4149 35.7159 19.8599 36.0032 20.3735C36.3155 20.9318 36.5944 21.5914 36.8538 22.2224C37.3742 23.4881 44.0447 41.541 44.8103 43.7074C45.4146 45.417 46.3869 46.5485 46.7911 46.8976C48.0088 47.7521 49.4053 47.9535 50.6226 47.8172C51.8469 47.68 52.8722 47.2036 53.3426 46.7261C53.578 46.4871 53.6835 46.269 53.7055 46.0782C53.7273 45.8886 53.668 45.7145 53.5503 45.5591C53.3109 45.243 52.832 45.0098 52.3494 44.9273C51.8949 44.8495 51.5923 44.5467 51.4006 44.223C51.2087 43.8988 51.1167 43.5361 51.0901 43.2988L51.09 43.2982C50.7958 40.5339 50.3801 36.5562 50.0895 33.6069C49.9442 32.1326 49.83 30.9143 49.7779 30.2332C49.7649 30.0629 49.7557 29.9255 49.7509 29.8256C49.7485 29.7758 49.7471 29.7345 49.747 29.7027C49.7468 29.6759 49.7472 29.6432 49.7529 29.6198C49.7541 29.6152 49.7586 29.596 49.7732 29.5767C49.781 29.5664 49.7992 29.5461 49.8323 29.5352C49.8706 29.5226 49.9075 29.5294 49.9336 29.5421C49.9558 29.5529 49.969 29.567 49.9748 29.5738C49.9815 29.5816 49.9859 29.5887 49.9885 29.5933C49.9937 29.6024 49.9971 29.611 49.9992 29.6165C50.007 29.6377 50.0143 29.6688 50.0215 29.7037C50.0367 29.7775 50.0569 29.8974 50.0827 30.0664C50.3368 31.734 51.353 33.8911 52.4275 35.7663C53.5013 37.6406 54.6224 39.2147 55.073 39.7148C55.2824 39.9472 55.691 40.1834 56.2251 40.3698C56.7556 40.5551 57.396 40.6863 58.0546 40.7174C59.3761 40.7798 60.7384 40.4396 61.4599 39.3649C61.8259 38.8197 62.0879 38.0534 62.2687 37.1759C62.4492 36.3002 62.5473 35.3221 62.5904 34.3591C62.6767 32.4324 62.5428 30.5764 62.4153 29.7398C62.3188 29.1065 61.813 28.536 61.1946 28.0744C60.6653 27.6793 60.068 27.375 59.6178 27.1905C59.9675 28.8795 60.3799 31.2939 60.5297 33.2956C60.6076 34.3358 60.6152 35.2722 60.5032 35.9387C60.4475 36.2705 60.3604 36.5474 60.228 36.7375C60.1611 36.8336 60.0794 36.9122 59.9792 36.9623C59.8773 37.0133 59.7633 37.0313 59.6411 37.0153C59.5145 36.9987 59.3919 36.94 59.2753 36.8559C59.1581 36.7715 59.0402 36.6566 58.9219 36.5176C58.6855 36.2398 58.4375 35.8538 58.1834 35.3889C57.6747 34.4582 57.1321 33.194 56.6011 31.803C55.5409 29.0257 54.5217 25.7286 53.9054 23.5339C52.9684 22.0043 51.715 21.4755 50.5317 21.4236C49.3526 21.372 48.2291 21.794 47.5442 22.2078C47.3636 22.6296 47.2374 23.2822 47.1552 24.0745C47.0712 24.8833 47.034 25.8275 47.0278 26.8C47.0154 28.7448 47.1269 30.7962 47.2336 32.0909L46.9943 32.1291C45.9493 29.081 43.795 22.782 43.5428 21.9859C43.483 21.7971 43.3406 21.4932 43.1441 21.1189C42.9487 20.7466 42.7034 20.3112 42.4416 19.8623C41.9304 18.9858 41.3582 18.0607 40.9766 17.4596C37.3164 16.7331 35.51 18.2608 35.0123 19.161ZM34.7445 19.1522C35.2247 18.1617 37.1617 16.4561 41.0803 17.2535L41.1337 17.2643L41.1611 17.3074C41.5435 17.9085 42.1327 18.8598 42.658 19.7607C42.9207 20.211 43.1678 20.6495 43.3653 21.0258C43.5616 21.3998 43.7123 21.7188 43.7784 21.9274C44.007 22.6489 45.8096 27.9243 46.9204 31.1674C46.8395 29.9232 46.7728 28.3269 46.7826 26.7955C46.7888 25.8195 46.8261 24.8682 46.911 24.0505C46.9956 23.2358 47.1282 22.5433 47.3301 22.0911L47.3438 22.0604L47.3739 22.0419C48.0857 21.6039 49.2762 21.1463 50.54 21.2016C51.8142 21.2575 53.1486 21.8346 54.1274 23.4413L54.1351 23.454L54.139 23.468C54.754 25.6591 55.7733 28.9578 56.8327 31.733C57.3626 33.1211 57.9012 34.3747 58.4028 35.2925C58.6539 35.7519 58.8934 36.1227 59.1153 36.3834C59.2262 36.5137 59.3302 36.6135 59.4263 36.6828C59.5229 36.7524 59.6049 36.7865 59.6727 36.7953C59.7448 36.8048 59.8049 36.7941 59.8583 36.7674C59.9134 36.7398 59.9681 36.6916 60.0201 36.6169C60.1256 36.4653 60.2067 36.2244 60.2608 35.9021C60.3686 35.2606 60.3626 34.3442 60.285 33.3074C60.13 31.2367 59.6917 28.7162 59.3345 27.0264L59.2927 26.8286L59.4993 26.904C59.9797 27.0794 60.7103 27.4271 61.3489 27.9037C61.9845 28.3781 62.5489 28.9953 62.6582 29.7125C62.7879 30.5638 62.9223 32.433 62.8355 34.3713C62.792 35.3409 62.6932 36.3302 62.5098 37.2197C62.3268 38.1075 62.0581 38.9041 61.6699 39.4824C60.8829 40.6548 59.4107 41.0039 58.0454 40.9394C57.3606 40.907 56.6946 40.7708 56.1398 40.5771C55.5887 40.3847 55.1333 40.1306 54.884 39.8539C54.4173 39.336 53.287 37.7459 52.2102 35.8665C51.3681 34.3968 50.5521 32.7388 50.1121 31.2687C50.1701 31.9083 50.2463 32.7025 50.3338 33.5903C50.6243 36.5386 51.0398 40.5155 51.334 43.2796C51.3582 43.4945 51.443 43.8274 51.6163 44.1201C51.79 44.4135 52.0412 44.649 52.3915 44.7089C52.9151 44.7985 53.4633 45.0542 53.7518 45.4352C53.8982 45.6283 53.9781 45.8549 53.9494 46.1044C53.9208 46.3526 53.7861 46.612 53.5265 46.8755C53.0069 47.4029 51.9208 47.8961 50.6562 48.0378C49.3864 48.18 47.9186 47.9701 46.6376 47.069L46.6327 47.0656L46.6282 47.0618C46.1946 46.6895 45.1955 45.5226 44.5769 43.7724C43.8113 41.606 37.1423 23.5576 36.6242 22.2974C36.3644 21.6654 36.0899 21.0171 35.7848 20.4717C35.4774 19.9222 35.1494 19.497 34.7923 19.2917L34.702 19.2398L34.7445 19.1522Z" fill="white"/>
<path d="M28.0555 55.5411C26.6438 56.4512 24.578 55.6404 23.7216 55.1213C23.7069 54.7291 23.4404 54.767 24.2098 53.8693C24.9791 52.9716 25.2325 46.3811 24.4279 43.6862C23.6271 41.0046 22.7477 40.6276 21.6328 40.1498L21.6162 40.1427C20.718 39.7576 19.7844 40.3862 19.4298 40.7487C14.6299 45.7175 14.8334 49.3355 14.5893 53.5099C14.3452 57.6843 16.1765 61.8598 17.7488 62.7208C19.3211 63.5819 26.2945 58.5509 27.3581 57.4636C28.2089 56.5937 30.4761 55.2305 31.5033 54.6575C33.2217 53.773 36.6303 53.3877 36.518 58.9233C36.3775 65.8428 32.5986 69.4839 31.4647 70.4827C30.3308 71.4814 25.9969 71.0616 25.5307 69.3536C25.1578 67.9872 26.1498 68.0173 26.6924 68.2031C28.2092 69.3677 29.2875 68.6725 29.6371 68.1794C32.432 63.298 33.316 56.5687 32.4892 56.8339C31.6624 57.0991 32.0823 56.6945 28.3163 59.7917C24.5503 62.8889 21.0062 64.7719 19.4931 65.4795C17.9801 66.187 15.2037 66.2361 13.9681 65.4258C12.7325 64.6156 10.0799 63.5136 10.8345 55.127C11.589 46.7405 16.4722 41.3163 17.1862 40.7221C17.9002 40.1279 20.5582 36.9416 25.1752 38.6518C29.7921 40.3621 29.8201 54.4036 28.0555 55.5411Z" fill="#1D2B53"/>
<path fill-rule="evenodd" clip-rule="evenodd" d="M17.3721 40.393C18.3609 39.4602 20.9888 36.9815 25.2202 38.5489C26.4267 38.9958 27.3099 40.2356 27.9364 41.8158C28.5656 43.4029 28.9482 45.3644 29.1305 47.303C29.3128 49.2422 29.2953 51.1646 29.121 52.6755C29.0339 53.4306 28.9073 54.0862 28.7454 54.591C28.6645 54.8433 28.5739 55.0607 28.4734 55.235C28.3737 55.4078 28.2597 55.5464 28.1273 55.6316C27.3829 56.1115 26.4736 56.1327 25.6562 55.9756C24.8381 55.8183 24.093 55.4792 23.6541 55.2131L23.6009 55.1809L23.5988 55.1234C23.5959 55.0477 23.5828 54.9917 23.5691 54.9328C23.5671 54.9244 23.5651 54.916 23.5632 54.9074C23.5473 54.838 23.5328 54.7616 23.5504 54.6651C23.5839 54.482 23.7299 54.2465 24.1123 53.8002C24.1924 53.7067 24.2757 53.5244 24.3542 53.2547C24.4315 52.9892 24.5006 52.6523 24.5599 52.2617C24.6785 51.4807 24.7569 50.4928 24.7863 49.4472C24.8452 47.3524 24.7067 45.0446 24.3093 43.7136C23.911 42.3796 23.497 41.6334 23.055 41.1626C22.615 40.694 22.1394 40.489 21.5813 40.2498L21.5647 40.2427C21.1584 40.0685 20.7393 40.1206 20.3693 40.267C19.9984 40.4138 19.6901 40.6508 19.5222 40.8225C17.1335 43.2953 15.9942 45.4269 15.4198 47.4559C14.9344 49.1706 14.8511 50.8138 14.7636 52.5421C14.7473 52.8638 14.7308 53.1884 14.7116 53.517C14.5905 55.5886 14.9845 57.662 15.6039 59.3233C15.9136 60.1539 16.2787 60.8791 16.6618 61.4482C17.0467 62.0199 17.4432 62.4243 17.8111 62.6257C17.9685 62.7119 18.2122 62.7329 18.5456 62.6772C18.875 62.6223 19.2703 62.4961 19.7118 62.3141C20.5939 61.9504 21.6396 61.3723 22.6738 60.7307C24.7446 59.446 26.7439 57.9225 27.2656 57.3891C27.7009 56.9441 28.4905 56.3796 29.292 55.8585C30.0961 55.3356 30.9221 54.8501 31.4378 54.5625L31.4396 54.5615L31.4414 54.5606C32.314 54.1114 33.6433 53.7733 34.7515 54.2838C35.8703 54.7992 36.6969 56.1461 36.6405 58.9266C36.4992 65.886 32.6969 69.5529 31.5507 70.5625C31.2401 70.8361 30.7262 71.0018 30.1435 71.0775C29.5567 71.1537 28.8813 71.1409 28.2286 71.0425C27.5763 70.9441 26.9397 70.7591 26.4332 70.486C25.9276 70.2135 25.539 69.8457 25.4115 69.3787C25.3157 69.0276 25.3039 68.7539 25.3591 68.5439C25.4153 68.3302 25.5405 68.1856 25.7059 68.0995C25.8674 68.0155 26.0562 67.9929 26.234 68.0011C26.4125 68.0094 26.5889 68.0493 26.7343 68.099L26.7544 68.1059L26.7708 68.1185C27.5074 68.6841 28.119 68.7855 28.577 68.7037C29.0383 68.6212 29.3685 68.3486 29.5305 68.1224C30.9195 65.6949 31.8353 62.8055 32.3005 60.5546C32.5334 59.4283 32.6524 58.4662 32.6626 57.805C32.6677 57.4725 32.645 57.2249 32.6 57.0721C32.577 56.9938 32.5522 56.9553 32.5362 56.9403C32.5351 56.9392 32.5342 56.9384 32.5334 56.9378C32.5328 56.9379 32.5321 56.9381 32.5314 56.9384C32.427 56.9719 32.3418 56.995 32.2678 57.0151L32.2635 57.0163C32.1879 57.0368 32.1263 57.0537 32.0635 57.0757C31.9415 57.1187 31.8085 57.1837 31.5793 57.3397C31.1158 57.655 30.2846 58.3236 28.3992 59.8741C24.6241 62.9789 21.0709 64.867 19.5504 65.578C18.7718 65.9421 17.6788 66.1332 16.628 66.1327C15.5802 66.1321 14.5459 65.9409 13.8968 65.5152C13.8244 65.4677 13.7466 65.419 13.6643 65.3675C13.0511 64.9832 12.1953 64.447 11.5434 63.1626C10.8074 61.7122 10.334 59.3179 10.712 55.1163C11.0909 50.9057 12.5061 47.4391 13.9161 44.9505C15.3244 42.4647 16.7315 40.9482 17.1024 40.6396C17.1718 40.5818 17.2618 40.497 17.3721 40.393ZM17.5564 40.5431C17.4411 40.6513 17.3455 40.741 17.2697 40.8041C16.9265 41.0897 15.535 42.5823 14.1347 45.0539C12.736 47.5226 11.3323 50.9613 10.9566 55.1372C10.58 59.3222 11.0557 61.6721 11.7661 63.072C12.3885 64.2983 13.193 64.803 13.8018 65.1849C13.8848 65.237 13.9642 65.2869 14.039 65.3359C14.6256 65.7205 15.5972 65.9099 16.6249 65.9105C17.6493 65.9111 18.7011 65.7239 19.4356 65.3804C20.9412 64.6763 24.4761 62.7985 28.233 59.7088C30.1137 58.1621 30.9554 57.4844 31.4303 57.1614C31.6701 56.9982 31.8226 56.9211 31.9721 56.8685C32.0451 56.8428 32.1157 56.8236 32.1902 56.8034L32.1935 56.8025C32.2676 56.7824 32.348 56.7605 32.4467 56.7289C32.4913 56.7146 32.5402 56.71 32.5899 56.7213C32.6392 56.7325 32.6797 56.7571 32.7117 56.7871C32.7723 56.844 32.8106 56.9276 32.837 57.0175C32.8911 57.201 32.9131 57.4737 32.9079 57.811C32.8975 58.4895 32.7759 59.4652 32.5417 60.5982C32.0733 62.8647 31.1505 65.7783 29.746 68.2313L29.7435 68.2358L29.7405 68.24C29.5518 68.5061 29.1692 68.8249 28.6276 68.9216C28.0837 69.0188 27.4037 68.8881 26.6305 68.3001C26.5086 68.2601 26.3655 68.2295 26.2247 68.223C26.0755 68.2161 25.938 68.2365 25.8302 68.2925C25.7264 68.3465 25.6397 68.439 25.5978 68.5981C25.555 68.761 25.559 68.996 25.6496 69.3281C25.7553 69.715 26.0831 70.0403 26.5567 70.2956C27.0294 70.5504 27.6345 70.7281 28.2658 70.8234C28.8965 70.9185 29.5464 70.9302 30.1056 70.8576C30.669 70.7844 31.122 70.6282 31.3784 70.4023C32.4999 69.4145 36.2555 65.799 36.3951 58.9195C36.4511 56.1645 35.6295 54.9362 34.6425 54.4815C33.6455 54.0222 32.4124 54.3182 31.5666 54.7531C31.0549 55.0385 30.2348 55.5206 29.4368 56.0395C28.6352 56.5607 27.8658 57.1128 27.4502 57.5376C26.9084 58.0916 24.8892 59.6272 22.8143 60.9145C21.7756 61.5589 20.7167 62.1451 19.8159 62.5165C19.3658 62.702 18.9501 62.8361 18.5931 62.8957C18.2399 62.9547 17.9219 62.9445 17.6862 62.8154C17.2679 62.5863 16.8459 62.1459 16.4528 61.562C16.058 60.9757 15.6858 60.2346 15.3716 59.3919C14.7433 57.7067 14.3437 55.6051 14.4666 53.5023C14.4857 53.1769 14.502 52.8543 14.5182 52.5338C14.6055 50.8054 14.6899 49.1366 15.1821 47.3981C15.7669 45.3324 16.9258 43.1706 19.3369 40.6747L19.3374 40.6742C19.524 40.4834 19.8597 40.225 20.2686 40.0632C20.6786 39.901 21.1755 39.8313 21.6673 40.0421L21.6904 40.052C22.2448 40.2897 22.7642 40.5123 23.241 41.02C23.7176 41.5276 24.1437 42.3106 24.5461 43.6583C24.9533 45.0222 25.0905 47.3571 25.0315 49.4557C25.002 50.5068 24.9231 51.5033 24.8029 52.2948C24.7429 52.6903 24.6722 53.0367 24.5915 53.3139C24.512 53.587 24.4191 53.807 24.3069 53.9379C23.9199 54.3893 23.8145 54.5837 23.7925 54.7041C23.7824 54.7594 23.7892 54.8032 23.8034 54.8651C23.8051 54.8726 23.807 54.8804 23.8089 54.8885C23.8198 54.935 23.833 54.991 23.8399 55.0596C24.2633 55.3078 24.9533 55.6139 25.7041 55.7583C26.4865 55.9087 27.316 55.8803 27.9833 55.4501C28.0716 55.3932 28.1641 55.2888 28.2556 55.1301C28.3463 54.9729 28.4315 54.7703 28.5097 54.5265C28.6661 54.0389 28.7907 53.3975 28.877 52.6495C29.0495 51.1543 29.0672 49.2461 28.886 47.319C28.7048 45.3912 28.325 43.4506 27.7056 41.8884C27.0834 40.3192 26.2318 39.1625 25.1298 38.7543C21.0661 37.249 18.5606 39.6006 17.5564 40.5431Z" fill="white"/>
<path d="M118.351 6.85469C119.029 5.15228 115.659 4.00564 114.095 3.57794C111.56 3.51964 109.665 6.91904 108.853 8.37593C108.041 9.83281 108.25 13.0942 109.166 13.3897C109.9 13.626 110.513 14.6114 110.296 14.9999C109.702 15.3383 107.952 16.4899 105.702 19.3624C103.452 22.2348 104.433 24.5485 105.204 25.3463C108.705 28.2796 110.595 27.0701 114.646 24.8955C117.886 23.1559 118.377 20.546 118.217 19.4586C115.696 21.4767 110.394 25.3466 109.36 24.6808C108.066 23.8486 115.847 17.8923 115.795 16.7728C115.754 15.8772 114.487 14.6752 113.858 14.1861C112.729 12.3326 114.46 10.1978 115.702 9.66724C116.695 9.24275 118.017 7.69126 118.351 6.85469Z" fill="#1D2B53"/>
<path fill-rule="evenodd" clip-rule="evenodd" d="M114.074 3.68935C112.875 3.66902 111.807 4.46252 110.923 5.47754C110.04 6.49194 109.368 7.69606 108.961 8.42546C108.57 9.12793 108.418 10.2842 108.483 11.3102C108.516 11.8213 108.601 12.2917 108.732 12.6495C108.798 12.8285 108.874 12.9754 108.957 13.0843C109.041 13.1939 109.126 13.2578 109.209 13.2844C109.61 13.4139 109.966 13.7414 110.192 14.0783C110.306 14.2481 110.391 14.426 110.433 14.5907C110.474 14.7521 110.478 14.9177 110.405 15.0495L110.389 15.0777L110.359 15.0945C109.78 15.4245 108.042 16.5654 105.801 19.4265C103.589 22.2499 104.557 24.503 105.292 25.2675C107.026 26.7187 108.337 27.1262 109.702 26.9262C110.391 26.8252 111.104 26.5677 111.9 26.1966C112.576 25.8819 113.306 25.4886 114.131 25.0443C114.279 24.9643 114.431 24.8827 114.585 24.7996C117.582 23.1909 118.182 20.8346 118.117 19.6854C116.853 20.6886 114.993 22.0804 113.3 23.1673C112.413 23.7367 111.568 24.2253 110.877 24.53C110.532 24.6822 110.219 24.7911 109.956 24.8399C109.697 24.8877 109.459 24.8825 109.288 24.7726C109.179 24.7021 109.117 24.6024 109.098 24.4849C109.081 24.3715 109.104 24.2456 109.151 24.1144C109.246 23.8527 109.453 23.5359 109.728 23.1872C110.28 22.4875 111.136 21.6249 112.023 20.7589C112.279 20.5098 112.537 20.2603 112.792 20.0141C113.426 19.4018 114.039 18.8093 114.539 18.2907C114.889 17.9273 115.179 17.6035 115.38 17.3375C115.481 17.2044 115.557 17.0884 115.607 16.9911C115.658 16.8913 115.675 16.8223 115.673 16.7794C115.654 16.3688 115.349 15.8681 114.95 15.3963C114.555 14.9297 114.087 14.5123 113.778 14.2718L113.762 14.259L113.751 14.2418C113.162 13.2741 113.323 12.2367 113.781 11.3828C114.238 10.5322 115 9.84456 115.651 9.56633C116.123 9.36503 116.687 8.88712 117.18 8.34501C117.673 7.80409 118.076 7.21877 118.236 6.81809C118.391 6.43056 118.317 6.07548 118.088 5.74561C117.857 5.4115 117.467 5.10556 116.997 4.83299C116.065 4.29196 114.854 3.90338 114.074 3.68935ZM118.295 5.6239C118.557 6.0012 118.65 6.42784 118.465 6.89152C118.292 7.32742 117.868 7.93613 117.367 8.48621C116.868 9.03512 116.274 9.54519 115.752 9.76837C115.161 10.0207 114.437 10.6658 114 11.4786C113.568 12.2829 113.427 13.2325 113.955 14.1137C114.274 14.3639 114.744 14.7856 115.144 15.2579C115.546 15.7332 115.895 16.2813 115.917 16.7663C115.922 16.8633 115.884 16.9721 115.828 17.083C115.77 17.1963 115.685 17.3239 115.581 17.4624C115.371 17.7397 115.073 18.0714 114.721 18.4368C114.218 18.9586 113.6 19.5559 112.965 20.1696C112.71 20.4151 112.454 20.6633 112.2 20.9103C111.311 21.7774 110.467 22.6299 109.925 23.316C109.654 23.6603 109.465 23.9541 109.383 24.1817C109.341 24.2953 109.33 24.3837 109.34 24.4496C109.35 24.5113 109.379 24.5557 109.431 24.5893C109.519 24.6458 109.672 24.6652 109.911 24.621C110.146 24.5777 110.437 24.4777 110.774 24.3292C111.447 24.0325 112.279 23.5523 113.162 22.9852C114.927 21.8519 116.879 20.3827 118.138 19.3752L118.309 19.2386L118.338 19.442C118.504 20.5701 117.994 23.2267 114.706 24.9917C114.553 25.0743 114.402 25.1556 114.254 25.2355C113.429 25.6796 112.691 26.0771 112.008 26.3953C111.202 26.7709 110.463 27.0402 109.736 27.1467C108.269 27.3617 106.886 26.9081 105.121 25.4293L105.116 25.4255L105.112 25.4212C104.304 24.5859 103.319 22.2148 105.603 19.2984C107.822 16.4654 109.562 15.2938 110.2 14.9246C110.224 14.8611 110.226 14.7669 110.195 14.6448C110.16 14.5081 110.087 14.3521 109.983 14.1974C109.774 13.8854 109.456 13.6021 109.124 13.4951C108.978 13.4479 108.856 13.3452 108.756 13.2142C108.656 13.0825 108.571 12.9148 108.501 12.7237C108.36 12.3413 108.273 11.85 108.24 11.3267C108.174 10.2839 108.324 9.08103 108.744 8.32662L108.746 8.32397C109.151 7.59617 109.833 6.37386 110.733 5.34017C111.63 4.31036 112.771 3.43586 114.1 3.46644L114.117 3.46681L114.132 3.47104C114.917 3.68565 116.163 4.08266 117.13 4.64385C117.614 4.9242 118.037 5.25085 118.295 5.6239Z" fill="white"/>
<path fill-rule="evenodd" clip-rule="evenodd" d="M139.704 22.3191C142.741 24.5118 146.244 23.1592 147.616 22.2088C145.615 21.9086 146.18 20.8272 146.712 20.324C147.78 19.0124 151.009 21.3002 152.49 22.6081C149.733 24.0043 148.951 24.8823 148.904 25.1467C146.8 24.6803 146.8 24.6803 145.22 24.4735L145.22 24.4735C144.034 24.3183 143.669 25.6143 143.622 26.4053C143.611 26.4464 143.608 26.4961 143.616 26.5554C143.617 26.508 143.619 26.4577 143.622 26.4053C143.748 25.9341 145.038 26.5958 145.721 27.0219C144.92 27.9675 142.609 29.6798 139.769 28.9642C136.928 28.2487 139.055 25.6399 140.474 24.425C135.233 21.2562 128.627 22.5879 127.525 27.2182C126.423 31.8485 131.005 34.9788 136.8 35.5463C141.436 36.0003 146.684 31.6199 148.729 29.3729C148.808 30.1791 149.601 31.7597 152.133 31.6329C154.666 31.506 154.891 28.397 154.687 26.8584C153.218 28.7191 150.985 27.9016 151.125 27.1083C151.265 26.3149 153.795 23.8292 154.051 24.5312C154.308 25.2332 158.756 28.5846 161.519 29.0896C163.73 29.4935 165.139 28.1143 165.315 27.1792C165.484 26.2835 165.207 24.2439 162.377 22.6129C159.546 20.9819 156.016 21.478 154.605 21.9299L149.785 16.3814C144.899 12.1716 142.049 14.0943 140.31 15.2682C140.263 15.2999 140.216 15.3311 140.171 15.3617C138.75 16.7672 136.668 20.1265 139.704 22.3191ZM159 26.1329C160.884 27.1643 162.293 27.366 162.896 27.0274C163.74 26.2369 163.411 25.2568 161.392 23.861C159.639 22.6494 156.844 22.6022 156.227 22.9018C155.163 23.0655 157.189 25.0723 159 26.1329Z" fill="#1D2B53"/>
<path fill-rule="evenodd" clip-rule="evenodd" d="M143.875 13.9174C142.373 14.016 141.252 14.7701 140.38 15.3583C140.336 15.3878 140.293 15.417 140.25 15.4455C139.551 16.14 138.695 17.3096 138.384 18.5685C138.228 19.1989 138.21 19.8477 138.412 20.47C138.614 21.0911 139.038 21.6934 139.779 22.2286C141.267 23.3034 142.868 23.5093 144.269 23.3298C145.524 23.1689 146.616 22.6986 147.313 22.2684C146.948 22.191 146.677 22.0819 146.483 21.9484C146.238 21.7799 146.119 21.5735 146.094 21.3545C146.069 21.1399 146.137 20.9256 146.24 20.7371C146.342 20.5503 146.483 20.381 146.621 20.2493C146.923 19.8836 147.373 19.7776 147.872 19.8305C148.371 19.8834 148.937 20.0951 149.505 20.3835C150.643 20.9613 151.829 21.8672 152.573 22.5248L152.694 22.6314L152.546 22.7061C151.173 23.4019 150.296 23.9663 149.758 24.387C149.489 24.5974 149.307 24.7704 149.19 24.9044C149.069 25.0428 149.03 25.1277 149.023 25.163L149.002 25.2836L148.875 25.2555C147.665 24.9872 147.152 24.8736 146.635 24.7862C146.254 24.7218 145.87 24.6716 145.202 24.5842C144.931 24.5487 144.714 24.5964 144.538 24.6944C144.359 24.7935 144.214 24.9485 144.099 25.1385C143.917 25.437 143.816 25.8087 143.769 26.1415C143.815 26.1317 143.863 26.1283 143.91 26.1291C144.083 26.1319 144.294 26.1903 144.509 26.2714C144.943 26.4353 145.444 26.7119 145.789 26.9269L145.897 26.9942L145.815 27.0902C145 28.0527 142.644 29.8046 139.736 29.0721C139.006 28.8881 138.569 28.5755 138.371 28.1705C138.174 27.7682 138.228 27.3032 138.411 26.8426C138.755 25.9722 139.584 25.0554 140.277 24.4414C137.714 22.9346 134.842 22.506 132.473 23.0059C130.065 23.5139 128.182 24.9769 127.643 27.2406C127.103 29.5106 127.953 31.4109 129.657 32.82C131.366 34.2327 133.934 35.151 136.814 35.4331C139.09 35.656 141.531 34.6917 143.67 33.3774C145.806 32.065 147.621 30.4159 148.637 29.2993L148.823 29.0949L148.849 29.3604C148.886 29.7404 149.094 30.3114 149.596 30.7708C150.094 31.2269 150.892 31.5811 152.128 31.5192C152.732 31.4889 153.193 31.2819 153.546 30.9674C153.901 30.651 154.152 30.221 154.321 29.7396C154.623 28.8841 154.662 27.8873 154.596 27.143C153.869 27.9287 152.995 28.1589 152.289 28.0897C151.907 28.0524 151.573 27.9273 151.339 27.7528C151.108 27.5799 150.961 27.3437 151.005 27.09C151.026 26.972 151.089 26.8331 151.174 26.6868C151.26 26.5385 151.375 26.3747 151.508 26.2052C151.773 25.8662 152.114 25.4985 152.459 25.1783C152.803 24.8594 153.157 24.5814 153.446 24.4272C153.589 24.3514 153.731 24.2971 153.856 24.294C153.921 24.2924 153.987 24.3046 154.045 24.3404C154.104 24.3766 154.143 24.4303 154.166 24.4928C154.189 24.5571 154.271 24.6714 154.423 24.8316C154.571 24.9874 154.773 25.1749 155.02 25.3837C155.512 25.8011 156.174 26.2989 156.916 26.7911C158.404 27.7787 160.189 28.7302 161.544 28.9778C163.689 29.3699 165.032 28.0303 165.196 27.1596C165.356 26.3104 165.103 24.3156 162.312 22.708C160.92 21.906 159.353 21.6252 157.955 21.602C156.557 21.5789 155.336 21.8139 154.644 22.0355L154.564 22.0611L149.696 16.4581C147.271 14.3703 145.37 13.8192 143.875 13.9174ZM143.502 26.3891C143.489 26.4444 143.488 26.5049 143.496 26.5693L143.737 26.5544C143.738 26.5124 143.739 26.468 143.742 26.4216C143.75 26.397 143.763 26.3844 143.78 26.3756C143.802 26.3635 143.841 26.3537 143.904 26.3547C144.03 26.3567 144.208 26.4021 144.416 26.4807C144.786 26.6202 145.214 26.8491 145.542 27.047C144.688 27.9894 142.481 29.5295 139.801 28.8542C139.111 28.6804 138.749 28.3987 138.591 28.0753C138.432 27.7492 138.466 27.3519 138.637 26.9191C138.981 26.0512 139.85 25.1102 140.555 24.5067L140.67 24.4079L140.54 24.3291C137.895 22.7298 134.9 22.263 132.422 22.7859C129.941 23.3092 127.97 24.8272 127.407 27.1937C126.845 29.554 127.736 31.534 129.496 32.9895C131.252 34.4414 133.872 35.372 136.787 35.6575C139.146 35.8886 141.647 34.8896 143.802 33.5655C145.845 32.3099 147.596 30.7509 148.649 29.6292C148.742 30.0284 148.977 30.5215 149.426 30.9326C149.977 31.4367 150.842 31.8094 152.138 31.7444C152.8 31.7113 153.317 31.4821 153.712 31.1299C154.105 30.7796 154.373 30.3124 154.551 29.8083C154.906 28.8017 154.91 27.6217 154.807 26.8424L154.77 26.563L154.59 26.791C153.88 27.6892 152.997 27.9321 152.316 27.8654C151.973 27.8318 151.684 27.72 151.492 27.5763C151.298 27.431 151.219 27.2675 151.244 27.1245C151.258 27.0441 151.305 26.9318 151.386 26.7931C151.466 26.6563 151.574 26.5012 151.702 26.3371C151.959 26.0088 152.292 25.6502 152.629 25.3375C152.968 25.0235 153.303 24.7622 153.565 24.6229C153.698 24.552 153.797 24.5211 153.86 24.5195C153.889 24.5188 153.903 24.5244 153.91 24.5289C153.917 24.533 153.928 24.5422 153.937 24.5674C153.978 24.6786 154.09 24.8226 154.242 24.982C154.397 25.1459 154.606 25.3393 154.856 25.5513C155.356 25.9755 156.027 26.4788 156.775 26.9753C158.266 27.9652 160.086 28.9418 161.495 29.1992C163.77 29.615 165.246 28.1962 165.434 27.1966C165.612 26.2545 165.312 24.1701 162.441 22.5157C161.002 21.6867 159.389 21.4001 157.962 21.3765C156.587 21.3537 155.377 21.575 154.647 21.7972L149.873 16.3025L149.867 16.2971C147.409 14.1795 145.445 13.5882 143.86 13.6923C142.285 13.7958 141.113 14.5862 140.246 15.1713L140.238 15.1767C140.192 15.2082 140.146 15.2391 140.101 15.2693L140.091 15.2757L140.083 15.2836C139.364 15.9958 138.474 17.2044 138.149 18.5199C137.986 19.1791 137.964 19.8691 138.181 20.5373C138.398 21.2066 138.853 21.8465 139.63 22.4076C141.178 23.5255 142.847 23.7395 144.299 23.5533C145.749 23.3675 146.987 22.7833 147.687 22.2981L147.917 22.1386L147.636 22.0964C147.146 22.0228 146.827 21.9033 146.628 21.7663C146.432 21.6319 146.351 21.4802 146.334 21.3285C146.316 21.1723 146.365 21.0032 146.455 20.838C146.545 20.6736 146.672 20.521 146.798 20.4019L146.803 20.3966L146.808 20.3907C147.04 20.1054 147.393 20.007 147.842 20.0547C148.296 20.1028 148.83 20.2988 149.388 20.5819C150.442 21.117 151.545 21.9449 152.285 22.5834C150.986 23.2497 150.138 23.7968 149.604 24.2146C149.327 24.4313 149.132 24.6146 149.003 24.7632C148.923 24.855 148.863 24.9386 148.826 25.0122C146.827 24.5692 146.795 24.5646 145.242 24.3613L145.238 24.3607C144.916 24.3186 144.642 24.3747 144.415 24.5008C144.19 24.6258 144.019 24.8151 143.889 25.0285C143.633 25.4499 143.527 25.9859 143.502 26.3891ZM157.053 22.8665C156.68 22.8851 156.412 22.9378 156.282 23.0007L156.265 23.0091L156.246 23.012C156.134 23.0292 156.091 23.0657 156.072 23.0969C156.052 23.132 156.043 23.1932 156.073 23.2941C156.134 23.4969 156.329 23.7806 156.627 24.1062C157.218 24.7513 158.167 25.5104 159.063 26.0353C159.997 26.5464 160.808 26.849 161.455 26.9827C162.099 27.1156 162.559 27.0776 162.822 26.9368C163.014 26.7533 163.134 26.5653 163.183 26.3697C163.233 26.1714 163.212 25.9552 163.105 25.714C162.889 25.2252 162.325 24.6463 161.319 23.9508C160.465 23.3601 159.349 23.0498 158.366 22.9254C157.875 22.8634 157.421 22.8481 157.053 22.8665ZM158.401 22.7018C159.407 22.8291 160.566 23.1482 161.464 23.7691C162.477 24.4694 163.087 25.0784 163.329 25.6262C163.452 25.9033 163.481 26.1676 163.418 26.419C163.356 26.6695 163.204 26.8971 162.981 27.1056L162.97 27.1156L162.957 27.1228C162.615 27.315 162.074 27.342 161.401 27.203C160.722 27.0628 159.887 26.7491 158.938 26.2293L158.937 26.2285L158.935 26.2276C158.02 25.6919 157.051 24.9178 156.443 24.2538C156.141 23.9246 155.916 23.6097 155.84 23.357C155.802 23.2301 155.796 23.0994 155.861 22.9893C155.926 22.8799 156.044 22.8184 156.19 22.7926C156.371 22.7105 156.676 22.6595 157.043 22.6412C157.427 22.622 157.897 22.6381 158.401 22.7018Z" fill="white"/>
<path d="M168.417 39.0825C169.547 37.406 171.817 38.5896 172.983 39.3792C175.252 41.9069 170.899 42.9627 169.972 42.6306C169.045 42.2985 167.004 41.178 168.417 39.0825Z" fill="#1D2B53"/>
<path d="M163.858 41.0169C165.997 40.6533 167.467 41.7463 167.835 42.225C169.771 44.04 164.878 45.8427 161.523 46.7222C158.84 47.4258 160.548 48.9496 161.737 49.6235C158.947 50.0934 155.437 49.5986 155.648 46.8562C155.868 44.0075 161.939 41.343 163.858 41.0169Z" fill="#1D2B53"/>
<path fill-rule="evenodd" clip-rule="evenodd" d="M170.464 42.8011C170.254 42.8032 170.066 42.7833 169.929 42.7339C169.456 42.5644 168.687 42.1907 168.217 41.5806C167.98 41.2733 167.819 40.905 167.811 40.4745C167.804 40.0444 167.95 39.5613 168.312 39.0236C168.609 38.5843 168.985 38.3258 169.405 38.2047C169.822 38.0843 170.272 38.1025 170.714 38.1981C171.593 38.3886 172.469 38.8932 173.056 39.2906L173.068 39.299L173.078 39.3099C173.66 39.9582 173.834 40.5318 173.721 41.0246C173.608 41.5137 173.218 41.8935 172.744 42.171C172.268 42.4492 171.693 42.6333 171.179 42.7272C170.921 42.7742 170.676 42.799 170.464 42.8011ZM172.898 39.4595C173.443 40.0702 173.573 40.5729 173.48 40.9762C173.386 41.3856 173.055 41.7229 172.609 41.9838C172.164 42.244 171.619 42.4196 171.127 42.5093C170.882 42.5541 170.652 42.577 170.458 42.5789C170.261 42.5809 170.11 42.5611 170.016 42.5274C169.562 42.3648 168.847 42.0123 168.418 41.4552C168.205 41.1789 168.063 40.8534 168.056 40.4741C168.05 40.0943 168.178 39.6516 168.522 39.1414C168.791 38.7426 169.122 38.5203 169.482 38.4166C169.845 38.312 170.247 38.3247 170.66 38.4142C171.483 38.5925 172.32 39.0688 172.898 39.4595ZM166.729 44.9191C165.314 45.7147 163.239 46.3886 161.559 46.829C160.899 47.0022 160.533 47.2201 160.358 47.443C160.188 47.6583 160.183 47.8946 160.292 48.1447C160.403 48.3995 160.629 48.6618 160.909 48.9053C161.187 49.1476 161.51 49.3645 161.801 49.5297L162.069 49.6811L161.761 49.7329C160.354 49.9699 158.754 49.966 157.526 49.5485C156.91 49.3393 156.381 49.0237 156.02 48.5765C155.657 48.1277 155.472 47.5555 155.526 46.847C155.584 46.1012 156.023 45.3787 156.661 44.7143C157.301 44.0488 158.15 43.4323 159.048 42.8976C160.841 41.8298 162.853 41.0744 163.834 40.9077C166.018 40.5365 167.53 41.6432 167.93 42.1549C168.18 42.3917 168.328 42.6356 168.378 42.885C168.429 43.1373 168.376 43.3841 168.248 43.6202C167.993 44.0865 167.434 44.5229 166.729 44.9191ZM168.137 42.9217C168.097 42.7239 167.977 42.5167 167.748 42.3017L167.741 42.2952L167.735 42.2877C167.39 41.8386 165.965 40.7722 163.882 41.1262C162.944 41.2857 160.961 42.0255 159.184 43.0838C158.297 43.612 157.468 44.2161 156.847 44.8616C156.226 45.5083 155.823 46.187 155.771 46.8656C155.72 47.5283 155.893 48.0464 156.217 48.4469C156.542 48.8491 157.025 49.1421 157.609 49.3406C158.696 49.7099 160.109 49.744 161.412 49.5609C161.185 49.4167 160.951 49.248 160.74 49.0645C160.449 48.8107 160.194 48.5217 160.064 48.2235C159.932 47.9204 159.93 47.6017 160.157 47.3123C160.379 47.0306 160.807 46.7941 161.488 46.6155C163.163 46.1765 165.212 45.5092 166.598 44.7299C167.293 44.3387 167.804 43.929 168.027 43.5195C168.138 43.3175 168.176 43.1188 168.137 42.9217Z" fill="white"/>
</svg>
