<svg width="17" height="17" viewBox="0 0 17 17" fill="none" xmlns="http://www.w3.org/2000/svg">
<path fill-rule="evenodd" clip-rule="evenodd" d="M6.6322 0.908167L6.77926 0.9008C7.45024 0.867182 7.92163 1.18902 8.22954 1.54892C8.53506 1.90603 8.68321 2.30438 8.71122 2.44091L8.57418 2.47214C8.55169 2.36249 8.41559 1.98838 8.12674 1.65075C7.86275 1.34218 7.47423 1.06729 6.92966 1.05037C7.13077 1.34161 7.23878 1.68609 7.29192 2.00577C7.35288 2.37242 7.34278 2.71309 7.31404 2.91748L7.30745 2.96436L6.73315 3.14877L6.69184 3.00388L7.18116 2.84675C7.20297 2.65389 7.20736 2.35335 7.15377 2.03099C7.09561 1.68117 6.97031 1.31229 6.73127 1.02658L6.6322 0.908167Z" fill="#FF004D"/>
<path fill-rule="evenodd" clip-rule="evenodd" d="M8.77723 4.96918C8.50743 4.66535 8.20714 4.43907 8.01465 4.32455L8.07157 4.20933C8.27367 4.32957 8.58375 4.56357 8.86257 4.87755C9.14091 5.19099 9.39314 5.58983 9.47002 6.04015L9.35298 6.0647C9.28218 5.65007 9.04752 5.27355 8.77723 4.96918Z" fill="#1D2B53"/>
<path fill-rule="evenodd" clip-rule="evenodd" d="M6.40458 7.78443C6.44717 6.00264 7.53169 4.66132 8.07001 4.21123L8.14195 4.3154C7.62064 4.75128 6.56494 6.0594 6.52362 7.78758C6.50304 8.64888 6.88095 9.89399 7.3688 11.1092C7.85532 12.3211 8.44615 13.4913 8.84152 14.198L8.74005 14.2668C8.34238 13.556 7.74889 12.3805 7.25984 11.1623C6.77212 9.94743 6.38322 8.67811 6.40458 7.78443Z" fill="#1D2B53"/>
<path fill-rule="evenodd" clip-rule="evenodd" d="M10.143 5.75003C9.37909 6.04845 8.73193 6.45419 8.37106 6.73555L8.30232 6.62878C8.67178 6.34073 9.32868 5.92927 10.1033 5.62664C10.8775 5.32419 11.7749 5.12829 12.6228 5.27832L12.6036 5.40761C11.7831 5.26243 10.9073 5.45142 10.143 5.75003Z" fill="#1D2B53"/>
<path fill-rule="evenodd" clip-rule="evenodd" d="M12.1478 6.27709C12.3509 5.88322 12.4804 5.5001 12.5371 5.26965L12.6521 5.3036C12.5928 5.54455 12.4595 5.93792 12.2514 6.34149C12.0435 6.7447 11.7585 7.16287 11.3938 7.44814L11.3249 7.34149C11.67 7.07155 11.9445 6.67133 12.1478 6.27709Z" fill="#1D2B53"/>
<path fill-rule="evenodd" clip-rule="evenodd" d="M10.7333 6.90096C10.3386 6.90675 9.80254 7.05866 9.42719 7.19891L9.3891 7.07493C9.76788 6.9334 10.3183 6.77609 10.732 6.77002C10.9358 6.76704 11.1236 6.80014 11.2361 6.90929C11.2948 6.96628 11.3309 7.04204 11.3382 7.13584C11.3453 7.22753 11.3248 7.33284 11.2778 7.45211L11.1685 7.40023C11.211 7.29258 11.2244 7.20985 11.2195 7.14732C11.2148 7.08689 11.1929 7.04224 11.1571 7.00755C11.0807 6.93334 10.9338 6.89802 10.7333 6.90096Z" fill="#1D2B53"/>
<path fill-rule="evenodd" clip-rule="evenodd" d="M7.33709 9.92009C7.31887 9.08322 7.53882 8.29901 7.74817 7.83069L7.85502 7.88825C7.65262 8.34103 7.43846 9.1044 7.45614 9.91667C7.47378 10.7272 7.72186 11.5826 8.4395 12.2313L8.36375 12.3326C7.61315 11.654 7.35534 10.7587 7.33709 9.92009Z" fill="#1D2B53"/>
<path fill-rule="evenodd" clip-rule="evenodd" d="M8.73491 12.9676C8.88021 13.2248 9.0794 13.3465 9.21287 13.381L9.18539 13.5085C9.02122 13.4661 8.79557 13.3234 8.63372 13.0369C8.47117 12.7492 8.37541 12.3213 8.46373 11.7122L8.58133 11.7326C8.49658 12.3169 8.5903 12.7117 8.73491 12.9676Z" fill="#1D2B53"/>
<path fill-rule="evenodd" clip-rule="evenodd" d="M8.77403 12.4497C8.62445 12.2323 8.52703 11.9618 8.4825 11.7786L8.59756 11.7445C8.63937 11.9166 8.73127 12.1703 8.86905 12.3705C9.00753 12.5718 9.18157 12.7048 9.38932 12.674L9.405 12.8037C9.13426 12.844 8.92291 12.6661 8.77403 12.4497Z" fill="#1D2B53"/>
<path fill-rule="evenodd" clip-rule="evenodd" d="M10.5412 12.0318C10.2041 12.6968 9.63311 12.8279 9.38214 12.808L9.39059 12.6774C9.60513 12.6944 10.127 12.5799 10.4371 11.968L10.5412 12.0318Z" fill="#1D2B53"/>
<path fill-rule="evenodd" clip-rule="evenodd" d="M9.61528 13.5893C9.83365 12.977 10.1928 12.3547 10.4571 11.9682L10.5523 12.0469C10.2921 12.4274 9.93936 13.0393 9.72615 13.6371C9.61949 13.9362 9.54915 14.2279 9.54093 14.4833C9.53273 14.7384 9.58646 14.9502 9.72044 15.1006L9.63536 15.1922C9.47078 15.0074 9.41302 14.7552 9.42192 14.4787C9.4308 14.2026 9.50615 13.8953 9.61528 13.5893Z" fill="#1D2B53"/>
<path fill-rule="evenodd" clip-rule="evenodd" d="M10.0692 8.3331C10.7848 8.0066 11.2252 7.55024 11.3523 7.36972L11.4464 7.44977C11.3056 7.64969 10.8479 8.11948 10.1147 8.45404C9.89957 8.5522 9.67809 8.74657 9.46637 8.99987C9.25521 9.25249 9.05674 9.56013 8.88697 9.87969C8.71722 10.1992 8.57695 10.5291 8.48165 10.8257C8.38578 11.124 8.33747 11.3823 8.34636 11.5608L8.22745 11.5682C8.21726 11.3637 8.27185 11.0858 8.36938 10.7823C8.46746 10.4771 8.61107 10.1396 8.78418 9.8138C8.95726 9.48801 9.16062 9.17235 9.37876 8.91136C9.59634 8.65106 9.83163 8.44152 10.0692 8.3331Z" fill="#1D2B53"/>
<path fill-rule="evenodd" clip-rule="evenodd" d="M8.47751 7.41622C8.44913 7.47231 8.41055 7.52857 8.37354 7.57514L8.28394 7.4891C8.31732 7.44709 8.35037 7.39842 8.37349 7.35274C8.39835 7.30361 8.40497 7.27099 8.40296 7.25596C8.40246 7.25218 8.40181 7.25166 8.4011 7.25108C8.40104 7.25103 8.40098 7.25098 8.40091 7.25092C8.39868 7.24903 8.39022 7.24349 8.36839 7.24138C8.32348 7.23702 8.2442 7.24907 8.11516 7.29482L8.07885 7.17019C8.21143 7.12319 8.30953 7.10418 8.37911 7.11093C8.41454 7.11437 8.4476 7.12493 8.47385 7.14724C8.50155 7.17077 8.51628 7.20282 8.52079 7.23668C8.52891 7.29759 8.50415 7.36359 8.47751 7.41622Z" fill="#1D2B53"/>
<path fill-rule="evenodd" clip-rule="evenodd" d="M6.20756 8.05756C6.89462 7.57677 7.87073 7.25784 8.27591 7.15962L8.3013 7.2875C7.90208 7.38427 6.94144 7.69906 6.27134 8.16799L6.20756 8.05756Z" fill="#1D2B53"/>
<path fill-rule="evenodd" clip-rule="evenodd" d="M9.48392 10.5876C9.57896 9.99923 9.64879 9.19294 9.68394 8.62906L9.80274 8.63773C9.76749 9.20325 9.69732 10.015 9.60116 10.6102C9.55349 10.9053 9.49816 11.156 9.43424 11.2953C9.41801 11.3307 9.39959 11.3626 9.37814 11.3868C9.35678 11.411 9.32752 11.4327 9.29063 11.4345C9.25288 11.4363 9.22144 11.4167 9.19752 11.3912C9.174 11.3662 9.15347 11.3314 9.13482 11.2902L9.24147 11.2317C9.25722 11.2665 9.27058 11.2866 9.2804 11.297C9.2828 11.2996 9.28468 11.3012 9.28605 11.3023C9.28765 11.301 9.28994 11.2989 9.29294 11.2956C9.30249 11.2848 9.31445 11.2659 9.32794 11.2365C9.38292 11.1167 9.43599 10.8842 9.48392 10.5876ZM9.28329 11.3041C9.28329 11.3041 9.28335 11.304 9.28347 11.304C9.28335 11.3041 9.28329 11.3041 9.28329 11.3041ZM9.28849 11.3039C9.28876 11.304 9.28889 11.3041 9.28889 11.3041C9.28889 11.3041 9.28876 11.3041 9.28849 11.3039Z" fill="#1D2B53"/>
<path fill-rule="evenodd" clip-rule="evenodd" d="M9.07595 7.26714C9.0717 7.14053 9.11815 6.97729 9.15899 6.86908L9.26897 6.91906C9.22962 7.02329 9.19169 7.1648 9.19495 7.26203C9.19662 7.31163 9.20829 7.33158 9.21684 7.33849C9.22397 7.34424 9.24792 7.35576 9.3129 7.33061L9.35222 7.45412C9.27354 7.48457 9.2008 7.48816 9.14623 7.4441C9.09308 7.4012 9.07804 7.32945 9.07595 7.26714Z" fill="#1D2B53"/>
<path fill-rule="evenodd" clip-rule="evenodd" d="M8.80373 7.34038C8.79948 7.21377 8.84593 7.05053 8.88678 6.94232L8.99675 6.9923C8.9574 7.09653 8.91947 7.23804 8.92274 7.33527C8.9244 7.38487 8.93608 7.40483 8.94463 7.41173C8.95176 7.41749 8.97571 7.429 9.04069 7.40385L9.08 7.52736C9.00132 7.55782 8.92859 7.5614 8.87402 7.51735C8.82086 7.47444 8.80582 7.4027 8.80373 7.34038Z" fill="#1D2B53"/>
<path fill-rule="evenodd" clip-rule="evenodd" d="M8.56671 7.50188C8.56285 7.38383 8.60534 7.23204 8.64255 7.13169L8.7528 7.18091C8.71707 7.27727 8.6828 7.40768 8.68572 7.49689C8.68722 7.54269 8.69784 7.55933 8.70381 7.56423C8.70792 7.56762 8.72707 7.57904 8.78539 7.55604L8.82537 7.67929C8.75308 7.7078 8.68433 7.7119 8.63236 7.66917C8.58225 7.62797 8.5686 7.55971 8.56671 7.50188Z" fill="#1D2B53"/>
<path fill-rule="evenodd" clip-rule="evenodd" d="M5.66484 8.45366C5.80524 8.3308 6.04146 8.16595 6.21487 8.05225L6.2761 8.16473C6.10321 8.27809 5.87289 8.43916 5.73919 8.55617C5.72856 8.56547 5.7187 8.57436 5.70966 8.58278C5.71337 8.5818 5.71719 8.58077 5.72115 8.57968L5.75054 8.70663C5.69672 8.72153 5.6528 8.72972 5.62021 8.72856C5.6046 8.72801 5.58355 8.72519 5.5648 8.71247C5.54108 8.69639 5.52763 8.6689 5.52862 8.63846C5.5294 8.61452 5.53893 8.59456 5.54629 8.58175C5.55443 8.56759 5.56497 8.55367 5.57624 8.54047C5.59889 8.51397 5.62969 8.48442 5.66484 8.45366ZM5.61917 8.59728C5.61917 8.59728 5.61929 8.5973 5.61951 8.59736C5.61927 8.59732 5.61917 8.59729 5.61917 8.59728ZM5.64588 8.65407C5.64574 8.65445 5.64564 8.65464 5.64563 8.65464C5.64562 8.65465 5.64569 8.65446 5.64588 8.65407Z" fill="#1D2B53"/>
<path fill-rule="evenodd" clip-rule="evenodd" d="M3.00368 9.29884C2.98464 10.1144 3.12609 10.9262 3.42019 11.6879C3.7143 12.4496 4.15541 13.1466 4.71873 13.7388C5.28207 14.3311 5.95654 14.8069 6.70382 15.1387C7.4511 15.4706 8.25633 15.6519 9.07346 15.6722C9.8906 15.6924 10.7034 15.5512 11.4653 15.2567C12.2272 14.9622 12.9231 14.5203 13.5134 13.9567C14.1037 13.393 14.5768 12.7187 14.9061 11.9724C15.2354 11.2261 15.4146 10.4223 15.4337 9.60671L15.513 9.60868C15.4937 10.4369 15.3117 11.2529 14.9776 12.0103C14.6434 12.7676 14.1635 13.4513 13.5653 14.0225C12.9672 14.5936 12.2624 15.041 11.4914 15.339C10.7203 15.6371 9.89801 15.7799 9.07143 15.7594C8.24484 15.739 7.43016 15.5556 6.67389 15.2197C5.91762 14.8839 5.23458 14.4021 4.66377 13.802C4.09296 13.2019 3.64555 12.4952 3.3471 11.7222C3.04864 10.9492 2.90498 10.1251 2.92432 9.29688L3.00368 9.29884Z" fill="#1D2B53"/>
<path d="M3.78782 8.76388C3.8018 8.76191 3.81262 8.76459 3.82029 8.77193C3.82835 8.77927 3.83211 8.78933 3.83157 8.80212C3.83111 8.80851 3.82989 8.81361 3.8279 8.81742C3.82592 8.82123 3.82317 8.82419 3.81966 8.82628C3.81654 8.82795 3.81265 8.82939 3.80798 8.83062C3.80371 8.83142 3.79866 8.83222 3.79283 8.833C3.787 8.83421 3.78139 8.83393 3.77598 8.83217C3.77058 8.82997 3.76577 8.82693 3.76155 8.82305C3.75733 8.81916 3.75389 8.81486 3.75123 8.81014C3.74896 8.80542 3.74785 8.80072 3.7479 8.79603C3.74796 8.79091 3.74918 8.78667 3.75154 8.78328C3.7543 8.77948 3.75763 8.77632 3.76154 8.77381C3.76584 8.77087 3.77012 8.76879 3.7744 8.76756C3.77907 8.76591 3.78355 8.76468 3.78782 8.76388Z" fill="#1D2B53"/>
<path d="M3.28483 8.36153C3.31076 8.36524 3.33321 8.36806 3.35219 8.36998C3.37117 8.37148 3.38685 8.37273 3.39925 8.37372C3.41358 8.37474 3.42559 8.3751 3.43529 8.37478C3.44537 8.37447 3.45914 8.37357 3.47661 8.37206C3.49135 8.37096 3.51075 8.36948 3.53481 8.36762C3.55887 8.36534 3.58895 8.36228 3.62505 8.35844C3.62532 8.36825 3.62541 8.37784 3.6253 8.38722C3.62558 8.39617 3.62588 8.40406 3.62619 8.41089C3.62648 8.41899 3.62659 8.42645 3.62651 8.43327C3.62642 8.44052 3.62593 8.44968 3.62502 8.46075C3.62414 8.47012 3.62265 8.48204 3.62054 8.49651C3.61883 8.51056 3.61611 8.52737 3.61239 8.54693C3.60724 8.52385 3.60222 8.50525 3.59734 8.49112C3.59247 8.47657 3.58795 8.46501 3.58379 8.45644C3.57925 8.44658 3.57469 8.43907 3.57009 8.4339C3.5651 8.43 3.55913 8.42674 3.55218 8.4241C3.546 8.42189 3.53808 8.4201 3.5284 8.41871C3.51911 8.41732 3.50806 8.4174 3.49525 8.41896C3.49266 8.4752 3.49077 8.5208 3.48959 8.55574C3.48841 8.59068 3.48752 8.61795 3.4869 8.63756C3.48624 8.661 3.48585 8.67783 3.48573 8.68806C3.48595 8.70256 3.48792 8.71686 3.49163 8.73097C3.49459 8.74294 3.49949 8.75536 3.50632 8.76823C3.51315 8.7811 3.52309 8.79251 3.53616 8.80247L3.46522 8.80165C3.45863 8.80157 3.45049 8.8019 3.44079 8.80264C3.43264 8.8034 3.42216 8.80413 3.40936 8.80484C3.39695 8.80554 3.3824 8.80687 3.3657 8.8088C3.37165 8.79779 3.37641 8.78783 3.38001 8.77892C3.3836 8.77001 3.3864 8.76236 3.38841 8.75599C3.39083 8.74835 3.39265 8.74155 3.39388 8.73559C3.39437 8.72707 3.39554 8.70982 3.39739 8.68384C3.3979 8.67319 3.39844 8.65998 3.39901 8.64421C3.39997 8.62845 3.40097 8.6097 3.40199 8.58797C3.40341 8.56625 3.40467 8.54132 3.40577 8.5132C3.40726 8.48466 3.4088 8.45249 3.41038 8.4167C3.40343 8.41448 3.39683 8.41462 3.3906 8.41711C3.38438 8.41917 3.37892 8.42187 3.37423 8.42523C3.36875 8.42943 3.36346 8.43448 3.35835 8.44039C3.35323 8.44758 3.3475 8.45689 3.34116 8.46833C3.33562 8.47807 3.32927 8.491 3.3221 8.50711C3.31494 8.5228 3.30677 8.54232 3.29758 8.56566C3.29593 8.54092 3.29481 8.52065 3.29422 8.50487C3.29363 8.48867 3.29319 8.47609 3.29291 8.46713C3.29265 8.45647 3.29254 8.44858 3.2926 8.44347C3.29266 8.43878 3.29234 8.43259 3.29165 8.42491C3.29095 8.41851 3.29008 8.41018 3.28904 8.39994C3.288 8.38927 3.2866 8.37647 3.28483 8.36153Z" fill="#1D2B53"/>
<path d="M3.18015 8.35816C3.17456 8.37174 3.16958 8.38362 3.1652 8.3938C3.16081 8.40398 3.15703 8.41268 3.15384 8.41989C3.15026 8.42794 3.14727 8.43516 3.14487 8.44152C3.14288 8.44619 3.14028 8.45255 3.13709 8.46062C3.1339 8.46783 3.12992 8.47737 3.12513 8.48925C3.12073 8.50071 3.11494 8.51557 3.10775 8.53381C3.10444 8.518 3.10034 8.5041 3.09544 8.49211C3.09054 8.48011 3.08523 8.46961 3.07952 8.46059C3.07381 8.45157 3.06769 8.44425 3.06117 8.43863C3.05503 8.43259 3.04889 8.42762 3.04273 8.42371C3.02849 8.41502 3.01343 8.41016 2.99754 8.40912C2.9766 8.41016 2.96008 8.4138 2.94799 8.42006C2.93629 8.42589 2.92768 8.43282 2.92216 8.44086C2.91664 8.44847 2.91364 8.45653 2.91316 8.46505C2.91268 8.47315 2.91357 8.47998 2.91583 8.48555C2.91771 8.49068 2.92442 8.49673 2.93597 8.50368C2.94791 8.51064 2.96216 8.5187 2.97872 8.52784C2.99568 8.53656 3.01378 8.54658 3.03303 8.55789C3.05229 8.56877 3.06998 8.58091 3.08611 8.59431C3.10263 8.60729 3.11642 8.62152 3.12748 8.637C3.13894 8.65205 3.14515 8.66811 3.14611 8.68517C3.14702 8.70692 3.1466 8.72653 3.14485 8.74399C3.1431 8.76145 3.1375 8.7763 3.12805 8.78855C3.1186 8.80081 3.10395 8.81044 3.0841 8.81746C3.06464 8.82448 3.03764 8.82864 3.00313 8.82995C2.96745 8.83124 2.93821 8.82877 2.9154 8.82254C2.8926 8.8163 2.87409 8.80799 2.85987 8.79759C2.84603 8.7872 2.8357 8.77578 2.82887 8.76334C2.82242 8.7509 2.81771 8.73912 2.81474 8.72801C2.81177 8.71646 2.80975 8.70663 2.80868 8.69852C2.80762 8.68998 2.80574 8.68485 2.80305 8.68311C2.79997 8.68094 2.79689 8.67899 2.79381 8.67725C2.79112 8.67551 2.78823 8.67398 2.78514 8.67267C2.78206 8.67093 2.77898 8.6694 2.77589 8.66809L2.94544 8.64C2.93565 8.64841 2.928 8.65621 2.92249 8.66339C2.91736 8.67058 2.91341 8.67693 2.91063 8.68244C2.90746 8.6888 2.90526 8.69474 2.90403 8.70027C2.90319 8.70623 2.90484 8.71371 2.909 8.72271C2.91316 8.73171 2.91888 8.74051 2.92614 8.74912C2.9338 8.75731 2.94264 8.76423 2.95265 8.76989C2.96266 8.77555 2.9731 8.77802 2.98397 8.77729C2.99755 8.77617 3.00864 8.77267 3.01723 8.76681C3.02584 8.76051 3.03232 8.7527 3.0367 8.74337C3.04146 8.73405 3.04429 8.72385 3.04519 8.71278C3.0461 8.7017 3.04525 8.69082 3.04266 8.68013C3.04047 8.66902 3.03671 8.65875 3.03139 8.64931C3.02608 8.63944 3.01978 8.63127 3.01249 8.62479C3.00596 8.6196 2.99574 8.61458 2.98184 8.60973C2.96833 8.60488 2.95308 8.59959 2.93609 8.59385C2.91948 8.58812 2.90231 8.58152 2.88456 8.57407C2.8672 8.56662 2.85141 8.55748 2.8372 8.54666C2.82336 8.53584 2.81227 8.52314 2.80391 8.50855C2.79594 8.49396 2.79304 8.47645 2.79522 8.45601C2.79697 8.43855 2.80218 8.42412 2.81084 8.41271C2.81989 8.40088 2.83105 8.39163 2.84431 8.38496C2.85796 8.37787 2.87294 8.37272 2.88926 8.3695C2.90597 8.36628 2.92285 8.36456 2.93991 8.36433C2.95736 8.36368 2.97442 8.36409 2.99107 8.36556C3.00811 8.36704 3.0234 8.36871 3.03695 8.37057C3.0505 8.37243 3.06191 8.37427 3.0712 8.37608C3.08087 8.37748 3.08687 8.3784 3.08919 8.37885C3.09926 8.37982 3.10934 8.37972 3.11943 8.37856C3.12836 8.37781 3.13807 8.37601 3.14857 8.37315C3.15946 8.36986 3.16999 8.36487 3.18015 8.35816Z" fill="#1D2B53"/>
<path d="M2.30444 8.37988C2.33157 8.38105 2.35404 8.38195 2.37187 8.38258C2.39009 8.3828 2.40481 8.38297 2.41606 8.3831L2.44687 8.38345L2.62014 8.38546C2.62081 8.394 2.6213 8.40232 2.62159 8.41042C2.62228 8.4181 2.62259 8.42493 2.62252 8.43089C2.62243 8.43814 2.62216 8.44474 2.62171 8.45071C2.62125 8.45667 2.62059 8.46306 2.61974 8.46987C2.6189 8.47583 2.61805 8.48221 2.61719 8.48902C2.61634 8.49583 2.6149 8.50285 2.61288 8.51007C2.60772 8.48699 2.60056 8.46943 2.59139 8.45739C2.58261 8.44535 2.57361 8.43651 2.56437 8.43086C2.55359 8.42434 2.54219 8.4208 2.53018 8.42023C2.51428 8.4209 2.50186 8.42225 2.49292 8.42427C2.48398 8.4263 2.47697 8.4292 2.47188 8.43298C2.4668 8.43676 2.46287 8.44119 2.4601 8.44627C2.45772 8.45094 2.45514 8.45623 2.45235 8.46217C2.44997 8.46726 2.44775 8.47512 2.44568 8.48575C2.44364 8.49468 2.44156 8.50681 2.43945 8.52213C2.43772 8.53746 2.43574 8.55726 2.43352 8.58153C2.44403 8.57824 2.4524 8.57514 2.45864 8.57223C2.46526 8.56932 2.47052 8.56683 2.47442 8.56474C2.47872 8.56223 2.48185 8.55992 2.48381 8.55781C2.48539 8.55528 2.48777 8.55061 2.49095 8.54383C2.49334 8.53789 2.49654 8.52983 2.50053 8.51964C2.50492 8.50946 2.51012 8.49545 2.51614 8.47762C2.51669 8.49723 2.51689 8.51365 2.51673 8.52686C2.51658 8.53965 2.51666 8.5501 2.51695 8.5582C2.51684 8.56758 2.51695 8.57504 2.51727 8.58058L2.51699 8.60488C2.51689 8.61383 2.51675 8.62598 2.51657 8.64132C2.51678 8.65625 2.51714 8.67522 2.51765 8.69825C2.51318 8.68242 2.50906 8.67001 2.50529 8.66102C2.50191 8.6516 2.49889 8.64453 2.49623 8.63981C2.4932 8.63423 2.49053 8.63036 2.48823 8.62821C2.48552 8.62732 2.48185 8.62643 2.47721 8.62552C2.47295 8.62505 2.46753 8.62477 2.46094 8.62469C2.45473 8.62462 2.44678 8.62559 2.43706 8.62761C2.43563 8.65104 2.43521 8.67001 2.43582 8.68451C2.43682 8.69859 2.43824 8.70948 2.44009 8.71717C2.44193 8.72615 2.44418 8.73257 2.44685 8.73643C2.45029 8.74031 2.45723 8.74359 2.46767 8.74627C2.47811 8.74852 2.48992 8.74951 2.5031 8.74924C2.51668 8.74854 2.53047 8.74614 2.54447 8.74204C2.55848 8.73794 2.57096 8.73105 2.58193 8.72138C2.59016 8.71337 2.59901 8.70324 2.60845 8.69099C2.61633 8.68042 2.62501 8.6671 2.6345 8.65101C2.64438 8.63492 2.6541 8.61542 2.66367 8.59251C2.6619 8.61168 2.66055 8.62765 2.65963 8.64043C2.6591 8.65278 2.6584 8.66279 2.65754 8.67046C2.65666 8.6794 2.656 8.68621 2.65555 8.6909C2.6555 8.69601 2.65483 8.70325 2.65356 8.71262C2.65269 8.7207 2.6512 8.73177 2.6491 8.74582C2.64739 8.75944 2.64506 8.77689 2.6421 8.79817C2.62388 8.79838 2.60662 8.79861 2.59034 8.79885C2.57406 8.79866 2.55971 8.79871 2.5473 8.79899C2.53257 8.79924 2.519 8.79951 2.50659 8.79979C2.4938 8.79965 2.47964 8.80012 2.46412 8.80122C2.45054 8.80191 2.43444 8.80301 2.41582 8.8045C2.39758 8.80599 2.3774 8.8081 2.35527 8.81083C2.35754 8.78186 2.35921 8.7546 2.36029 8.72903C2.36175 8.70305 2.36279 8.68025 2.36341 8.66065C2.36406 8.63764 2.36431 8.61632 2.36415 8.59671C2.36666 8.54772 2.36634 8.50807 2.3632 8.47776C2.36007 8.44746 2.35622 8.42802 2.35167 8.41944C2.34938 8.41643 2.34612 8.41277 2.34191 8.40845C2.33846 8.405 2.33366 8.4009 2.32752 8.39614C2.32137 8.39138 2.31368 8.38596 2.30444 8.37988Z" fill="#1D2B53"/>
<path fill-rule="evenodd" clip-rule="evenodd" d="M3.82035 8.77054C3.81268 8.7632 3.80186 8.76052 3.78788 8.76249C3.78361 8.76329 3.77914 8.76452 3.77446 8.76617C3.77019 8.7674 3.7659 8.76948 3.7616 8.77242C3.75769 8.77493 3.75436 8.77809 3.7516 8.78189C3.74924 8.78527 3.74803 8.78952 3.74797 8.79464C3.74791 8.79933 3.74902 8.80403 3.75129 8.80875C3.75395 8.81347 3.75739 8.81777 3.76161 8.82165C3.76583 8.82554 3.77064 8.82858 3.77604 8.83077C3.78145 8.83254 3.78707 8.83282 3.79289 8.83161C3.79872 8.83082 3.80377 8.83003 3.80804 8.82923C3.81271 8.828 3.8166 8.82656 3.81972 8.82489C3.82324 8.8228 3.82598 8.81984 3.82797 8.81603C3.82995 8.81222 3.83117 8.80711 3.83163 8.80073C3.83217 8.78794 3.82841 8.77788 3.82035 8.77054ZM3.83322 8.75389C3.81987 8.74123 3.80268 8.73841 3.7854 8.74084L3.78499 8.7409L3.78458 8.74098C3.77943 8.74194 3.7742 8.74338 3.76892 8.74522C3.76275 8.74707 3.75689 8.74999 3.75137 8.75373C3.7455 8.75755 3.74036 8.76243 3.73609 8.76831L3.73598 8.76846L3.73588 8.76861C3.7304 8.77645 3.72822 8.78554 3.72812 8.79441C3.72802 8.80323 3.73014 8.81151 3.73375 8.81899L3.73406 8.81964L3.73441 8.82027C3.73828 8.82713 3.74315 8.83316 3.74885 8.8384C3.75488 8.84396 3.76169 8.84823 3.76913 8.85125L3.76973 8.85149L3.77034 8.8517C3.77871 8.85443 3.7873 8.85486 3.79585 8.85319C3.80165 8.8524 3.80682 8.85159 3.81134 8.85074L3.81198 8.85062L3.81261 8.85046C3.81819 8.84899 3.82356 8.84708 3.82837 8.84451L3.82876 8.8443L3.82914 8.84408C3.83591 8.84004 3.84137 8.83419 3.84519 8.82683C3.84914 8.81924 3.85082 8.81064 3.85142 8.80241L3.85144 8.80205L3.85146 8.80168C3.85224 8.78302 3.84651 8.76611 3.83322 8.75389Z" fill="white"/>
<path d="M16.1697 8.89007C16.1706 8.91627 16.166 8.93826 16.1559 8.95604L16.0916 8.95464L16.0835 9.08682L16.0488 9.09559C16.0275 9.08399 16.0103 9.06414 15.9971 9.03605L16.016 8.95311L15.9141 8.95128C15.9088 8.96344 15.9028 8.97493 15.8959 8.98577C15.889 8.99617 15.8822 9.00373 15.8754 9.00845C15.8671 9.0053 15.8588 8.99822 15.8506 8.98721C15.8424 8.97576 15.8352 8.96302 15.829 8.94898C15.8232 8.9345 15.8194 8.92136 15.8176 8.90956C15.8221 8.8952 15.8296 8.88263 15.84 8.87184L15.8704 8.87416L15.9591 8.61523L15.9806 8.6122C15.9893 8.61972 15.9969 8.62985 16.0035 8.64259C16.0105 8.65489 16.0147 8.66651 16.0162 8.67744L15.9321 8.88993L16.028 8.88974L16.0374 8.74644L16.0566 8.73357C16.0633 8.73496 16.0714 8.73963 16.0809 8.7476C16.0903 8.75513 16.0976 8.76198 16.1027 8.76815L16.0953 8.88986L16.1697 8.89007Z" fill="#1D2B53"/>
<path d="M15.5061 8.98934L15.6846 9.00516C15.6844 9.01607 15.6821 9.02739 15.6776 9.03913C15.6735 9.05087 15.6682 9.0615 15.6618 9.07103C15.6557 9.08013 15.6497 9.0866 15.6437 9.09046L15.4964 9.05274C15.488 9.05963 15.478 9.06606 15.4664 9.07204C15.4549 9.07801 15.4415 9.08331 15.4264 9.08794C15.4165 9.0791 15.4091 9.06853 15.4041 9.05625C15.3991 9.04353 15.3949 9.02864 15.3915 9.01158C15.4208 8.98573 15.4491 8.95899 15.4764 8.93137C15.5037 8.90331 15.5285 8.87631 15.5506 8.85038C15.5727 8.82444 15.5905 8.80151 15.6038 8.78159C15.6071 8.76897 15.6093 8.7548 15.6102 8.7391C15.6116 8.7234 15.6114 8.70877 15.6096 8.69522C15.5934 8.68717 15.575 8.68281 15.5543 8.68214C15.5341 8.68103 15.5152 8.68409 15.4977 8.6913L15.49 8.78485C15.4813 8.7878 15.4717 8.78966 15.4614 8.79041C15.4511 8.79073 15.4421 8.78932 15.4346 8.78617L15.424 8.67604C15.4301 8.66564 15.4371 8.65568 15.4452 8.64617C15.4532 8.63622 15.4607 8.62801 15.4675 8.62154C15.497 8.61272 15.5224 8.60799 15.5439 8.60737C15.5657 8.60675 15.5883 8.60919 15.6117 8.6147C15.629 8.62756 15.643 8.6406 15.6535 8.65382C15.6641 8.66704 15.6734 8.68134 15.6816 8.69671L15.6744 8.80729C15.6634 8.82637 15.6489 8.8465 15.6308 8.86768C15.6131 8.88886 15.5934 8.91003 15.5717 8.93117C15.55 8.95187 15.5282 8.97126 15.5061 8.98934Z" fill="#1D2B53"/>
<path d="M15.1727 8.61285C15.1802 8.61905 15.188 8.62678 15.1962 8.63604C15.2049 8.64531 15.2129 8.65479 15.2203 8.66448C15.2277 8.67417 15.2334 8.6834 15.2373 8.69218L15.2236 8.99323C15.218 9.0019 15.2107 9.01142 15.2019 9.02179C15.193 9.03216 15.1836 9.04209 15.1735 9.05158C15.1635 9.06063 15.1539 9.06838 15.1447 9.07482L15.034 9.07354C15.0276 9.07259 15.0193 9.069 15.0091 9.06277C14.9988 9.05654 14.9882 9.04899 14.9772 9.04014C14.9662 9.03084 14.9566 9.02134 14.9483 9.01164C14.9401 9.00151 14.9349 8.9925 14.9326 8.98461L14.952 8.69214C14.9561 8.68477 14.9618 8.6761 14.969 8.66615C14.9767 8.65576 14.9849 8.64582 14.9938 8.63631C15.0026 8.62638 15.0107 8.61818 15.0179 8.61171C15.0469 8.60594 15.0741 8.6032 15.0996 8.60349C15.1254 8.60336 15.1497 8.60648 15.1727 8.61285ZM15.1575 8.68863C15.1381 8.68361 15.1169 8.68118 15.0939 8.68135C15.0713 8.68152 15.0502 8.68477 15.0307 8.69109C15.024 8.71459 15.0185 8.74246 15.0142 8.77472C15.0103 8.80654 15.0077 8.83859 15.0065 8.87088L15.163 8.73061C15.1623 8.72318 15.1614 8.71596 15.1603 8.70897C15.1595 8.70154 15.1586 8.69476 15.1575 8.68863ZM15.0139 9.00586L15.1487 8.98319C15.1542 8.95881 15.1583 8.93048 15.161 8.89821C15.1642 8.86551 15.1658 8.83301 15.1657 8.8007L15.0069 8.94357C15.0075 8.9558 15.0084 8.96716 15.0095 8.97765C15.0109 8.98771 15.0124 8.99711 15.0139 9.00586Z" fill="#1D2B53"/>
<path d="M14.5864 8.97859L14.7649 8.99442C14.7648 9.00533 14.7625 9.01665 14.7579 9.02839C14.7538 9.04012 14.7486 9.05076 14.7421 9.06029C14.736 9.06938 14.73 9.07586 14.724 9.07972L14.5768 9.042C14.5684 9.04888 14.5584 9.05532 14.5468 9.06129C14.5352 9.06727 14.5218 9.07257 14.5067 9.0772C14.4969 9.06835 14.4894 9.05779 14.4844 9.04551C14.4794 9.03279 14.4752 9.0179 14.4718 9.00084C14.5011 8.97499 14.5294 8.94825 14.5567 8.92063C14.5841 8.89257 14.6088 8.86557 14.6309 8.83964C14.6531 8.8137 14.6708 8.79077 14.6841 8.77085C14.6874 8.75822 14.6896 8.74406 14.6906 8.72836C14.6919 8.71266 14.6917 8.69803 14.6899 8.68448C14.6737 8.67643 14.6553 8.67207 14.6347 8.6714C14.6144 8.67029 14.5955 8.67334 14.578 8.68056L14.5704 8.77411C14.5616 8.77706 14.552 8.77892 14.5417 8.77967C14.5314 8.77999 14.5225 8.77857 14.515 8.77543L14.5043 8.6653C14.5104 8.65489 14.5175 8.64494 14.5255 8.63542C14.5336 8.62548 14.541 8.61727 14.5478 8.6108C14.5773 8.60198 14.6028 8.59725 14.6242 8.59663C14.6461 8.59601 14.6687 8.59845 14.692 8.60396C14.7093 8.61682 14.7233 8.62986 14.7338 8.64308C14.7444 8.6563 14.7538 8.6706 14.7619 8.68597L14.7547 8.79655C14.7437 8.81563 14.7292 8.83576 14.7111 8.85694C14.6934 8.87812 14.6737 8.89928 14.652 8.92042C14.6303 8.94113 14.6085 8.96052 14.5864 8.97859Z" fill="#1D2B53"/>
<path fill-rule="evenodd" clip-rule="evenodd" d="M16.189 8.86895L16.1897 8.88987C16.1907 8.91934 16.1856 8.94593 16.1728 8.96826L16.1668 8.97877L16.1103 8.97753L16.1024 9.1051L16.0465 9.11926L16.0402 9.1158C16.0143 9.10174 15.9943 9.07808 15.9796 9.04674L15.9762 9.03944L15.9908 8.97514L15.9263 8.97398C15.9221 8.98259 15.9174 8.9909 15.9123 8.99888L15.9122 8.99906L15.9121 8.99923C15.9044 9.01094 15.8958 9.02084 15.8861 9.02755L15.878 9.03316L15.869 9.02973C15.856 9.02478 15.8449 9.01446 15.8354 9.00172L15.8353 9.00156L15.8352 9.0014C15.826 8.98863 15.8181 8.97454 15.8113 8.95919L15.8112 8.95882L15.811 8.95845C15.8048 8.94284 15.8004 8.92797 15.7982 8.91396L15.7973 8.90841L15.799 8.90309C15.8046 8.88527 15.8139 8.86972 15.8266 8.8566L15.833 8.85006L15.8572 8.85191L15.9449 8.59591L15.9866 8.59004L15.9931 8.59573C16.004 8.60522 16.0131 8.61752 16.0207 8.63202C16.0286 8.64599 16.034 8.66032 16.036 8.67488L16.0368 8.68104L15.9626 8.8687L16.0097 8.8686L16.0185 8.73434L16.053 8.71123L16.0605 8.71277C16.0717 8.71508 16.0826 8.72211 16.0929 8.73075C16.1028 8.73869 16.1112 8.74648 16.1175 8.75413L16.1232 8.76097L16.1167 8.86875L16.189 8.86895ZM16.0954 8.89052L16.1699 8.89073C16.17 8.89547 16.17 8.90007 16.1698 8.90454C16.1697 8.90726 16.1695 8.90993 16.1693 8.91255C16.1676 8.92938 16.1632 8.9441 16.156 8.9567L16.0917 8.9553L16.0836 9.08748L16.049 9.09624C16.0277 9.08464 16.0105 9.0648 15.9973 9.03671L16.0161 8.95377L15.9143 8.95193C15.909 8.96409 15.9029 8.97559 15.896 8.98642C15.8892 8.99682 15.8823 9.00438 15.8755 9.0091C15.8672 9.00595 15.859 8.99887 15.8508 8.98786C15.8426 8.97642 15.8354 8.96367 15.8292 8.94963C15.8234 8.93516 15.8196 8.92202 15.8177 8.91021C15.8223 8.89586 15.8298 8.88329 15.8402 8.87249L15.8705 8.87481L15.9593 8.61588L15.9808 8.61286C15.9894 8.62038 15.997 8.63051 16.0036 8.64324C16.0106 8.65555 16.0149 8.66717 16.0163 8.6781L15.9323 8.89059L16.0282 8.89039L16.0376 8.7471L16.0568 8.73422C16.0635 8.73561 16.0716 8.74029 16.081 8.74826C16.0905 8.75579 16.0977 8.76264 16.1028 8.76881L16.0954 8.89052Z" fill="white"/>
<path fill-rule="evenodd" clip-rule="evenodd" d="M15.544 8.60797C15.5659 8.60735 15.5885 8.60979 15.6118 8.6153C15.6291 8.62816 15.6431 8.6412 15.6536 8.65442C15.6642 8.66764 15.6736 8.68193 15.6817 8.69731L15.6745 8.80789C15.6635 8.82697 15.649 8.8471 15.6309 8.86828C15.6132 8.88946 15.5935 8.91062 15.5718 8.93176C15.5579 8.94509 15.5438 8.95787 15.5297 8.97011C15.5219 8.97689 15.5141 8.98349 15.5062 8.98993L15.6847 9.00575C15.6847 9.00927 15.6844 9.01283 15.6839 9.01643C15.6834 9.02004 15.6827 9.02369 15.6817 9.02739C15.6807 9.03145 15.6793 9.03556 15.6777 9.03972C15.6736 9.05146 15.6684 9.0621 15.6619 9.07162C15.6558 9.08072 15.6498 9.0872 15.6438 9.09106L15.4966 9.05334C15.4882 9.06022 15.4782 9.06666 15.4666 9.07263C15.455 9.07861 15.4416 9.08391 15.4265 9.08854C15.4167 9.07969 15.4092 9.06913 15.4042 9.05685C15.3992 9.04413 15.395 9.02924 15.3916 9.01218C15.4209 8.98632 15.4492 8.95959 15.4765 8.93197C15.5039 8.90391 15.5286 8.87691 15.5507 8.85098C15.5729 8.82504 15.5906 8.80211 15.6039 8.78218C15.6072 8.76956 15.6094 8.7554 15.6104 8.7397C15.6117 8.724 15.6115 8.70937 15.6097 8.69582C15.5935 8.68777 15.5751 8.68341 15.5545 8.68273C15.5342 8.68163 15.5153 8.68468 15.4978 8.6919L15.4902 8.78545C15.4814 8.7884 15.4718 8.79025 15.4615 8.79101C15.4512 8.79132 15.4423 8.78991 15.4348 8.78677L15.4241 8.67664C15.4302 8.66623 15.4373 8.65627 15.4453 8.64676C15.4534 8.63682 15.4608 8.62861 15.4676 8.62214C15.4971 8.61331 15.5226 8.60859 15.544 8.60797ZM15.4306 8.63209C15.4219 8.64246 15.4141 8.65338 15.4074 8.66488L15.4037 8.67135L15.4163 8.80241L15.4277 8.80717C15.4382 8.81157 15.4498 8.8132 15.462 8.81282L15.4624 8.81281L15.4628 8.81278C15.4744 8.81193 15.4855 8.80982 15.4959 8.80631L15.5087 8.802L15.5164 8.70833C15.5279 8.70511 15.5402 8.70381 15.5534 8.70453L15.5536 8.70454L15.5538 8.70455C15.5678 8.70501 15.5802 8.70732 15.5912 8.71131C15.5916 8.71952 15.5914 8.72829 15.5906 8.73765L15.5906 8.73795L15.5906 8.73826C15.5898 8.7511 15.5881 8.76248 15.5858 8.77249C15.5733 8.79076 15.5569 8.81194 15.5363 8.83606C15.5145 8.86158 15.4901 8.88821 15.4631 8.91597C15.4361 8.94324 15.4082 8.96964 15.3792 8.99517L15.3696 9.00365L15.3723 9.01686C15.3758 9.03497 15.3804 9.05127 15.386 9.06557L15.3861 9.06583C15.3924 9.0813 15.4018 9.09454 15.4139 9.10543L15.4218 9.1126L15.4318 9.10956C15.4477 9.10468 15.4622 9.09898 15.475 9.09239C15.4843 9.08758 15.4929 9.0824 15.5006 9.0768L15.647 9.11429L15.6538 9.10989C15.663 9.10399 15.6709 9.09501 15.6778 9.08457C15.6854 9.07347 15.6915 9.0612 15.6961 9.04786C15.7014 9.03405 15.7044 9.02004 15.7045 9.00598L15.7048 8.98564L15.5585 8.97266C15.5673 8.96472 15.5761 8.95658 15.5848 8.94823L15.585 8.94808C15.6071 8.92653 15.6272 8.90487 15.6454 8.88312C15.6641 8.86122 15.6795 8.84002 15.6913 8.8195L15.6939 8.81486L15.702 8.6921L15.6989 8.68628C15.6901 8.66971 15.68 8.65427 15.6686 8.63999C15.6566 8.62503 15.6413 8.61081 15.6229 8.5972L15.6198 8.59484L15.616 8.59396C15.5913 8.58812 15.5671 8.58548 15.5435 8.58615C15.52 8.58683 15.4929 8.59197 15.4625 8.60108L15.4581 8.60238L15.4547 8.60562C15.4471 8.61285 15.439 8.62173 15.4306 8.63209Z" fill="white"/>
<path fill-rule="evenodd" clip-rule="evenodd" d="M15.1817 8.59334L15.1849 8.59599C15.1933 8.60295 15.2018 8.61139 15.2105 8.62117C15.2195 8.63084 15.2279 8.64078 15.2358 8.65096C15.244 8.66165 15.2506 8.67239 15.2554 8.6832L15.2576 8.68821L15.2434 9.00127L15.24 9.00651C15.2337 9.01616 15.2259 9.02642 15.2166 9.03728C15.2072 9.04824 15.1973 9.05871 15.1867 9.06869L15.1866 9.06885L15.1864 9.06901C15.1758 9.07852 15.1656 9.08681 15.1556 9.0938L15.1506 9.09728L15.0327 9.09592L15.0315 9.09573C15.0215 9.09424 15.0106 9.08908 14.9997 9.08245C14.9886 9.07571 14.9773 9.06765 14.9657 9.05833L14.9655 9.05818L14.9653 9.05803C14.9536 9.04811 14.9431 9.03782 14.9341 9.02712L14.9339 9.02694L14.9338 9.02676C14.9247 9.01563 14.9174 9.00394 14.9139 8.99187L14.9127 8.98785L14.9328 8.68594L14.9353 8.68145C14.94 8.67296 14.9462 8.66348 14.9538 8.65309L14.9539 8.65299C14.962 8.642 14.9707 8.63149 14.98 8.62146C14.9892 8.6112 14.9977 8.60246 15.0056 8.59537L15.0096 8.59181L15.0146 8.59081C15.0447 8.58484 15.0731 8.58194 15.0999 8.58224C15.1272 8.58211 15.1532 8.58541 15.1778 8.59227L15.1817 8.59334ZM15.1729 8.61343C15.1804 8.61962 15.1883 8.62735 15.1965 8.63662C15.2051 8.64588 15.2131 8.65536 15.2206 8.66505C15.228 8.67474 15.2337 8.68398 15.2375 8.69275L15.2239 8.9938C15.2182 9.00247 15.211 9.01199 15.2021 9.02236C15.1933 9.03274 15.1838 9.04267 15.1738 9.05215C15.1638 9.06121 15.1542 9.06895 15.145 9.07539L15.0342 9.07411C15.0279 9.07316 15.0196 9.06957 15.0093 9.06334C14.9991 9.05711 14.9884 9.04957 14.9774 9.04071C14.9664 9.03141 14.9568 9.02192 14.9486 9.01222C14.9404 9.00208 14.9351 8.99307 14.9328 8.98519L14.9523 8.69272C14.9564 8.68534 14.962 8.67668 14.9693 8.66672C14.9769 8.65633 14.9852 8.64639 14.994 8.63689C15.0029 8.62695 15.0109 8.61875 15.0181 8.61228C15.0472 8.60651 15.0744 8.60377 15.0998 8.60406C15.1256 8.60393 15.15 8.60705 15.1729 8.61343ZM15.1408 8.7126L15.1408 8.71186C15.1406 8.7104 15.1405 8.70898 15.1403 8.70759C15.1261 8.70493 15.1108 8.70362 15.0942 8.70374C15.0773 8.70388 15.0615 8.70586 15.0468 8.70961C15.0419 8.7293 15.0376 8.75216 15.0341 8.77831C15.0323 8.79313 15.0307 8.80801 15.0295 8.82294L15.1422 8.72191C15.1418 8.71901 15.1414 8.71615 15.141 8.71333L15.1408 8.7126ZM15.1632 8.73118L15.0068 8.87145C15.0071 8.86162 15.0076 8.85181 15.0082 8.84202C15.0096 8.81966 15.0117 8.79742 15.0145 8.77529C15.0188 8.74303 15.0243 8.71516 15.0309 8.69166C15.0504 8.68534 15.0715 8.68209 15.0941 8.68192C15.1172 8.68175 15.1384 8.68418 15.1578 8.68921C15.1589 8.69533 15.1598 8.70211 15.1605 8.70954C15.1616 8.71654 15.1625 8.72375 15.1632 8.73118ZM15.1416 8.89653C15.1431 8.88039 15.1443 8.86431 15.145 8.84828L15.0276 8.95389C15.0281 8.96141 15.0287 8.96852 15.0294 8.97523C15.0297 8.9774 15.03 8.97953 15.0303 8.98164L15.1326 8.96445C15.1364 8.9446 15.1394 8.92207 15.1415 8.89679L15.1416 8.89653ZM15.149 8.98377L15.0142 9.00643C15.0127 8.99768 15.0112 8.98828 15.0097 8.97822C15.0087 8.96773 15.0078 8.95637 15.0071 8.94414L15.166 8.80127C15.166 8.81076 15.1659 8.82027 15.1656 8.82979C15.165 8.85269 15.1635 8.87569 15.1613 8.89878C15.1585 8.93106 15.1544 8.95938 15.149 8.98377Z" fill="white"/>
<path fill-rule="evenodd" clip-rule="evenodd" d="M14.6243 8.59722C14.6462 8.5966 14.6688 8.59905 14.6921 8.60456C14.7095 8.61742 14.7234 8.63046 14.734 8.64368C14.7445 8.6569 14.7539 8.67119 14.762 8.68656L14.7548 8.79714C14.7439 8.81622 14.7293 8.83635 14.7112 8.85753C14.6935 8.87872 14.6738 8.89988 14.6521 8.92102C14.6382 8.93435 14.6242 8.94713 14.61 8.95937C14.6022 8.96614 14.5944 8.97275 14.5866 8.97919L14.765 8.99501C14.765 8.99853 14.7647 9.00209 14.7642 9.00569C14.7637 9.0093 14.763 9.01295 14.762 9.01665C14.761 9.02071 14.7597 9.02482 14.7581 9.02898C14.754 9.04072 14.7487 9.05135 14.7422 9.06088C14.7362 9.06998 14.7301 9.07646 14.7241 9.08032L14.5769 9.04259C14.5685 9.04948 14.5585 9.05591 14.5469 9.06189C14.5353 9.06787 14.522 9.07317 14.5068 9.0778C14.497 9.06895 14.4896 9.05839 14.4846 9.04611C14.4795 9.03339 14.4753 9.0185 14.472 9.00143C14.5013 8.97558 14.5295 8.94884 14.5569 8.92122C14.5842 8.89317 14.6089 8.86617 14.631 8.84023C14.6532 8.8143 14.6709 8.79137 14.6842 8.77144C14.6876 8.75882 14.6897 8.74466 14.6907 8.72895C14.6921 8.71325 14.6918 8.69863 14.69 8.68507C14.6738 8.67703 14.6554 8.67267 14.6348 8.67199C14.6146 8.67088 14.5957 8.67394 14.5781 8.68116L14.5705 8.7747C14.5617 8.77766 14.5522 8.77951 14.5418 8.78027C14.5315 8.78058 14.5226 8.77917 14.5151 8.77603L14.5044 8.6659C14.5105 8.65549 14.5176 8.64553 14.5256 8.63602C14.5337 8.62607 14.5411 8.61787 14.548 8.6114C14.5774 8.60257 14.6029 8.59785 14.6243 8.59722ZM14.511 8.62135C14.5022 8.63171 14.4945 8.64264 14.4878 8.65413L14.484 8.66061L14.4966 8.79167L14.508 8.79642C14.5185 8.80083 14.5301 8.80246 14.5423 8.80208L14.5427 8.80207L14.5431 8.80204C14.5548 8.80119 14.5658 8.79908 14.5762 8.79557L14.589 8.79126L14.5967 8.69759C14.6082 8.69437 14.6206 8.69307 14.6338 8.69379L14.634 8.6938L14.6341 8.69381C14.6481 8.69426 14.6605 8.69658 14.6715 8.70057C14.6719 8.70877 14.6718 8.71755 14.6709 8.72691L14.6709 8.72721L14.6709 8.72751C14.6701 8.74036 14.6685 8.75174 14.6661 8.76174C14.6536 8.78002 14.6372 8.80119 14.6166 8.82532C14.5948 8.85083 14.5704 8.87747 14.5434 8.90523C14.5164 8.9325 14.4885 8.9589 14.4596 8.98443L14.45 8.99291L14.4526 9.00612C14.4562 9.02423 14.4607 9.04052 14.4663 9.05482L14.4664 9.05509C14.4728 9.07056 14.4821 9.0838 14.4942 9.09469L14.5022 9.10185L14.5121 9.09882C14.5281 9.09394 14.5425 9.08824 14.5553 9.08164C14.5646 9.07684 14.5732 9.07165 14.5809 9.06605L14.7273 9.10355L14.7341 9.09915C14.7433 9.09325 14.7512 9.08426 14.7582 9.07383C14.7657 9.06272 14.7718 9.05044 14.7765 9.0371C14.7817 9.0233 14.7847 9.0093 14.7849 8.99524L14.7851 8.97489L14.6388 8.96192C14.6476 8.95398 14.6564 8.94584 14.6651 8.93748L14.6653 8.93734C14.6874 8.91578 14.7076 8.89413 14.7258 8.87237C14.7445 8.85048 14.7598 8.82927 14.7716 8.80875L14.7742 8.80412L14.7823 8.68135L14.7792 8.67553C14.7704 8.65897 14.7603 8.64353 14.7489 8.62925C14.7369 8.61429 14.7216 8.60007 14.7033 8.58646L14.7001 8.5841L14.6963 8.58322C14.6716 8.57738 14.6474 8.57474 14.6239 8.57541C14.6003 8.57609 14.5732 8.58123 14.5428 8.59034L14.5384 8.59164L14.535 8.59488C14.5274 8.60211 14.5194 8.61099 14.511 8.62135Z" fill="white"/>
<path fill-rule="evenodd" clip-rule="evenodd" d="M15.4266 6.11277C15.1197 6.13664 14.8072 6.19879 14.6139 6.24869L14.5791 6.10178C14.7781 6.05039 15.0983 5.98668 15.4142 5.96211C15.5722 5.94982 15.7308 5.94718 15.8735 5.96131C16.015 5.97532 16.147 6.00633 16.2478 6.06586L16.1817 6.19798C16.106 6.1533 15.9966 6.12496 15.8629 6.11173C15.7304 6.09861 15.58 6.10084 15.4266 6.11277Z" fill="#FF004D"/>
<path fill-rule="evenodd" clip-rule="evenodd" d="M15.4497 6.48809L16.2057 6.111L16.2668 6.24805L15.5109 6.62513L15.4497 6.48809Z" fill="#FF004D"/>
<path fill-rule="evenodd" clip-rule="evenodd" d="M15.7301 6.84412C15.519 7.09777 15.2738 7.32544 15.1132 7.45689L15.1997 7.57747C15.3659 7.44151 15.6178 7.20763 15.8358 6.94575C15.9448 6.81476 16.0465 6.67544 16.1247 6.53671C16.2025 6.39878 16.2599 6.25681 16.2753 6.12117L16.1356 6.1003C16.1236 6.20634 16.077 6.32758 16.0041 6.4569C15.9316 6.58541 15.8357 6.71734 15.7301 6.84412Z" fill="#FF004D"/>
<path fill-rule="evenodd" clip-rule="evenodd" d="M14.8806 6.71714L15.224 6.54811L15.2842 6.68555L14.9408 6.85458L14.8806 6.71714Z" fill="#FF004D"/>
<path fill-rule="evenodd" clip-rule="evenodd" d="M15.4927 9.33464C15.3285 12.8569 12.546 15.6417 9.17187 15.6025C5.79766 15.5634 3.0805 12.7147 2.99821 9.1895C2.99439 9.27142 2.99199 9.35373 2.99103 9.43642C2.94881 13.0745 5.7135 16.0562 9.16613 16.0963C12.6188 16.1364 15.4519 13.2196 15.4941 9.58152C15.4951 9.49888 15.4946 9.41658 15.4927 9.33464Z" fill="#1D2B53"/>
<path fill-rule="evenodd" clip-rule="evenodd" d="M15.4634 9.89985C15.0454 13.163 12.3735 15.6615 9.17161 15.6243C5.96966 15.5872 3.35643 13.0273 3.01439 9.75524C3.13171 13.2344 5.82531 16.0357 9.16638 16.0745C12.5074 16.1133 15.2653 13.3753 15.4634 9.89985ZM15.4738 9.61754C15.1782 13.0048 12.4552 15.6406 9.17187 15.6025C5.88852 15.5644 3.22731 12.866 3.01055 9.47277C3.00978 9.46073 3.00904 9.44868 3.00833 9.43662C3.00352 9.35464 3.00014 9.27226 2.99821 9.1895C2.99439 9.27142 2.99199 9.35373 2.99103 9.43642C2.99089 9.44879 2.99078 9.46116 2.9907 9.47352C2.96763 13.0948 5.72524 16.0564 9.16613 16.0963C12.607 16.1362 15.4325 13.2395 15.4936 9.61876C15.4938 9.60635 15.494 9.59394 15.4941 9.58152C15.4951 9.49888 15.4946 9.41658 15.4927 9.33464C15.4888 9.41728 15.4835 9.49951 15.4768 9.58131C15.4758 9.5934 15.4748 9.60548 15.4738 9.61754Z" fill="white"/>
<path d="M4.13915 1.66978C3.82131 1.59448 3.66657 1.75728 3.62894 1.84809C3.69266 1.89102 3.74076 2.02155 3.78326 2.14341C3.82577 2.26526 4.37148 4.00699 4.4341 4.21603C4.48421 4.38326 4.56531 4.49415 4.5996 4.5287C4.80497 4.69807 5.07107 4.60731 5.15268 4.51012C5.2343 4.41293 5.14822 4.33531 5.06548 4.31886C4.99928 4.3057 4.97453 4.21509 4.97043 4.17143C4.92294 3.63775 4.83631 2.63557 4.86972 2.89626C4.91148 3.22213 5.20557 3.73427 5.28086 3.83241C5.35615 3.93055 5.6983 4.0137 5.82276 3.79649C5.94723 3.57928 5.9252 3.02295 5.90432 2.86001C5.88762 2.72966 5.72864 2.63101 5.65124 2.59798C5.70953 2.92462 5.79412 3.57304 5.66621 3.55366C5.5383 3.53427 5.30526 2.68294 5.20473 2.25969C5.04758 1.95625 4.77872 2.04645 4.66394 2.12949C4.59955 2.29815 4.61777 2.84113 4.63493 3.09154C4.54944 2.7973 4.37331 2.18966 4.35273 2.11298C4.33215 2.0363 4.20177 1.78556 4.13915 1.66978Z" fill="#1D2B53"/>
<path fill-rule="evenodd" clip-rule="evenodd" d="M3.64185 1.84445C3.67299 1.86891 3.69962 1.91181 3.72317 1.96135C3.74877 2.01521 3.7716 2.07885 3.79283 2.13973C3.83543 2.26186 4.3812 4.0038 4.44383 4.21284C4.49325 4.37781 4.57306 4.48689 4.60625 4.52054C4.70629 4.60284 4.82113 4.62205 4.92131 4.60869C5.02204 4.59524 5.10647 4.54907 5.14525 4.50289C5.16466 4.47977 5.17337 4.45869 5.17521 4.44027C5.17704 4.42196 5.17219 4.40516 5.16253 4.39018C5.14289 4.3597 5.10353 4.33726 5.06384 4.32937C5.02646 4.32194 5.00162 4.29275 4.98591 4.26153C4.97017 4.23026 4.96266 4.19526 4.96051 4.17234L4.96051 4.17229C4.93676 3.90544 4.90322 3.52145 4.8798 3.23674C4.8681 3.09442 4.85891 2.97681 4.85473 2.91105C4.85369 2.89461 4.85296 2.88134 4.85257 2.8717C4.85238 2.86689 4.85228 2.8629 4.85227 2.85983C4.85227 2.85725 4.8523 2.85409 4.85278 2.85183C4.85287 2.85139 4.85325 2.84953 4.85445 2.84767C4.8551 2.84667 4.8566 2.84471 4.85932 2.84365C4.86247 2.84242 4.86551 2.84307 4.86766 2.8443C4.86948 2.84533 4.87056 2.84669 4.87104 2.84735C4.87158 2.8481 4.87195 2.84879 4.87216 2.84923C4.87258 2.85011 4.87287 2.85094 4.87303 2.85147C4.87368 2.85351 4.87427 2.85651 4.87486 2.85989C4.87609 2.86701 4.87774 2.87858 4.87983 2.89489C4.90046 3.05587 4.9837 3.26397 5.07178 3.44485C5.15982 3.62563 5.25178 3.77743 5.28877 3.82565C5.30595 3.84804 5.33953 3.87078 5.38344 3.8887C5.42705 3.90649 5.47971 3.91906 5.53389 3.92196C5.64259 3.92776 5.75472 3.89468 5.81425 3.7908C5.84445 3.7381 5.86613 3.66406 5.88116 3.57931C5.89615 3.49473 5.90438 3.40028 5.90809 3.30729C5.91551 3.12125 5.9048 2.94208 5.89445 2.86131C5.88661 2.80019 5.8451 2.74519 5.7943 2.70072C5.75082 2.66266 5.70173 2.63338 5.66473 2.61564C5.69322 2.77866 5.72674 3.01171 5.73874 3.20495C5.74497 3.30537 5.74544 3.39578 5.73612 3.46015C5.73148 3.49219 5.72427 3.51895 5.71335 3.53732C5.70782 3.54661 5.70109 3.55421 5.69284 3.55907C5.68445 3.56401 5.67507 3.56577 5.66502 3.56424C5.6546 3.56266 5.64453 3.55702 5.63495 3.54892C5.62533 3.54078 5.61564 3.52971 5.60594 3.51631C5.58653 3.48952 5.56619 3.45229 5.54537 3.40745C5.50367 3.31768 5.45924 3.19571 5.41579 3.06148C5.32903 2.79351 5.24573 2.47534 5.19539 2.26354C5.11857 2.116 5.01554 2.06515 4.91821 2.06034C4.82121 2.05555 4.72871 2.09648 4.6723 2.13654C4.65737 2.17731 4.64688 2.24034 4.63999 2.31685C4.63295 2.39496 4.62973 2.48612 4.62906 2.58002C4.62771 2.7678 4.63654 2.96585 4.64511 3.09084L4.62541 3.09457C4.53995 2.80044 4.36377 2.19261 4.34315 2.11579C4.33827 2.09757 4.3266 2.06825 4.3105 2.03214C4.29449 1.99623 4.27438 1.95423 4.25291 1.91093C4.21101 1.82639 4.16409 1.73716 4.13279 1.67919C3.8318 1.60965 3.68294 1.75746 3.64185 1.84445ZM3.61982 1.84364C3.65949 1.74793 3.81912 1.58293 4.14136 1.65927L4.14575 1.66031L4.148 1.66446C4.17935 1.72244 4.22767 1.81419 4.27074 1.90108C4.29227 1.94452 4.31253 1.98682 4.32871 2.02311C4.3448 2.0592 4.35715 2.08997 4.36255 2.1101C4.38123 2.17972 4.52865 2.68878 4.6195 3.00172C4.61305 2.88161 4.60782 2.72749 4.60888 2.57962C4.60956 2.48539 4.61279 2.39354 4.6199 2.31457C4.627 2.2359 4.63802 2.16901 4.6547 2.12532L4.65584 2.12236L4.65832 2.12056C4.71695 2.07815 4.81496 2.03377 4.91893 2.03891C5.02374 2.04408 5.13341 2.09959 5.21367 2.25456L5.2143 2.25578L5.21463 2.25713C5.26485 2.46858 5.34817 2.78691 5.43486 3.05469C5.47822 3.18863 5.52232 3.30958 5.56343 3.39811C5.58401 3.44242 5.60365 3.47819 5.62187 3.50332C5.63097 3.51589 5.63951 3.5255 5.6474 3.53217C5.65533 3.53888 5.66207 3.54215 5.66765 3.543C5.67359 3.5439 5.67853 3.54286 5.68293 3.54027C5.68746 3.5376 5.69197 3.53294 5.69626 3.52572C5.70497 3.51106 5.71168 3.48779 5.71618 3.45666C5.72515 3.3947 5.72482 3.30622 5.71861 3.20613C5.7062 3.00623 5.67056 2.76294 5.64145 2.59984L5.63805 2.58075L5.65503 2.58799C5.69452 2.60485 5.75457 2.6383 5.80702 2.68421C5.85923 2.72991 5.90556 2.78941 5.91443 2.85864C5.92497 2.94081 5.93571 3.12127 5.92824 3.30843C5.92451 3.40205 5.91621 3.49759 5.90098 3.58351C5.88578 3.66925 5.86354 3.74621 5.83151 3.80211C5.76657 3.91544 5.6454 3.94939 5.53309 3.94339C5.47676 3.94038 5.42199 3.92733 5.37639 3.90872C5.33108 3.89024 5.29366 3.86578 5.27319 3.83911C5.23489 3.78918 5.14216 3.63584 5.05389 3.45455C4.98486 3.31279 4.918 3.15285 4.88205 3.01098C4.88672 3.07272 4.89285 3.14939 4.8999 3.2351C4.92331 3.51971 4.95684 3.90363 4.98059 4.17045C4.98254 4.1912 4.98946 4.22333 5.00367 4.25156C5.01791 4.27986 5.03853 4.30255 5.06734 4.30828C5.1104 4.31684 5.15545 4.34144 5.17913 4.37818C5.19114 4.3968 5.19768 4.41866 5.19527 4.44276C5.19288 4.46673 5.18175 4.4918 5.16036 4.51728C5.11752 4.56829 5.02809 4.61609 4.92403 4.62998C4.81954 4.64392 4.69883 4.6239 4.59359 4.53711L4.59319 4.53678L4.59283 4.53641C4.55722 4.50054 4.47521 4.38804 4.42461 4.21915C4.36199 4.01011 3.81634 2.2686 3.77393 2.14701C3.75266 2.08603 3.73019 2.02348 3.70518 1.97087C3.67999 1.91787 3.65307 1.87687 3.62372 1.85711L3.61631 1.85211L3.61982 1.84364Z" fill="white"/>
<path d="M3.0632 5.35784C2.94692 5.44594 2.7771 5.368 2.70673 5.31802C2.70559 5.28016 2.68366 5.28386 2.7471 5.19706C2.81055 5.11026 2.83249 4.47388 2.76673 4.21381C2.70131 3.95503 2.62902 3.91878 2.53738 3.87283L2.53602 3.87214C2.46218 3.83512 2.38528 3.89597 2.35605 3.93102C1.96035 4.41157 1.97649 4.76087 1.95572 5.16395C1.93495 5.56704 2.08491 5.96989 2.21411 6.05276C2.34332 6.13564 2.91783 5.64873 3.00551 5.54357C3.07565 5.45944 3.26239 5.32744 3.34699 5.27195C3.4885 5.18626 3.76898 5.1485 3.75882 5.68299C3.74612 6.35111 3.43463 6.7033 3.34119 6.79991C3.24774 6.89653 2.89128 6.85672 2.85321 6.69189C2.82276 6.56002 2.90436 6.56275 2.94896 6.58061C3.07355 6.6928 3.16238 6.6255 3.19122 6.57783C3.42196 6.10606 3.4958 5.45618 3.42774 5.48192C3.35967 5.50766 3.39428 5.46853 3.08395 5.7682C2.77362 6.06787 2.48175 6.25026 2.35716 6.31883C2.23257 6.3874 2.00416 6.39259 1.90264 6.31456C1.80112 6.23653 1.58309 6.13058 1.64655 5.32071C1.71002 4.51084 2.11264 3.98631 2.17148 3.92883C2.23031 3.87134 2.44951 3.56325 2.82905 3.72761C3.20859 3.89197 3.20856 5.24771 3.0632 5.35784Z" fill="#1D2B53"/>
<path fill-rule="evenodd" clip-rule="evenodd" d="M2.18702 3.89768C2.26853 3.80745 2.48513 3.56769 2.83296 3.71832C2.93215 3.76127 3.0046 3.88083 3.05588 4.0333C3.10738 4.18643 3.13853 4.37576 3.1532 4.56291C3.16788 4.75011 3.16612 4.93572 3.15153 5.08164C3.14424 5.15456 3.13372 5.21788 3.12032 5.26664C3.11362 5.29102 3.10613 5.31202 3.09783 5.32887C3.0896 5.34557 3.0802 5.35897 3.0693 5.36722C3.00798 5.41368 2.93317 5.41588 2.86594 5.40084C2.79867 5.38579 2.73743 5.35317 2.70137 5.32756L2.697 5.32446L2.69683 5.3189C2.69661 5.31159 2.69554 5.30618 2.69442 5.3005C2.69426 5.29969 2.6941 5.29888 2.69394 5.29805C2.69264 5.29136 2.69146 5.28398 2.69293 5.27466C2.69571 5.25698 2.70776 5.23421 2.7393 5.19106C2.7459 5.18202 2.75279 5.1644 2.75929 5.13835C2.76569 5.1127 2.77143 5.08016 2.77637 5.04243C2.78626 4.96701 2.79287 4.87161 2.79546 4.77065C2.80065 4.56838 2.78965 4.34558 2.75717 4.21714C2.72463 4.08841 2.6907 4.01643 2.65441 3.97104C2.61829 3.92587 2.5792 3.90616 2.53333 3.88315L2.53196 3.88247C2.49856 3.86572 2.46408 3.87082 2.43362 3.88501C2.40307 3.89925 2.37768 3.92219 2.36383 3.93879C2.16691 4.17794 2.07284 4.38394 2.02524 4.57994C1.98503 4.74558 1.97791 4.90425 1.97042 5.07114C1.96902 5.1022 1.96762 5.13354 1.96598 5.16527C1.95567 5.36532 1.98774 5.56544 2.03842 5.72574C2.06376 5.80588 2.09367 5.87584 2.1251 5.93073C2.15667 5.98586 2.18922 6.02484 2.21945 6.04423C2.23239 6.05253 2.25244 6.05451 2.27987 6.04908C2.30698 6.04372 2.33952 6.03147 2.37587 6.01383C2.4485 5.97856 2.53462 5.92258 2.61981 5.86045C2.79038 5.73607 2.9551 5.58864 2.99811 5.53705C3.034 5.49401 3.09905 5.43938 3.16507 5.38893C3.23131 5.33831 3.29934 5.2913 3.34181 5.26345L3.34196 5.26335L3.34211 5.26326C3.41397 5.21975 3.52339 5.18688 3.61447 5.23598C3.70642 5.28556 3.7742 5.41547 3.7691 5.68394C3.75632 6.35592 3.44291 6.7106 3.34845 6.80827C3.32285 6.83473 3.28055 6.85082 3.2326 6.85822C3.18431 6.86568 3.12875 6.86456 3.07507 6.85516C3.02143 6.84577 2.96908 6.82801 2.92747 6.80173C2.88592 6.7755 2.854 6.74005 2.84359 6.69498C2.83577 6.6611 2.83484 6.63467 2.83942 6.6144C2.84408 6.59375 2.85441 6.57976 2.86802 6.57143C2.88132 6.56329 2.89687 6.56107 2.91149 6.56184C2.92617 6.56261 2.94068 6.56643 2.95263 6.57121L2.95428 6.57187L2.95563 6.57309C3.01613 6.62757 3.06643 6.63726 3.10412 6.62928C3.14209 6.62125 3.16929 6.59487 3.18266 6.573C3.29733 6.33839 3.37315 6.05926 3.4118 5.84185C3.43113 5.73307 3.44109 5.64016 3.44204 5.57632C3.44251 5.54421 3.44068 5.5203 3.43701 5.50556C3.43513 5.49801 3.4331 5.49429 3.43178 5.49284C3.43169 5.49274 3.43161 5.49266 3.43155 5.4926C3.4315 5.49262 3.43145 5.49264 3.43138 5.49266C3.42279 5.49591 3.41578 5.49816 3.40969 5.50011L3.40933 5.50022C3.40311 5.50222 3.39804 5.50386 3.39288 5.506C3.38283 5.51017 3.37188 5.51647 3.35299 5.53156C3.31481 5.56208 3.24632 5.62678 3.09096 5.7768C2.77988 6.0772 2.48726 6.26009 2.36205 6.32899C2.29794 6.36428 2.20799 6.38291 2.12154 6.38303C2.03535 6.38315 1.95029 6.36486 1.89696 6.32387C1.89101 6.31929 1.88461 6.3146 1.87786 6.30964C1.82748 6.27264 1.75716 6.221 1.70374 6.0971C1.64343 5.95719 1.60489 5.72609 1.63668 5.32035C1.66854 4.91375 1.78554 4.5788 1.90195 4.33828C2.01823 4.09805 2.13424 3.95139 2.16479 3.92154C2.17052 3.91594 2.17793 3.90774 2.18702 3.89768ZM2.20216 3.91214C2.19266 3.92261 2.18478 3.93128 2.17853 3.93739C2.15026 3.96502 2.03553 4.10937 1.91992 4.34824C1.80444 4.58683 1.6884 4.91907 1.6568 5.32233C1.62513 5.72647 1.66387 5.95328 1.72208 6.08832C1.77308 6.20662 1.83918 6.25522 1.8892 6.29199C1.89602 6.29701 1.90254 6.30181 1.90869 6.30653C1.95688 6.34357 2.03678 6.3617 2.12132 6.36158C2.2056 6.36146 2.29215 6.34321 2.35264 6.30993C2.47662 6.2417 2.76774 6.0598 3.07731 5.76087C3.23228 5.61122 3.30165 5.54565 3.34076 5.51438C3.36052 5.49858 3.37308 5.49111 3.38538 5.48601C3.3914 5.48352 3.39721 5.48165 3.40334 5.47969L3.40362 5.4796C3.40971 5.47764 3.41633 5.47552 3.42446 5.47245C3.42813 5.47106 3.43215 5.47061 3.43624 5.47169C3.44029 5.47276 3.44362 5.47514 3.44625 5.47803C3.45122 5.48351 3.45436 5.49157 3.45652 5.50025C3.46093 5.51796 3.4627 5.54429 3.46222 5.57686C3.46125 5.64237 3.45109 5.73659 3.43163 5.84603C3.39271 6.06493 3.31632 6.34641 3.20037 6.58348L3.20016 6.58391L3.19991 6.58432C3.18435 6.61005 3.15282 6.64089 3.10824 6.65032C3.06349 6.65979 3.00757 6.64729 2.94405 6.59064C2.93403 6.5868 2.92226 6.58387 2.91068 6.58326C2.89841 6.58262 2.88709 6.58461 2.87822 6.59004C2.86967 6.59527 2.86252 6.60421 2.85905 6.61958C2.8555 6.63532 2.85579 6.65801 2.86319 6.69006C2.87182 6.7274 2.89874 6.75875 2.93765 6.78332C2.9765 6.80785 3.02625 6.82491 3.07817 6.834C3.13004 6.84308 3.1835 6.8441 3.22951 6.837C3.27588 6.82984 3.31317 6.81468 3.3343 6.79283C3.42673 6.69726 3.73629 6.34756 3.74892 5.68331C3.75397 5.41729 3.68659 5.29883 3.60547 5.25509C3.52352 5.21091 3.42203 5.2397 3.35238 5.28183C3.31024 5.30947 3.24268 5.35616 3.17695 5.40638C3.11092 5.45684 3.04753 5.51027 3.01328 5.55136C2.96861 5.60494 2.80224 5.75354 2.63133 5.87818C2.54578 5.94057 2.45856 5.99734 2.3844 6.03335C2.34734 6.05134 2.31312 6.06436 2.28374 6.07017C2.25468 6.07592 2.22851 6.07499 2.20914 6.06256C2.17477 6.04052 2.14013 5.99806 2.10789 5.94175C2.07551 5.8852 2.045 5.81372 2.0193 5.7324C1.96789 5.56979 1.93536 5.36694 1.94583 5.1639C1.94745 5.13247 1.94884 5.10132 1.95023 5.07037C1.9577 4.90348 1.96492 4.74234 2.0057 4.5744C2.05415 4.37485 2.14985 4.16594 2.34861 3.92455L2.34865 3.9245C2.36404 3.90605 2.3917 3.88105 2.42536 3.86536C2.45912 3.84962 2.50001 3.84281 2.54044 3.86309L2.54233 3.86404C2.5879 3.88689 2.6306 3.9083 2.66974 3.95725C2.70886 4.00617 2.74378 4.08171 2.77666 4.21176C2.80994 4.34338 2.82084 4.5688 2.81564 4.77144C2.81304 4.87293 2.80638 4.96916 2.79636 5.04559C2.79136 5.08379 2.78548 5.11725 2.7788 5.14403C2.77222 5.17041 2.76453 5.19166 2.75528 5.20432C2.72337 5.24797 2.71467 5.26676 2.71284 5.27839C2.712 5.28373 2.71255 5.28795 2.71371 5.29392C2.71385 5.29465 2.714 5.29541 2.71415 5.29619C2.71504 5.30067 2.71612 5.30608 2.71668 5.3127C2.75147 5.33659 2.80819 5.36604 2.86992 5.37985C2.93427 5.39425 3.00251 5.39136 3.05748 5.34972C3.06475 5.34421 3.07238 5.33411 3.07993 5.31878C3.08742 5.30358 3.09446 5.284 3.10094 5.26045C3.11388 5.21335 3.12424 5.1514 3.13146 5.07917C3.1459 4.93477 3.14768 4.75053 3.13309 4.56449C3.1185 4.37839 3.08757 4.19108 3.03688 4.04035C2.98596 3.88894 2.91608 3.7774 2.8255 3.73817C2.49144 3.5935 2.28493 3.82097 2.20216 3.91214Z" fill="white"/>
<path d="M10.4996 0.641949C10.5557 0.477465 10.2786 0.367313 10.1501 0.326277C9.94151 0.321068 9.78505 0.649603 9.71799 0.790403C9.65094 0.931203 9.66761 1.24606 9.74296 1.27444C9.80324 1.29714 9.85351 1.39218 9.83563 1.42973C9.7867 1.4625 9.64252 1.57398 9.45694 1.85169C9.27137 2.12941 9.35167 2.35264 9.41502 2.42954C9.70252 2.71217 9.85826 2.59508 10.1918 2.38445C10.4587 2.21595 10.4995 1.96388 10.4866 1.85891C10.2788 2.05418 9.84196 2.42871 9.75697 2.3646C9.65073 2.28446 10.2918 1.70807 10.2877 1.59999C10.2845 1.51352 10.1804 1.39768 10.1288 1.35056C10.0362 1.17178 10.179 0.965384 10.2812 0.913947C10.363 0.872797 10.472 0.722778 10.4996 0.641949Z" fill="#1D2B53"/>
<path fill-rule="evenodd" clip-rule="evenodd" d="M10.1485 0.337783C10.0498 0.336018 9.96181 0.412811 9.88894 0.510959C9.8161 0.609049 9.76065 0.725421 9.72708 0.795914C9.69475 0.863804 9.6821 0.975466 9.68727 1.07452C9.68984 1.12386 9.69679 1.16927 9.70754 1.2038C9.71291 1.22106 9.71912 1.23523 9.72594 1.24574C9.73281 1.2563 9.73983 1.26246 9.74662 1.26502C9.77963 1.27745 9.80881 1.30902 9.82736 1.34151C9.83671 1.35788 9.84369 1.37504 9.84712 1.39094C9.85048 1.40651 9.85078 1.4225 9.84472 1.43524L9.84341 1.43797L9.84098 1.4396C9.79328 1.47155 9.65007 1.582 9.46523 1.85862C9.28282 2.13159 9.3621 2.34897 9.42243 2.42266C9.5648 2.56249 9.67261 2.60161 9.7849 2.58209C9.84167 2.57221 9.9003 2.54724 9.9659 2.51128C10.0215 2.48078 10.0817 2.44268 10.1496 2.39964C10.1618 2.3919 10.1743 2.38399 10.187 2.37594C10.4338 2.22012 10.4836 1.99252 10.4784 1.88157C10.3743 1.97864 10.221 2.11333 10.0815 2.21856C10.0085 2.27368 9.9389 2.32099 9.882 2.35053C9.85358 2.36528 9.82786 2.37585 9.80619 2.3806C9.78489 2.38526 9.76528 2.3848 9.75126 2.37421C9.74226 2.36743 9.73719 2.35781 9.73569 2.34647C9.73425 2.33553 9.73615 2.32336 9.74009 2.31069C9.74796 2.2854 9.76503 2.25478 9.78772 2.22107C9.83326 2.15342 9.90375 2.06999 9.97694 1.98623C9.998 1.96214 10.0193 1.93801 10.0403 1.91419C10.0925 1.85496 10.1431 1.79765 10.1843 1.7475C10.2131 1.71235 10.2371 1.68105 10.2537 1.65533C10.262 1.64246 10.2682 1.63125 10.2724 1.62185C10.2766 1.6122 10.278 1.60554 10.2779 1.60139C10.2764 1.56175 10.2513 1.51346 10.2186 1.46797C10.1862 1.42299 10.1478 1.38277 10.1224 1.35959L10.121 1.35836L10.1202 1.3567C10.0718 1.26337 10.0852 1.16318 10.1231 1.08065C10.1608 0.998448 10.2236 0.93193 10.2773 0.904958C10.3161 0.885444 10.3626 0.839207 10.4032 0.786783C10.4438 0.734474 10.4771 0.677893 10.4903 0.63918C10.5031 0.601738 10.4971 0.567466 10.4784 0.535655C10.4594 0.503433 10.4274 0.473959 10.3888 0.447719C10.3121 0.395636 10.2126 0.358318 10.1485 0.337783ZM10.4954 0.523869C10.5169 0.560254 10.5245 0.601432 10.5092 0.646232C10.4948 0.688348 10.4598 0.74719 10.4186 0.800386C10.3774 0.853467 10.3285 0.902814 10.2855 0.924449C10.2368 0.948914 10.1772 1.01131 10.1411 1.08987C10.1054 1.16759 10.0937 1.25931 10.1369 1.3443C10.1632 1.36841 10.2018 1.40904 10.2346 1.45458C10.2676 1.5004 10.2962 1.55327 10.2979 1.60009C10.2983 1.60946 10.2952 1.61996 10.2905 1.63068C10.2857 1.64163 10.2788 1.65396 10.2701 1.66736C10.2528 1.69416 10.2282 1.72624 10.1992 1.76158C10.1578 1.81204 10.1068 1.86982 10.0545 1.92918C10.0335 1.95292 10.0123 1.97693 9.99146 2.00082C9.91818 2.08468 9.84857 2.16713 9.80392 2.23347C9.78151 2.26676 9.76597 2.29516 9.75913 2.31715C9.75571 2.32813 9.75474 2.33666 9.75558 2.34302C9.75637 2.34898 9.75874 2.35326 9.76302 2.35649C9.77024 2.36193 9.78287 2.36379 9.80255 2.35948C9.82184 2.35525 9.84581 2.34556 9.87355 2.33116C9.92894 2.3024 9.99747 2.2559 10.0702 2.201C10.2156 2.09128 10.3765 1.9491 10.4802 1.85161L10.4943 1.8384L10.4967 1.85804C10.5101 1.96693 10.4677 2.22351 10.197 2.39447C10.1843 2.40248 10.1719 2.41035 10.1597 2.41808C10.0918 2.4611 10.031 2.49961 9.97475 2.53044C9.90835 2.56684 9.84753 2.59297 9.78773 2.60337C9.66699 2.62437 9.55327 2.5808 9.40832 2.43832L9.40794 2.43794L9.4076 2.43753C9.34128 2.35702 9.26058 2.12824 9.44899 1.84628C9.63202 1.57238 9.77533 1.45897 9.82787 1.42321C9.82987 1.41708 9.83009 1.40799 9.82755 1.3962C9.8247 1.38301 9.8187 1.36795 9.81018 1.35304C9.793 1.32295 9.7669 1.29565 9.73963 1.28538C9.72759 1.28084 9.7176 1.27095 9.70939 1.25831C9.70115 1.24562 9.69421 1.22943 9.68847 1.21099C9.677 1.1741 9.66985 1.12668 9.66721 1.07615C9.66197 0.975484 9.67451 0.859316 9.70923 0.786406L9.70936 0.78615C9.74285 0.715812 9.79911 0.597682 9.87333 0.497728C9.94726 0.398149 10.0413 0.313524 10.1507 0.316256L10.152 0.316289L10.1533 0.316695C10.2178 0.337286 10.3202 0.375412 10.3997 0.429435C10.4395 0.456424 10.4742 0.487893 10.4954 0.523869Z" fill="white"/>
<path fill-rule="evenodd" clip-rule="evenodd" d="M12.2539 2.1315C12.5033 2.3427 12.7917 2.21152 12.9048 2.11953C12.7402 2.09088 12.7868 1.98637 12.8308 1.9377C12.9188 1.81088 13.1841 2.03124 13.3057 2.15728C13.0787 2.29254 13.0142 2.37744 13.0103 2.40298C12.8372 2.3583 12.8372 2.3583 12.7073 2.33859L12.7073 2.33859C12.6098 2.32381 12.5795 2.44899 12.5755 2.52537C12.5746 2.52935 12.5744 2.53415 12.575 2.53987C12.5751 2.53529 12.5752 2.53044 12.5755 2.52537C12.586 2.47986 12.692 2.54354 12.7481 2.58456C12.6821 2.67599 12.4916 2.8417 12.2581 2.77309C12.0245 2.70447 12.1999 2.45224 12.3168 2.3347C11.8862 2.02961 11.3426 2.15929 11.2512 2.60654C11.1597 3.05378 11.5362 3.35526 12.0128 3.4091C12.3941 3.45216 12.8266 3.02835 12.9951 2.81106C13.0015 2.88888 13.0665 3.04137 13.2748 3.0287C13.4832 3.01603 13.5022 2.71581 13.4857 2.56729C13.3645 2.74719 13.181 2.66863 13.1926 2.59201C13.2043 2.51538 13.4128 2.27496 13.4338 2.34269C13.4548 2.41043 13.8202 2.73329 14.0474 2.78158C14.2292 2.82022 14.3454 2.68681 14.36 2.5965C14.374 2.50999 14.3516 2.31311 14.119 2.1561C13.8864 1.99909 13.596 2.04758 13.4798 2.09145L13.0842 1.55652C12.6829 1.15086 12.4482 1.33698 12.3049 1.45061C12.301 1.45368 12.2972 1.4567 12.2934 1.45966C12.1763 1.5956 12.0045 1.9203 12.2539 2.1315ZM13.8407 2.49653C13.9955 2.5958 14.1114 2.61504 14.161 2.58225C14.2306 2.50578 14.2037 2.4112 14.0378 2.27677C13.8938 2.16008 13.6639 2.15598 13.6131 2.18501C13.5255 2.201 13.6918 2.39442 13.8407 2.49653Z" fill="#1D2B53"/>
<path fill-rule="evenodd" clip-rule="evenodd" d="M12.5984 1.31952C12.4748 1.32929 12.3824 1.40229 12.3106 1.45922C12.307 1.46208 12.3035 1.4649 12.3 1.46767C12.2423 1.53483 12.1717 1.64791 12.1459 1.76951C12.133 1.8304 12.1314 1.89304 12.1479 1.95309C12.1644 2.01304 12.1992 2.07111 12.26 2.12267C12.3823 2.22619 12.514 2.24581 12.6292 2.22825C12.7325 2.21251 12.8224 2.16692 12.8798 2.12526C12.8499 2.11784 12.8276 2.10736 12.8116 2.0945C12.7915 2.07827 12.7817 2.05837 12.7797 2.03722C12.7777 2.01651 12.7833 1.9958 12.7918 1.97758C12.8002 1.95954 12.8118 1.94317 12.8233 1.93043C12.8481 1.89506 12.8852 1.88475 12.9262 1.88978C12.9672 1.8948 13.0138 1.91515 13.0605 1.9429C13.154 1.9985 13.2514 2.08578 13.3125 2.14914L13.3224 2.15942L13.3103 2.16665C13.1972 2.23406 13.1249 2.2887 13.0806 2.32941C13.0585 2.34977 13.0434 2.3665 13.0338 2.37946C13.0239 2.39284 13.0206 2.40105 13.0201 2.40445L13.0183 2.4161L13.0079 2.41341C12.9083 2.3877 12.8662 2.37683 12.8236 2.36847C12.7923 2.36232 12.7607 2.35753 12.7058 2.3492C12.6835 2.34582 12.6656 2.35046 12.6511 2.35995C12.6364 2.36955 12.6245 2.38455 12.615 2.40291C12.6 2.43176 12.5916 2.46767 12.5877 2.4998C12.5914 2.49885 12.5954 2.49852 12.5993 2.49859C12.6134 2.49883 12.6308 2.50443 12.6485 2.51223C12.6842 2.52798 12.7254 2.5546 12.7537 2.5753L12.7625 2.58179L12.7558 2.59107C12.6886 2.68413 12.4945 2.85367 12.2554 2.78343C12.1953 2.76579 12.1594 2.73567 12.1432 2.6966C12.1271 2.6578 12.1316 2.61289 12.1467 2.56839C12.1752 2.48429 12.2436 2.39564 12.3007 2.33623C12.0901 2.19117 11.8539 2.15027 11.6589 2.19893C11.4607 2.24837 11.3055 2.38994 11.2609 2.6086C11.216 2.82787 11.2856 3.0112 11.4256 3.14697C11.5659 3.28309 11.777 3.37133 12.014 3.39808C12.2012 3.41923 12.4022 3.32572 12.5783 3.19847C12.7543 3.0714 12.9038 2.91187 12.9876 2.80389L13.0029 2.78413L13.005 2.80976C13.008 2.84644 13.025 2.90154 13.0663 2.94581C13.1072 2.98976 13.1727 3.02383 13.2744 3.01765C13.3241 3.01462 13.3621 2.99456 13.3912 2.96414C13.4204 2.93353 13.4411 2.89196 13.4552 2.84547C13.4801 2.76281 13.4835 2.66656 13.4782 2.59471C13.4183 2.67069 13.3463 2.69306 13.2882 2.6865C13.2568 2.68296 13.2293 2.67094 13.2102 2.65413C13.1912 2.63747 13.1791 2.61468 13.1828 2.59018C13.1845 2.57879 13.1897 2.56536 13.1967 2.55122C13.2039 2.53689 13.2133 2.52106 13.2243 2.50467C13.2461 2.4719 13.2743 2.43634 13.3027 2.40536C13.3311 2.37452 13.3602 2.34762 13.3841 2.33268C13.3958 2.32534 13.4075 2.32007 13.4178 2.31975C13.4231 2.31958 13.4286 2.32075 13.4333 2.3242C13.4382 2.32769 13.4414 2.33286 13.4432 2.33889C13.4452 2.3451 13.4519 2.35612 13.4644 2.37156C13.4765 2.38658 13.4931 2.40465 13.5133 2.42477C13.5537 2.46499 13.6082 2.51294 13.6691 2.56034C13.7913 2.65545 13.938 2.74703 14.0494 2.77071C14.2259 2.80821 14.3366 2.67864 14.3502 2.59456C14.3635 2.51253 14.343 2.31997 14.1137 2.16522C13.9993 2.08801 13.8704 2.06116 13.7554 2.05916C13.6404 2.05716 13.5399 2.08004 13.4829 2.10156L13.4764 2.10404L13.0768 1.56387C12.8777 1.36269 12.7214 1.30979 12.5984 1.31952ZM12.5656 2.52376C12.5645 2.5291 12.5645 2.53494 12.5652 2.54115L12.585 2.53967C12.585 2.53562 12.5851 2.53133 12.5854 2.52686C12.5861 2.52447 12.5871 2.52326 12.5885 2.52241C12.5903 2.52123 12.5936 2.52028 12.5987 2.52037C12.6091 2.52054 12.6237 2.52489 12.6409 2.53245C12.6713 2.54585 12.7064 2.56789 12.7334 2.58694C12.6629 2.67807 12.4812 2.82713 12.2608 2.76238C12.204 2.74572 12.1743 2.71857 12.1614 2.68738C12.1483 2.65592 12.1512 2.61755 12.1654 2.57573C12.1938 2.49188 12.2654 2.40088 12.3235 2.3425L12.333 2.33293L12.3223 2.32535C12.105 2.17137 11.8587 2.1268 11.6547 2.1777C11.4505 2.22863 11.2882 2.37552 11.2414 2.60411C11.1948 2.83209 11.2677 3.02312 11.4123 3.16336C11.5565 3.30325 11.7719 3.39267 12.0117 3.41975C12.2058 3.44168 12.4116 3.34481 12.5891 3.2166C12.7574 3.09503 12.9017 2.94422 12.9886 2.83574C12.9961 2.87427 13.0153 2.92184 13.0522 2.96146C13.0975 3.01004 13.1686 3.04588 13.2752 3.03939C13.3297 3.03608 13.3722 3.01387 13.4048 2.97979C13.4372 2.94591 13.4593 2.90076 13.474 2.85205C13.5034 2.75481 13.5039 2.64088 13.4956 2.56565L13.4926 2.53868L13.4777 2.56072C13.4192 2.64756 13.3465 2.67116 13.2905 2.66483C13.2623 2.66165 13.2385 2.6509 13.2227 2.63706C13.2068 2.62306 13.2003 2.60729 13.2024 2.59348C13.2036 2.58572 13.2075 2.57486 13.2142 2.56146C13.2208 2.54823 13.2297 2.53324 13.2403 2.51737C13.2614 2.48563 13.2889 2.45095 13.3167 2.42071C13.3446 2.39034 13.3722 2.36504 13.3938 2.35156C13.4047 2.34469 13.4129 2.34169 13.4181 2.34152C13.4204 2.34145 13.4216 2.34199 13.4222 2.34242C13.4228 2.34282 13.4236 2.34371 13.4244 2.34614C13.4277 2.35687 13.437 2.37075 13.4494 2.38612C13.4622 2.40191 13.4793 2.42056 13.4998 2.44098C13.5409 2.48186 13.596 2.53034 13.6574 2.57816C13.78 2.67349 13.9296 2.76748 14.0454 2.7921C14.2325 2.83186 14.3542 2.69463 14.3698 2.59809C14.3846 2.50709 14.3603 2.30589 14.1243 2.14663C14.0061 2.06683 13.8734 2.03942 13.756 2.03738C13.6429 2.03541 13.5433 2.05697 13.4833 2.07855L13.0915 1.54882L13.091 1.54829C12.8891 1.34424 12.7276 1.28748 12.5972 1.29779C12.4676 1.30804 12.3711 1.38455 12.2997 1.44119L12.299 1.44171C12.2952 1.44476 12.2914 1.44775 12.2877 1.45067L12.2869 1.45129L12.2862 1.45206C12.2269 1.52094 12.1535 1.63778 12.1265 1.76485C12.113 1.82853 12.1111 1.89515 12.1289 1.95963C12.1466 2.02422 12.1839 2.08593 12.2478 2.13997C12.3749 2.24765 12.5122 2.26804 12.6317 2.24982C12.751 2.23164 12.8529 2.17503 12.9106 2.12806L12.9296 2.11262L12.9064 2.10859C12.8661 2.10158 12.8399 2.09009 12.8235 2.0769C12.8075 2.06395 12.8009 2.04932 12.7995 2.03467C12.798 2.01959 12.802 2.00325 12.8095 1.98729C12.8169 1.9714 12.8274 1.95665 12.8378 1.94513L12.8382 1.94462L12.8386 1.94405C12.8578 1.91647 12.8868 1.9069 12.9238 1.91143C12.9611 1.916 13.005 1.93484 13.0508 1.96208C13.1374 2.01357 13.2281 2.09332 13.2888 2.15485C13.1818 2.21939 13.112 2.27236 13.068 2.31279C13.0451 2.33376 13.0291 2.35149 13.0184 2.36586C13.0119 2.37474 13.0069 2.38282 13.0039 2.38993C12.8395 2.34749 12.8368 2.34705 12.7091 2.32768L12.7088 2.32762C12.6823 2.32361 12.6598 2.32907 12.6411 2.34128C12.6226 2.35339 12.6084 2.37169 12.5977 2.39233C12.5765 2.43305 12.5678 2.48482 12.5656 2.52376ZM13.6811 2.18139C13.6503 2.18325 13.6283 2.18838 13.6176 2.19447L13.6162 2.19529L13.6146 2.19558C13.6054 2.19725 13.6018 2.20078 13.6003 2.2038C13.5986 2.20719 13.5979 2.2131 13.6003 2.22284C13.6053 2.24241 13.6213 2.26977 13.6458 2.30116C13.6943 2.36334 13.7723 2.43649 13.8459 2.48701C13.9226 2.53621 13.9893 2.56529 14.0425 2.57809C14.0954 2.59082 14.1333 2.58707 14.1549 2.57344C14.1708 2.55569 14.1807 2.53751 14.1847 2.51862C14.1889 2.49947 14.1872 2.47859 14.1785 2.45532C14.1608 2.40816 14.1144 2.35236 14.0318 2.28538C13.9616 2.22849 13.8699 2.19871 13.789 2.18686C13.7487 2.18095 13.7113 2.17955 13.6811 2.18139ZM13.7919 2.16527C13.8747 2.17739 13.97 2.20801 14.0438 2.26781C14.127 2.33526 14.177 2.39396 14.1969 2.44681C14.2069 2.47355 14.2093 2.49906 14.2041 2.52334C14.1989 2.54754 14.1863 2.56953 14.168 2.5897L14.1671 2.59067L14.1661 2.59137C14.1379 2.60999 14.0933 2.61268 14.038 2.59937C13.9822 2.58595 13.9136 2.5558 13.8356 2.50577L13.8354 2.50569L13.8353 2.5056C13.7601 2.45403 13.6806 2.37945 13.6306 2.31544C13.6059 2.28371 13.5874 2.25334 13.5812 2.22895C13.5781 2.21671 13.5776 2.20409 13.5829 2.19345C13.5883 2.18288 13.598 2.17692 13.61 2.1744C13.625 2.16644 13.6501 2.16147 13.6802 2.15964C13.7118 2.15772 13.7505 2.1592 13.7919 2.16527Z" fill="white"/>
<path d="M14.6132 3.74596C14.7065 3.58391 14.893 3.6978 14.9888 3.77385C15.1751 4.01753 14.8168 4.12019 14.7406 4.08828C14.6644 4.05637 14.4966 3.94852 14.6132 3.74596Z" fill="#1D2B53"/>
<path d="M14.2378 3.93348C14.4138 3.89803 14.5347 4.00332 14.5648 4.04947C14.7238 4.2244 14.321 4.39926 14.0448 4.48473C13.8239 4.55311 13.9642 4.69996 14.0619 4.76483C13.8323 4.81066 13.5436 4.76347 13.5615 4.49865C13.5801 4.22356 14.0799 3.96529 14.2378 3.93348Z" fill="#1D2B53"/>
<path fill-rule="evenodd" clip-rule="evenodd" d="M14.7809 4.10394C14.7637 4.10418 14.7482 4.10229 14.7369 4.09754C14.698 4.08125 14.6349 4.0453 14.5963 3.98647C14.5769 3.95684 14.5637 3.92131 14.5631 3.87974C14.5625 3.83822 14.5747 3.79154 14.6046 3.73957C14.629 3.6971 14.66 3.67209 14.6946 3.66032C14.7289 3.64863 14.766 3.65031 14.8023 3.65947C14.8746 3.67771 14.9465 3.72629 14.9948 3.76456L14.9958 3.76537L14.9966 3.76642C15.0444 3.82892 15.0586 3.88427 15.0492 3.93187C15.0398 3.97911 15.0077 4.01585 14.9686 4.04273C14.9294 4.06967 14.8821 4.08754 14.8398 4.09668C14.8186 4.10126 14.7984 4.1037 14.7809 4.10394ZM14.9818 3.7809C15.0265 3.83977 15.0371 3.88828 15.0294 3.92724C15.0216 3.96679 14.9943 3.99941 14.9575 4.02467C14.9209 4.04987 14.876 4.06691 14.8355 4.07565C14.8153 4.08002 14.7965 4.08227 14.7805 4.08249C14.7643 4.08271 14.7519 4.08083 14.7441 4.07759C14.7068 4.06197 14.648 4.02804 14.6128 3.97432C14.5954 3.94768 14.5838 3.91628 14.5833 3.87966C14.5828 3.84299 14.5934 3.80022 14.6218 3.75091C14.644 3.71236 14.6713 3.69084 14.7009 3.68076C14.7307 3.67061 14.7638 3.67177 14.7978 3.68034C14.8655 3.69742 14.9342 3.74327 14.9818 3.7809ZM14.4733 4.30906C14.3568 4.38611 14.186 4.45151 14.0477 4.49432C13.9933 4.51115 13.9633 4.53225 13.9488 4.55381C13.9348 4.57462 13.9344 4.59743 13.9433 4.62156C13.9523 4.64615 13.9709 4.67144 13.9939 4.6949C14.0167 4.71824 14.0432 4.73913 14.0672 4.75503L14.0891 4.76961L14.0639 4.77466C13.948 4.79778 13.8164 4.79767 13.7154 4.75756C13.6648 4.73746 13.6213 4.70708 13.5917 4.66396C13.562 4.62069 13.5468 4.56547 13.5514 4.49706C13.5563 4.42504 13.5925 4.3552 13.6451 4.29095C13.6979 4.22659 13.7678 4.16692 13.8418 4.11514C13.9894 4.01176 14.1551 3.93848 14.2358 3.92223C14.4156 3.88602 14.5398 3.99263 14.5726 4.04197C14.5931 4.06479 14.6053 4.08832 14.6093 4.11239C14.6134 4.13674 14.6091 4.16057 14.5985 4.18339C14.5775 4.22846 14.5314 4.27068 14.4733 4.30906ZM14.5895 4.11597C14.5863 4.09688 14.5764 4.07689 14.5576 4.05617L14.557 4.05554L14.5565 4.05482C14.5282 4.01152 14.4112 3.90879 14.2398 3.94331C14.1625 3.95887 13.9993 4.03063 13.853 4.1331C13.7799 4.18425 13.7115 4.24272 13.6604 4.30514C13.6092 4.36768 13.5759 4.43329 13.5715 4.49881C13.5672 4.5628 13.5814 4.6128 13.608 4.65142C13.6346 4.69019 13.6743 4.71841 13.7223 4.73747C13.8117 4.77295 13.9279 4.77601 14.0352 4.75811C14.0165 4.74423 13.9973 4.72798 13.98 4.7103C13.9561 4.68584 13.9351 4.65798 13.9245 4.62921C13.9137 4.59997 13.9135 4.56919 13.9323 4.54121C13.9506 4.51398 13.9858 4.49108 14.0419 4.47372C14.1797 4.43105 14.3484 4.36629 14.4626 4.29081C14.5199 4.25292 14.5619 4.21328 14.5804 4.1737C14.5895 4.15419 14.5927 4.13499 14.5895 4.11597Z" fill="white"/>
</svg>
