<svg width="25" height="25" viewBox="0 0 25 25" fill="none" xmlns="http://www.w3.org/2000/svg">
<path d="M2.08337 23.9583V21.875H3.12504C3.6806 21.875 4.21879 21.7882 4.73962 21.6146C5.26046 21.441 5.76393 21.1806 6.25004 20.8333C6.73615 21.1806 7.23962 21.4368 7.76046 21.6021C8.28129 21.7674 8.81948 21.8497 9.37504 21.849C9.9306 21.8483 10.4733 21.7656 11.0032 21.601C11.533 21.4365 12.032 21.1806 12.5 20.8333C12.9862 21.1806 13.4896 21.4368 14.0105 21.6021C14.5313 21.7674 15.0695 21.8497 15.625 21.849C16.1806 21.8483 16.7233 21.7656 17.2532 21.601C17.783 21.4365 18.282 21.1806 18.75 20.8333C19.2188 21.1806 19.7181 21.441 20.248 21.6146C20.7778 21.7882 21.3202 21.875 21.875 21.875H22.9167V23.9583H21.875C21.3368 23.9583 20.8073 23.8934 20.2865 23.7635C19.7657 23.6337 19.2535 23.4382 18.75 23.1771C18.2466 23.4375 17.7344 23.633 17.2136 23.7635C16.6927 23.8941 16.1632 23.959 15.625 23.9583C15.0868 23.9576 14.5573 23.8927 14.0365 23.7635C13.5157 23.6344 13.0035 23.4389 12.5 23.1771C11.9966 23.4375 11.4844 23.633 10.9636 23.7635C10.4427 23.8941 9.91323 23.959 9.37504 23.9583C8.83685 23.9576 8.30733 23.8927 7.7865 23.7635C7.26567 23.6344 6.75351 23.4389 6.25004 23.1771C5.74657 23.4375 5.23442 23.633 4.71358 23.7635C4.19275 23.8941 3.66324 23.959 3.12504 23.9583H2.08337ZM8.85421 4.16667L14.6355 5.23438C14.8785 5.2691 15.1129 5.36459 15.3386 5.52084C15.5643 5.67709 15.7552 5.8941 15.9115 6.17188L16.823 7.78647C17.2743 8.56771 17.8993 9.2014 18.698 9.68751C19.4966 10.1736 20.382 10.4167 21.3542 10.4167V12.5C20 12.5 18.7674 12.1615 17.6563 11.4844C16.5452 10.8073 15.6684 9.92188 15.0261 8.82813L12.6823 10.4167L16.6667 13.5417V17.5521C16.9445 17.7431 17.2136 17.9427 17.474 18.151C17.7344 18.3594 17.9862 18.559 18.2292 18.75C17.8646 19.0625 17.4653 19.3142 17.0313 19.5052C16.5973 19.6962 16.1285 19.7917 15.625 19.7917C15 19.7917 14.4184 19.6441 13.8802 19.349C13.3421 19.0538 12.882 18.6806 12.5 18.2292C12.1181 18.6806 11.658 19.0538 11.1198 19.349C10.5816 19.6441 10 19.7917 9.37504 19.7917C9.20143 19.7917 9.03198 19.7785 8.86671 19.7521C8.70143 19.7257 8.54101 19.6868 8.38546 19.6354C6.8924 18.6111 5.6424 17.5781 4.63546 16.5365C3.62851 15.4948 3.12504 14.592 3.12504 13.8281C3.12504 13.2899 3.33337 12.934 3.75004 12.7604C4.16671 12.5868 4.60073 12.5 5.05212 12.5C5.5556 12.5 6.13719 12.574 6.79692 12.7219C7.45664 12.8698 8.15976 13.0823 8.90629 13.3594L8.35942 10.1302C8.28997 9.78299 8.32921 9.44028 8.47712 9.10209C8.62504 8.7639 8.8549 8.49028 9.16671 8.28126L11.4063 6.77084C11.3542 6.77084 11.2285 6.74931 11.0292 6.70626C10.8299 6.6632 10.6084 6.6198 10.3646 6.57605C10.1209 6.5323 9.89969 6.4889 9.70108 6.44584C9.50247 6.40278 9.37643 6.38091 9.32296 6.38022L6.38025 8.38542L5.20837 6.66667L8.85421 4.16667ZM10.7292 11.5625L11.198 14.3229C11.6667 14.5486 12.2483 14.8483 12.9427 15.2219C13.6372 15.5955 14.1841 15.9035 14.5834 16.1458V14.5833L10.7292 11.5625ZM17.7084 5.72917C17.1355 5.72917 16.6452 5.52535 16.2375 5.11772C15.8299 4.71008 15.6257 4.21945 15.625 3.64584C15.6243 3.07223 15.8285 2.58195 16.2375 2.17501C16.6466 1.76806 17.1368 1.5639 17.7084 1.56251C18.2799 1.56112 18.7705 1.76528 19.1802 2.17501C19.59 2.58473 19.7938 3.07501 19.7917 3.64584C19.7896 4.21667 19.5858 4.7073 19.1802 5.11772C18.7747 5.52813 18.2841 5.73195 17.7084 5.72917Z" fill="#555555"/>
</svg>
