<svg width="25" height="25" viewBox="0 0 25 25" fill="none" xmlns="http://www.w3.org/2000/svg">
<path d="M4.70795 17.7327C11.4174 20.5692 16.5134 22.2232 23.6914 24.4972C23.7268 24.5023 23.7629 24.5003 23.7975 24.4913C23.8321 24.4823 23.8645 24.4665 23.8929 24.4448C23.9214 24.4231 23.9451 24.396 23.9629 24.3649C23.9807 24.3339 23.9921 24.2997 23.9964 24.2642C24.0067 24.1923 23.9889 24.1192 23.9469 24.0599C23.9048 24.0007 23.8417 23.9598 23.7704 23.9457C12.4639 20.3702 3.58845 16.4082 1.56345 15.4872C1.35395 15.4027 1.11045 15.4987 1.03195 15.7042C0.946949 15.9147 1.03745 16.1417 1.24095 16.2212C1.74445 16.4482 2.24195 16.6697 2.72295 16.8802L1.12795 18.1022C0.946949 18.3692 1.02595 18.7107 1.29195 18.8922C1.48995 19.0287 1.77295 19.0117 1.96495 18.8862L4.70795 17.7327ZM23.2269 10.5732L18.0044 5.75218L18.1199 5.76368C19.1775 5.76368 20.0314 4.89968 20.0314 3.83668C20.0314 2.77368 19.1775 1.91018 18.1199 1.91018C17.8674 1.9105 17.6175 1.96064 17.3843 2.05771C17.1512 2.15479 16.9396 2.29689 16.7614 2.47589C16.5833 2.65489 16.4423 2.86726 16.3463 3.10085C16.2504 3.33444 16.2015 3.58466 16.2024 3.83718C16.2024 4.24318 16.3289 4.61918 16.5424 4.93068L13.0014 3.66118L11.0894 0.881677C11.0148 0.778378 10.9196 0.691674 10.8098 0.627042C10.7 0.56241 10.578 0.521255 10.4514 0.506177C10.2095 0.480355 9.96727 0.551396 9.77761 0.703757C9.58796 0.856118 9.46637 1.0774 9.43945 1.31918C9.41695 1.52968 9.46795 1.73418 9.56945 1.90468L11.5189 4.74668C11.6094 4.86018 11.7229 4.95668 11.8584 5.01968L14.1209 5.91218L10.4064 7.82218C10.1459 7.97163 9.92191 8.17724 9.75075 8.42408C9.5796 8.67091 9.46557 8.95277 9.41695 9.24918L9.43395 12.6657L5.99795 14.2227C5.80163 14.3174 5.63478 14.4638 5.51526 14.6461C5.39574 14.8285 5.32806 15.0398 5.31945 15.2577C5.31254 15.4138 5.33648 15.5697 5.38991 15.7165C5.44335 15.8633 5.52521 15.9982 5.63083 16.1133C5.73644 16.2284 5.86373 16.3216 6.0054 16.3875C6.14707 16.4533 6.30035 16.4906 6.45645 16.4972C6.65995 16.5077 6.85795 16.4632 7.02795 16.3772L11.2319 14.4682C11.3846 14.3866 11.5174 14.2725 11.621 14.1339C11.7246 13.9953 11.7964 13.8356 11.8314 13.6662L11.8259 11.5402L14.7439 14.1667L14.2064 18.6397L14.2009 18.7252C14.1868 19.041 14.2987 19.3495 14.5118 19.5829C14.725 19.8164 15.0221 19.9557 15.3379 19.9702C15.6343 19.9806 15.924 19.8804 16.1507 19.6893C16.3775 19.4981 16.5251 19.2295 16.5649 18.9357L17.1929 13.8307L17.1984 13.7622C17.2049 13.5933 17.1754 13.425 17.1121 13.2683C17.0487 13.1116 16.9529 12.9701 16.8309 12.8532L14.1279 10.4372L18.2004 8.42468L21.9789 11.9207C22.1484 12.0857 22.3804 12.1877 22.6294 12.1877C22.8731 12.1856 23.1059 12.0868 23.2768 11.913C23.4476 11.7393 23.5424 11.5048 23.5404 11.2612C23.5386 11.1311 23.5098 11.0027 23.4558 10.8843C23.4019 10.7659 23.3239 10.6599 23.2269 10.5732Z" fill="#555555"/>
</svg>
