<svg width="32" height="45" viewBox="0 0 32 45" fill="none" xmlns="http://www.w3.org/2000/svg">
<path fill-rule="evenodd" clip-rule="evenodd" d="M31.5407 13.6373C31.5096 13.433 31.4501 13.2131 31.3363 13.0009C31.2251 12.7888 31.0544 12.5896 30.8578 12.4447C30.806 12.4085 30.7646 12.38 30.7025 12.3412C30.6404 12.305 30.5732 12.2766 30.5059 12.2481C30.3714 12.1964 30.2317 12.1705 30.1023 12.1602C29.8384 12.1421 29.616 12.1886 29.422 12.2507C29.0365 12.3723 28.739 12.5534 28.4596 12.7345C28.1828 12.9207 27.9345 13.1199 27.6939 13.3217C27.2153 13.7305 26.7806 14.1625 26.359 14.5971C25.5182 15.4767 24.7395 16.3847 23.9686 17.2927C23.2442 18.1413 22.5328 19.0079 21.8033 19.8099C21.8007 19.8073 21.8033 19.8099 21.8033 19.8073C22.2043 18.6587 22.6673 17.4997 23.12 16.3407C23.9815 14.1263 24.8533 11.9015 25.5363 9.58095C25.7045 8.99888 25.8597 8.40905 25.9839 7.80628C26.1054 7.20093 26.2089 6.58522 26.2192 5.92295C26.2218 5.58923 26.2037 5.24256 26.1054 4.87262C26.0563 4.68635 25.9813 4.48975 25.8649 4.29572C25.7484 4.10429 25.5777 3.91544 25.3656 3.78092C25.2595 3.71624 25.1483 3.65933 25.0344 3.62052C24.9232 3.58431 24.812 3.55583 24.6955 3.54031C24.4627 3.50668 24.2221 3.52739 24.0074 3.58689C23.578 3.70848 23.2597 3.93872 22.9959 4.17155C22.4733 4.64756 22.1163 5.17788 21.7852 5.70821C21.4592 6.24113 21.1772 6.7844 20.9133 7.33284C20.3882 8.42714 19.9355 9.53953 19.5009 10.6545C18.6316 12.8793 17.8736 15.1404 16.9863 17.3031C16.7612 17.8386 16.5258 18.3715 16.2594 18.8501C16.1817 18.9924 16.0964 19.1269 16.0136 19.2459C16.011 19.1838 16.011 19.1192 16.011 19.0545C16.0136 18.788 16.0369 18.5086 16.0679 18.2292C16.1326 17.6653 16.2309 17.0884 16.337 16.5141C16.7768 14.209 17.3511 11.8989 17.8504 9.568C18.1013 8.40127 18.3419 7.23195 18.5359 6.04194C18.6316 5.44693 18.717 4.84676 18.774 4.23623C18.8283 3.6257 18.8645 3.0074 18.805 2.35031C18.7688 2.01917 18.7222 1.67512 18.5514 1.30001C18.4661 1.11374 18.3419 0.90936 18.1349 0.738619C17.928 0.562704 17.6564 0.459223 17.3847 0.446288C17.1053 0.430766 16.8518 0.516148 16.6578 0.619628C16.4637 0.725694 16.3085 0.849871 16.174 0.976633C15.9102 1.23016 15.711 1.4966 15.5325 1.76823C15.178 2.30633 14.9012 2.85738 14.6425 3.40841C14.3864 3.96461 14.1561 4.52339 13.9388 5.08477C13.0748 7.33286 12.3763 9.60938 11.6778 11.8833C11.3312 13.019 10.9871 14.1573 10.6327 15.2852C10.4542 15.8466 10.2731 16.4106 10.0843 16.9616C9.90057 17.4919 9.70654 18.0223 9.48664 18.5035C9.47371 18.3457 9.46851 18.1775 9.46593 18.0093C9.46334 17.7274 9.47371 17.4402 9.48664 17.1505C9.54614 15.9915 9.67548 14.8144 9.79966 13.6347C10.0506 11.2754 10.3404 8.91091 10.4258 6.49466C10.4439 5.89189 10.449 5.28138 10.418 4.66568C10.3844 4.04997 10.3274 3.4265 10.1541 2.77975C10.061 2.45638 9.94457 2.12008 9.71433 1.78377C9.59791 1.6182 9.44786 1.45003 9.24866 1.31551C9.05205 1.1784 8.80884 1.08786 8.57343 1.06199C8.33543 1.03354 8.11553 1.06201 7.9215 1.10857C7.89563 1.11375 7.87499 1.11891 7.84394 1.12926L7.7482 1.15771C7.68869 1.18099 7.62662 1.20946 7.5723 1.23792C7.46106 1.29483 7.37049 1.36209 7.28511 1.42936C6.95915 1.70616 6.77033 2.00107 6.59959 2.28822C6.26846 2.87029 6.04852 3.44978 5.84933 4.03444C5.65271 4.61651 5.48456 5.20117 5.33452 5.78842C5.03184 6.96032 4.78867 8.13482 4.56878 9.31448C3.75905 13.8081 3.21062 18.312 2.76825 22.8418C2.73203 23.2066 3.00368 23.53 3.37104 23.561L3.59348 23.5791C3.95566 23.605 4.26867 23.3334 4.29454 22.9738C4.44718 20.8395 4.64896 18.6949 4.87921 16.5632C5.13532 14.2117 5.43799 11.8653 5.84415 9.54473C6.04593 8.38317 6.27364 7.22936 6.55045 6.09885C6.69015 5.53488 6.84274 4.97352 7.02124 4.43025C7.19974 3.88699 7.40151 3.35147 7.65504 2.89616C7.77921 2.67109 7.92668 2.46673 8.05603 2.35807C8.08708 2.33479 8.11555 2.31152 8.13624 2.30117C8.14918 2.29082 8.15697 2.29081 8.16473 2.28563C8.16731 2.28563 8.16985 2.28304 8.17502 2.28045C8.17761 2.28045 8.19575 2.2753 8.2061 2.27272C8.29664 2.25202 8.37681 2.24165 8.43631 2.252C8.49581 2.25717 8.53722 2.27271 8.58638 2.30376C8.63553 2.3348 8.68988 2.39172 8.74421 2.46674C8.85286 2.61937 8.94594 2.8496 9.0132 3.09795C9.15031 3.59724 9.20985 4.16121 9.24348 4.73035C9.27452 5.29949 9.27195 5.87896 9.25643 6.46103C9.18399 8.79449 8.90718 11.1512 8.664 13.5157C8.54241 14.698 8.41825 15.8854 8.35875 17.0987C8.34582 17.4014 8.33545 17.7067 8.34062 18.0223C8.3458 18.3327 8.35616 18.6509 8.41566 18.9976C8.44929 19.1761 8.48291 19.3572 8.6045 19.5926C8.66918 19.7064 8.75709 19.8513 8.95112 19.9703C9.04425 20.0298 9.16325 20.0712 9.27449 20.0841C9.3314 20.0919 9.38318 20.0919 9.4375 20.0893C9.5177 20.0841 9.60045 20.066 9.65995 20.0401C9.78412 19.9884 9.85915 19.9315 9.91606 19.8823C9.97556 19.8306 10.017 19.784 10.0558 19.74C10.1308 19.6521 10.1852 19.5693 10.2343 19.4943C10.33 19.339 10.405 19.1916 10.4749 19.0467C10.7465 18.4672 10.9483 17.9007 11.1501 17.3315C11.3467 16.765 11.533 16.1959 11.7141 15.6267C12.0737 14.4885 12.4203 13.3502 12.7695 12.2197C13.4706 9.95346 14.1717 7.68986 15.0176 5.50386C15.2298 4.958 15.4548 4.41989 15.698 3.89732C15.9412 3.37733 16.2025 2.86253 16.5026 2.41239C16.6526 2.18474 16.8156 1.9778 16.9785 1.81999C17.0613 1.74238 17.1416 1.68287 17.2088 1.64665C17.2761 1.61302 17.3149 1.60526 17.3356 1.60784C17.3589 1.61043 17.3796 1.6156 17.3977 1.63371C17.4209 1.65181 17.4623 1.70099 17.4985 1.78636C17.5761 1.95193 17.6253 2.20545 17.6486 2.46156C17.6952 2.98672 17.6667 3.56102 17.6123 4.13015C17.558 4.70188 17.4778 5.27879 17.3821 5.85568C17.1933 7.00948 16.9527 8.16328 16.7018 9.31966C16.1999 11.6324 15.623 13.9322 15.1651 16.2942C15.0538 16.8866 14.9504 17.479 14.8779 18.0947C14.8417 18.4025 14.8159 18.7156 14.8107 19.0441C14.8081 19.2123 14.8132 19.3804 14.8365 19.5667C14.8469 19.6572 14.8624 19.7556 14.8883 19.8616C14.9142 19.9651 14.9504 20.0815 15.0202 20.2109C15.0901 20.3402 15.2065 20.5006 15.4057 20.6093C15.5997 20.7179 15.8325 20.7464 16.024 20.7076C16.2154 20.6714 16.3525 20.5937 16.4586 20.5213C16.5646 20.4489 16.6474 20.3738 16.7173 20.2988C16.9915 20.0039 17.1545 19.7271 17.3175 19.4451C17.6279 18.8889 17.8711 18.3327 18.1091 17.7765C19.0301 15.5465 19.7855 13.301 20.6495 11.1047C21.079 10.0078 21.5265 8.91866 22.0309 7.87351C22.2845 7.35353 22.551 6.84132 22.8459 6.36272C23.1408 5.88672 23.4667 5.42882 23.8263 5.10545C24.0048 4.94765 24.1911 4.83383 24.336 4.79762C24.4084 4.77692 24.4705 4.77432 24.53 4.78208C24.5585 4.78467 24.5946 4.795 24.6231 4.80276C24.6516 4.81311 24.6723 4.82346 24.6929 4.83639C24.7318 4.85968 24.768 4.8985 24.8042 4.95542C24.8404 5.01751 24.8766 5.10028 24.9025 5.20117C24.9568 5.40295 24.975 5.65648 24.9724 5.91777C24.9646 6.44034 24.874 7.0043 24.7602 7.5605C24.6438 8.1167 24.4964 8.68066 24.3308 9.23686C23.6685 11.4746 22.8019 13.6761 21.9378 15.8854C21.5058 16.9901 21.0608 18.0921 20.6546 19.233C20.5537 19.5201 20.4555 19.8073 20.3649 20.1126C20.3209 20.2626 20.277 20.4204 20.2408 20.586C20.2226 20.6713 20.2046 20.7593 20.1916 20.855C20.1787 20.9559 20.1657 21.0568 20.1761 21.2172C20.1838 21.2948 20.1916 21.3983 20.2666 21.5587C20.352 21.7372 20.5357 21.9002 20.7426 21.9571C20.9444 22.0114 21.0919 21.9804 21.1902 21.9597C21.2885 21.9338 21.3609 21.9002 21.423 21.8717C21.6533 21.7501 21.7826 21.6389 21.9171 21.525C22.1758 21.3 22.3905 21.0801 22.6026 20.8524C23.4357 19.9547 24.1859 19.039 24.9568 18.1387C25.7252 17.2384 26.4935 16.3459 27.3007 15.5103C27.7042 15.0938 28.1155 14.6902 28.5424 14.3307C28.7545 14.1496 28.9718 13.9814 29.1891 13.8339C29.4038 13.6891 29.6289 13.5675 29.81 13.5157C29.898 13.4873 29.973 13.4795 30.0066 13.4847C30.0247 13.4847 30.0325 13.4873 30.0376 13.4899C30.0402 13.4899 30.0402 13.4925 30.0428 13.4925C30.0454 13.4925 30.0635 13.508 30.0739 13.5132C30.1153 13.5468 30.1437 13.5778 30.1696 13.627C30.1954 13.6787 30.2187 13.7486 30.2317 13.8365C30.2575 14.0176 30.2394 14.2556 30.1929 14.5014C30.1437 14.7498 30.0687 15.0059 29.9781 15.2645C29.6056 16.3019 29.0365 17.3238 28.4363 18.3146C28.1336 18.8139 27.8155 19.3028 27.4895 19.7892C27.1635 20.2755 26.8272 20.736 26.4754 21.2767C25.8208 22.3296 25.2828 23.4265 24.8042 24.5415C24.3282 25.6591 23.9168 26.7973 23.5702 27.9615C23.2235 29.1256 22.939 30.3105 22.7631 31.5341C22.7139 31.8368 22.6932 32.1498 22.657 32.4602C22.6259 32.7422 22.6078 33.0242 22.5613 33.3062C22.4863 33.8676 22.3724 34.4237 22.2275 34.9722C21.6532 37.1556 20.5357 39.2097 18.924 40.7489C18.5204 41.1318 18.0884 41.4811 17.6305 41.7941C17.1726 42.1045 16.6863 42.3684 16.1844 42.5935C15.6825 42.8211 15.1573 42.9893 14.6218 43.116C14.3554 43.1859 14.0811 43.2247 13.8095 43.2738C13.5353 43.3023 13.2611 43.3411 12.9843 43.3488C12.7074 43.3721 12.4306 43.3618 12.1538 43.3644C11.877 43.3463 11.6028 43.3411 11.3157 43.3023C10.7465 43.2531 10.1903 43.1548 9.6393 43.041C9.09344 42.9117 8.55278 42.7642 8.03797 42.5624C7.52316 42.3581 7.02381 42.1252 6.55557 41.8381C6.08732 41.5483 5.64498 41.2223 5.23365 40.8576C4.82491 40.4876 4.44717 40.0815 4.09534 39.6495C3.38909 38.7802 2.84845 37.8179 2.51732 36.7805C2.18618 35.7457 2.07754 34.6462 2.19912 33.5649C2.31813 32.4861 2.66734 31.4306 3.20284 30.476C4.26868 28.5591 6.07184 27.0741 8.14401 26.3161C8.66141 26.1247 9.19689 25.9773 9.74016 25.8712C10.3015 25.7651 10.8733 25.6746 11.4398 25.6099C12.5703 25.4857 13.7138 25.4547 14.7744 25.6384C15.0383 25.6849 15.2945 25.747 15.5376 25.8246C15.7782 25.9048 16.011 26.0005 16.218 26.1144C16.6319 26.3446 16.9372 26.6525 17.0613 26.9991C17.126 27.1724 17.1519 27.3587 17.139 27.5579C17.1286 27.7545 17.0743 27.9744 16.9941 28.1684C16.8337 28.5565 16.5387 28.8824 16.1326 29.1437C15.729 29.4076 15.2323 29.6016 14.7097 29.7491C14.1846 29.8965 13.631 30 13.0671 30.0802C12.5031 30.1604 11.9262 30.2096 11.3441 30.2587L10.4671 30.3208L10.017 30.3492C9.85142 30.3622 9.68584 30.3777 9.48923 30.4139C9.38834 30.4346 9.28483 30.4553 9.13996 30.5122C9.07011 30.5407 8.98475 30.5795 8.88644 30.6493C8.78555 30.727 8.66139 30.8356 8.57602 31.027C8.49323 31.2029 8.48547 31.4177 8.50875 31.5419C8.5191 31.6169 8.53466 31.6557 8.55019 31.7178C8.56571 31.7592 8.5838 31.8057 8.59932 31.8419C8.66658 31.9842 8.72867 32.0696 8.78558 32.1524C9.01065 32.4525 9.19692 32.6517 9.37801 32.8741C9.73501 33.3088 10.0299 33.7434 10.2524 34.2142C10.6223 34.9826 10.7439 35.8414 10.6586 36.7158C10.6275 37.0418 10.8526 37.3367 11.1734 37.404C11.5459 37.4842 11.9107 37.2306 11.9598 36.8503C12.0141 36.4364 12.0322 36.0096 12.0012 35.5853C11.9572 34.9179 11.7917 34.2504 11.5226 33.6373C11.2588 33.0242 10.8836 32.4654 10.493 31.9765C10.449 31.917 10.4025 31.8626 10.3559 31.8057C10.4206 31.8031 10.4878 31.798 10.5551 31.7954L11.4554 31.7462C12.0581 31.7074 12.6635 31.6505 13.2766 31.5677C13.8871 31.485 14.5054 31.3763 15.1237 31.2056C15.742 31.0322 16.368 30.8046 16.9656 30.4191C17.2631 30.2302 17.5477 29.9974 17.7987 29.718C18.0496 29.4412 18.2617 29.1127 18.4117 28.7583C18.5592 28.4064 18.6497 28.0365 18.673 27.6433C18.6963 27.2526 18.6394 26.8387 18.4945 26.4559C18.3523 26.0704 18.1194 25.7315 17.8504 25.4521C17.5813 25.1753 17.2761 24.9528 16.9631 24.7821C16.3344 24.4354 15.6825 24.2543 15.0409 24.1405C13.7552 23.9206 12.5005 23.9723 11.2742 24.1068C10.6611 24.1767 10.0584 24.275 9.45563 24.3914C8.83475 24.513 8.22162 24.6838 7.62661 24.9062C5.244 25.7858 3.15369 27.5036 1.91194 29.7517C1.29106 30.8718 0.879729 32.1162 0.742619 33.3993C0.600335 34.6799 0.734858 35.9941 1.13067 37.2177C1.5213 38.4439 2.17325 39.5848 2.97004 40.5549C3.36844 41.0413 3.80306 41.5043 4.27648 41.9312C4.75507 42.3529 5.26987 42.7332 5.81572 43.0643C6.36158 43.3954 6.94103 43.6645 7.53087 43.8973C8.12329 44.1275 8.73122 44.2931 9.33917 44.4354C9.95228 44.5596 10.5654 44.6656 11.1811 44.7174C11.4838 44.7562 11.8046 44.7639 12.1202 44.782C12.4358 44.7795 12.754 44.7898 13.0696 44.7614C13.3878 44.7484 13.7034 44.707 14.0165 44.6682C14.3295 44.6139 14.6451 44.5647 14.953 44.4845C15.5713 44.3397 16.1792 44.1353 16.7587 43.874C17.3382 43.6127 17.8995 43.3075 18.4247 42.9479C18.9473 42.5909 19.4388 42.1873 19.8967 41.7553C21.7205 40.0013 22.9415 37.7144 23.5676 35.3137C23.7254 34.7135 23.847 34.1004 23.9298 33.4847C23.9764 33.1768 23.9996 32.8664 24.0307 32.5585C24.0643 32.2766 24.0798 31.9972 24.1264 31.7126C24.2842 30.5821 24.5532 29.4542 24.8792 28.3418C25.2078 27.2294 25.601 26.1299 26.0537 25.0615C26.5064 23.9956 27.0187 22.9505 27.6137 21.9855C27.9086 21.5276 28.2708 21.0258 28.6019 20.5265C28.9356 20.0246 29.2641 19.5175 29.5771 19.0001C30.2006 17.9602 30.7957 16.8995 31.2277 15.6966C31.3337 15.3939 31.4269 15.0809 31.4916 14.7446C31.5562 14.4083 31.5976 14.0487 31.5407 13.6373Z" fill="#6542BE"/>
</svg>
