<svg width="42" height="36" viewBox="0 0 42 36" fill="none" xmlns="http://www.w3.org/2000/svg">
<path d="M1 1.05036C3.71117 0.319816 6.57892 1.75821 7.50685 4.40812C7.52953 4.47164 7.5499 4.53291 7.56805 4.5919L11.7902 22.5083" stroke="#6542BE" stroke-width="1.12291" stroke-miterlimit="10" stroke-linecap="round" stroke-linejoin="round"/>
<path d="M38.4834 34.0676C39.6767 34.0585 40.6365 33.0852 40.6297 31.8918C40.6206 30.6985 39.6473 29.7388 38.4539 29.7456C37.2605 29.7524 36.3008 30.7279 36.3077 31.9213C36.3167 33.1147 37.29 34.0744 38.4834 34.0676Z" stroke="#6542BE" stroke-width="1.12291" stroke-miterlimit="10" stroke-linecap="round" stroke-linejoin="round"/>
<path d="M16.096 34.5483C17.2893 34.5393 18.249 33.566 18.2422 32.3726C18.2354 31.1792 17.2599 30.2195 16.0665 30.2264C14.8731 30.2354 13.9134 31.2087 13.9202 32.4021C13.9293 33.5955 14.9026 34.5574 16.096 34.5483Z" stroke="#6542BE" stroke-width="1.12291" stroke-miterlimit="10" stroke-linecap="round" stroke-linejoin="round"/>
<path d="M38.535 29.746L13.9076 30.2632C11.5504 30.3177 9.61738 29.0154 9.58789 27.3661C9.51755 26.243 10.4069 25.2947 11.5322 25.2901L12.2469 25.2879L35.6764 24.7978C37.4437 24.766 38.9683 23.5976 39.4289 21.9255L41.0057 11.5732C41.2416 9.39518 41.101 6.55472 36.9333 6.88595L13.3631 6.98122" stroke="#6542BE" stroke-width="1.12291" stroke-miterlimit="10" stroke-linecap="round" stroke-linejoin="round"/>
<path fill-rule="evenodd" clip-rule="evenodd" d="M20.1706 17.9688L20.4669 20.3921H30.8372L30.4982 17.6172H25.6624L25.6205 17.2729L30.0739 14.1481L29.7763 11.7196H19.4065L19.7459 14.4949H24.589L24.6317 14.8418L20.1706 17.9688Z" fill="#6542BE"/>
</svg>
