<svg width="42" height="35" viewBox="0 0 42 35" fill="none" xmlns="http://www.w3.org/2000/svg">
<path d="M6.6663 28.5213L3.22043 26.2513C1.07101 24.8957 0.427306 22.0526 1.78292 19.9009L12.5391 2.84883C13.8947 0.699408 16.7379 0.0557316 18.8896 1.41134L26.8958 6.55858C27.9717 7.23638 28.67 8.28719 28.9293 9.43582" stroke="#6542BE" stroke-width="1.12291" stroke-miterlimit="10" stroke-linecap="round" stroke-linejoin="round"/>
<path d="M36.9909 29.3857L15.3739 34.2782C12.9856 34.8196 10.6133 33.3206 10.072 30.9347L7.85887 21.1565C7.31754 18.7683 8.81643 16.396 11.2024 15.8546L32.8194 10.9621C35.2077 10.4208 37.58 11.9197 38.1213 14.3057L40.3344 24.0838C40.8758 26.4721 39.3769 28.8444 36.9909 29.3857Z" stroke="#6542BE" stroke-width="1.12291" stroke-miterlimit="10" stroke-linecap="round" stroke-linejoin="round"/>
<path d="M34.9915 25.1025L30.0922 26.2102" stroke="#6542BE" stroke-width="1.12291" stroke-miterlimit="10" stroke-linecap="round" stroke-linejoin="round"/>
<path d="M12.5013 23.3688C12.5013 23.3688 17.5439 19.327 24.1014 19.923C34.0365 20.8237 38.2238 16.725 38.2238 16.725" stroke="#6542BE" stroke-width="1.12291" stroke-miterlimit="10" stroke-linecap="round" stroke-linejoin="round"/>
</svg>
