<svg xmlns="http://www.w3.org/2000/svg" viewBox="0 0 768 285"><defs><style>.cls-1{fill:#fffffa;}.cls-2{fill:#aa8fff;}</style></defs><g id="Logos"><polygon class="cls-1" points="19.7 227.91 26.36 282.16 259.52 282.16 251.89 220.03 143.17 220.03 142.22 212.32 242.35 142.36 235.67 87.99 2.52 87.99 10.14 150.13 119.04 150.13 120 157.89 19.7 227.91"/><polygon class="cls-2" points="262.76 87.99 286.6 282.16 519.94 282.16 496.09 87.99 262.76 87.99"/><path class="cls-1" d="M764.64,157.9C759.26,114.25,725,87.8,678.37,88H523.17L547,282.16h69.82l-4.78-38.83h73.89C744.1,243.33,770.71,207.09,764.64,157.9Zm-86.24,31-73,.08-5.72-46.6,73.41.06c17.27.2,26.1,9.92,27.52,23.23C701.49,174.22,697.57,188.89,678.4,188.89Z"/><ellipse class="cls-1" cx="306.9" cy="37.62" rx="32.7" ry="37.01" transform="translate(69.29 235.48) rotate(-46.77)"/></g></svg>