<svg xmlns="http://www.w3.org/2000/svg" viewBox="0 0 768 285"><defs><style>.cls-1{fill:#aa8fff;}</style></defs><g id="Logos"><polygon points="19.53 227.27 26.19 281.53 259.36 281.53 251.73 219.39 143.01 219.39 142.06 211.69 242.19 141.72 235.5 87.36 2.35 87.36 9.98 149.49 118.88 149.49 119.83 157.26 19.53 227.27"/><polygon class="cls-1" points="262.59 87.36 286.44 281.53 519.78 281.53 495.93 87.36 262.59 87.36"/><path d="M764.47,157.26c-5.38-43.64-39.66-70.09-86.26-69.9H523l23.84,194.18h69.83l-4.78-38.84h73.89C743.93,242.69,770.54,206.46,764.47,157.26Zm-86.24,31-73,.08-5.72-46.6,73.41.06c17.26.21,26.09,9.93,27.52,23.23C701.32,173.59,697.4,188.25,678.23,188.25Z"/><ellipse cx="306.74" cy="36.99" rx="32.7" ry="37.01" transform="matrix(0.68, -0.73, 0.73, 0.68, 69.7, 235.16)"/></g></svg>