<svg width="16" height="16" viewBox="0 0 16 16" fill="none" xmlns="http://www.w3.org/2000/svg">
<path d="M8 4.85333C8 4.52932 8.26266 4.26666 8.58667 4.26666V4.26666C8.91067 4.26666 9.17333 4.52932 9.17333 4.85333V5.01333C9.17333 5.33734 8.91067 5.6 8.58667 5.6V5.6C8.26266 5.6 8 5.33734 8 5.01333V4.85333Z" fill="#1A0826"/>
<path d="M8 7.51999C8 7.19598 8.26266 6.93332 8.58667 6.93332V6.93332C8.91067 6.93332 9.17333 7.19598 9.17333 7.51999V10.3467C9.17333 10.6707 8.91067 10.9333 8.58667 10.9333V10.9333C8.26266 10.9333 8 10.6707 8 10.3467V7.51999Z" fill="#1A0826"/>
<path fill-rule="evenodd" clip-rule="evenodd" d="M8.53337 1.59993C5.29871 1.59993 2.66671 4.23194 2.66671 7.4666C2.66671 10.7013 5.29871 13.3333 8.53337 13.3333C11.768 13.3333 14.4 10.7013 14.4 7.4666C14.4 4.23194 11.768 1.59993 8.53337 1.59993M8.53331 14.4C4.71038 14.4 1.59998 11.2896 1.59998 7.46666C1.59998 3.64372 4.71038 0.533325 8.53331 0.533325C12.3562 0.533325 15.4666 3.64372 15.4666 7.46666C15.4666 11.2896 12.3562 14.4 8.53331 14.4" fill="#1A0826"/>
</svg>